<svg width="39" height="50" viewBox="0 0 39 50" fill="none" xmlns="http://www.w3.org/2000/svg">
<path d="M38.2521 14.1257C38.1458 13.8156 37.9752 13.2805 37.8688 12.9269C37.6667 12.2314 37.624 12.1134 37.4003 11.6C37.315 11.4074 37.166 11.022 37.0597 10.7442C36.847 10.1874 36.4316 9.32042 36.3358 9.24583C36.3036 9.22468 36.1547 8.95684 35.9952 8.64671C35.8357 8.33657 35.6867 8.06873 35.6545 8.04759C35.6224 8.02644 35.4629 7.82321 35.3034 7.58767C35.1439 7.3633 34.8348 6.97798 34.6222 6.73187C34.4095 6.48576 34.0578 6.05757 33.8451 5.76858C33.515 5.32982 33.1423 4.95566 32.7169 4.63437C32.6743 4.60265 32.291 4.31366 31.8762 3.99237C31.0991 3.39325 30.9823 3.35037 30.8117 3.5213C30.7375 3.59589 30.7053 3.59589 30.7053 3.5213C30.7053 3.46785 30.6417 3.41439 30.5774 3.41439C30.5131 3.41439 30.4711 3.45727 30.5032 3.50015C30.5353 3.5536 30.4822 3.56417 30.3221 3.53246C30.1521 3.48958 30.0562 3.51131 29.9815 3.62879C29.8962 3.74626 29.7898 3.76741 29.4702 3.73569C29.2465 3.71454 29.0233 3.62879 28.9701 3.5536C28.917 3.47901 28.8106 3.41439 28.7358 3.41439C28.64 3.41439 28.5974 3.3398 28.5974 3.20059C28.5974 3.07196 28.5442 2.98679 28.4694 2.98679C28.3946 2.98679 28.3421 2.95507 28.3421 2.91219C28.3421 2.86931 28.321 2.77298 28.2889 2.68723C28.2462 2.56975 28.2784 2.54802 28.5232 2.56975C28.768 2.5909 28.8211 2.56975 28.8422 2.4094C28.8632 2.22732 28.8743 2.22732 29.1828 2.35536C29.3528 2.43055 29.5555 2.53745 29.6297 2.60147C29.8424 2.79413 30.4173 3.08312 30.46 3.02967C30.5236 2.96564 30.2578 2.76182 29.8851 2.58033C29.7256 2.50573 29.4913 2.3771 29.3738 2.29134C29.0543 2.07754 27.447 1.24229 26.9042 1.01792C26.4467 0.825258 25.8397 0.6326 24.8605 0.365346C24.6052 0.290749 23.9771 0.19442 23.4659 0.151542C22.4335 0.055213 21.9328 0.140382 21.8481 0.429369C21.8271 0.515125 21.7418 0.589722 21.667 0.589722C21.5607 0.589722 21.5501 0.558004 21.6138 0.429369C21.7628 0.151542 21.7202 0.0763584 21.4012 0.0763584C21.2417 0.0763584 21.1032 0.108076 21.1137 0.140382C21.1242 0.172687 21.1242 0.290162 21.1137 0.397064C21.1032 0.6326 20.9326 0.567989 20.9326 0.322467C20.9326 0.215566 20.8899 0.172687 20.8046 0.204993C20.7088 0.236711 20.6983 0.290749 20.762 0.418796C20.8362 0.546844 20.8152 0.589722 20.6557 0.611454C20.3577 0.664905 19.9954 0.654333 19.9954 0.590309C20.006 0.301322 20.1234 0.151542 20.3466 0.151542C20.4851 0.151542 20.5914 0.119824 20.5914 0.0769458C20.5914 0.0340676 20.3483 0 20.0609 0C19.3376 0 19.1348 0.160353 19.486 0.471073C19.6881 0.641998 19.7098 0.920412 19.5181 0.920412C19.4013 0.920412 19.4013 0.899267 19.486 0.792365C19.5497 0.717181 19.5713 0.632012 19.5392 0.599707C19.465 0.524523 18.89 1.16652 18.89 1.3163C18.89 1.45551 18.72 1.46608 18.72 1.32746C18.72 1.26344 18.6563 1.30632 18.571 1.40206C18.3584 1.65874 18.1667 1.71219 18.1451 1.50896C18.1346 1.42379 18.1662 1.34861 18.2088 1.34861C18.2515 1.34861 18.2941 1.23113 18.2941 1.09193C18.2941 0.899267 18.3368 0.835243 18.4536 0.835243C18.581 0.835243 18.6236 0.760647 18.6452 0.492805C18.6768 0.1721 18.6663 0.150367 18.4431 0.150367C18.3151 0.150367 18.1878 0.193245 18.1556 0.235536C18.1235 0.278414 18.1346 0.321293 18.1878 0.321293C18.2304 0.321293 18.2836 0.395889 18.3151 0.492218C18.3473 0.620265 18.3151 0.663143 18.1983 0.663143C18.113 0.663143 18.0388 0.716594 18.0388 0.780618C18.0388 0.844641 17.9646 0.962703 17.8793 1.0373C17.7408 1.16535 17.7093 1.16535 17.6666 1.04787C17.6345 0.973276 17.5603 0.919825 17.4966 0.919825C17.4329 0.919825 17.3581 0.845229 17.3266 0.7489C17.3056 0.652571 17.2308 0.577387 17.1776 0.577387C17.1139 0.577387 17.0923 0.59912 17.1244 0.631425C17.1566 0.663143 17.0929 0.727754 16.986 0.781205C16.8475 0.845229 16.7943 0.95213 16.7943 1.14479C16.7943 1.31571 16.7307 1.46608 16.6237 1.55125C16.5174 1.62585 16.4964 1.6793 16.5601 1.6793C16.6237 1.6793 16.6448 1.72218 16.6132 1.76505C16.5811 1.80793 16.5174 1.82908 16.4642 1.79677C16.4111 1.76505 16.3258 1.79677 16.2726 1.87137C16.1768 2.01058 15.8788 2.03172 15.7935 1.91425C15.7193 1.81792 15.3144 2.05345 15.3361 2.1815C15.3466 2.24552 15.3361 2.24552 15.315 2.20265C15.294 2.14919 15.2192 2.11748 15.1555 2.11748C15.0171 2.11748 15.0171 2.09633 15.0918 1.91425C15.124 1.83965 15.1771 1.79677 15.2198 1.82908C15.2624 1.85022 15.294 1.77504 15.294 1.65815C15.294 1.37974 15.1666 1.30514 15.0387 1.4978C14.975 1.61527 14.9534 1.61527 14.9534 1.51894C14.9855 1.22996 14.9429 1.16593 14.7512 1.19765C14.6344 1.2188 14.5701 1.27284 14.5917 1.358C14.677 1.67871 14.677 2.23554 14.5917 2.3213C14.5386 2.37475 14.4322 2.54567 14.3364 2.70661C14.2406 2.86755 14.1342 2.96329 14.0916 2.94215C14.0489 2.921 13.9853 2.93099 13.9636 2.98503C13.8678 3.13481 13.6657 3.08135 13.6657 2.89927C13.6657 2.77122 13.7188 2.72834 13.8678 2.72834C14.1448 2.72834 14.219 2.50397 13.9636 2.43936C13.8573 2.40764 13.6978 2.40764 13.6335 2.43936C13.5482 2.47107 13.4951 2.43936 13.4951 2.3536C13.4951 2.279 13.5377 2.23613 13.5804 2.26843C13.623 2.30074 13.6657 2.279 13.6657 2.23671C13.6657 2.19442 13.623 2.14038 13.5593 2.11924C13.432 2.07636 13.2082 2.27959 13.2719 2.38649C13.2929 2.42937 13.2403 2.43994 13.1334 2.41821C13.0061 2.38649 12.9739 2.39707 13.0061 2.47166C13.0487 2.53569 13.0166 2.54626 12.9319 2.51454C12.8255 2.47166 12.815 2.43994 12.8997 2.34362C12.9529 2.27959 12.985 2.21557 12.9634 2.20441C12.9424 2.19384 12.8571 2.12981 12.7613 2.05463C12.6654 1.9906 12.6228 1.96887 12.6549 2.00118C12.7402 2.10808 12.5702 2.39707 12.4206 2.39707C12.357 2.39707 12.2927 2.43994 12.2927 2.48282C12.2927 2.5257 12.3459 2.56858 12.4206 2.56858C12.4954 2.56858 12.5486 2.6003 12.5486 2.65375C12.5486 2.69663 12.4954 2.71777 12.4206 2.68547C12.3464 2.65375 12.2927 2.68547 12.2927 2.7395C12.2927 2.79354 12.229 2.88928 12.1542 2.95331C12.0263 3.03848 12.0263 3.07078 12.1437 3.17768C12.25 3.27401 12.25 3.31689 12.1647 3.40206C12.1011 3.46608 12.0479 3.55184 12.0263 3.60529C12.0052 3.65874 11.8878 3.70162 11.7604 3.70162C11.6331 3.70162 11.5262 3.74391 11.5262 3.80852C11.5262 3.87313 11.4409 3.90485 11.3135 3.89428C11.1008 3.87313 10.9092 3.76564 11.0792 3.76564C11.1324 3.76564 11.1961 3.71219 11.2177 3.6376C11.2814 3.47724 11.1966 3.24171 11.0903 3.30573C11.0477 3.32688 11.0161 3.31689 11.0161 3.26285C11.0161 3.22056 10.9419 3.18826 10.8455 3.18826C10.7392 3.19942 10.686 3.24229 10.7176 3.31689C10.7707 3.46667 10.3343 3.86256 10.1537 3.81968C10.079 3.79854 9.99425 3.81968 9.98315 3.87313C9.97263 3.91601 9.82365 4.01234 9.67466 4.07636C9.40825 4.18327 9.38721 4.18326 9.34456 4.02291C9.28088 3.7768 9.20609 3.80911 9.09976 4.14039C9.02556 4.39707 9.02556 4.42937 9.20609 4.51454C9.36559 4.58973 9.44038 4.56858 9.6215 4.39707C9.73835 4.27959 9.94108 4.19384 10.0684 4.19384C10.1958 4.19384 10.3986 4.14039 10.5259 4.07636C10.7176 3.98003 10.7602 3.98003 10.8029 4.07636C10.8239 4.14039 10.8029 4.21557 10.7602 4.24729C10.707 4.27959 10.6965 4.3865 10.7176 4.4934C10.7497 4.62144 10.7287 4.7072 10.6328 4.73951C10.537 4.78238 10.5049 4.75008 10.5475 4.66491C10.6217 4.46168 10.2817 4.50456 10.1748 4.7072C10.0684 4.91043 9.87681 4.93216 9.80203 4.75008C9.71673 4.53628 9.56775 4.6003 9.63201 4.83584C9.67466 5.01733 9.65305 5.04964 9.48303 5.04964C9.32353 5.04964 9.31301 5.07078 9.40883 5.13481C9.51516 5.19883 9.50465 5.22056 9.34515 5.22056C9.23881 5.22056 9.15351 5.26344 9.15351 5.31689C9.15351 5.37034 9.22771 5.38092 9.32353 5.34861C9.41935 5.31689 9.49355 5.32747 9.49355 5.36976C9.49355 5.41205 9.3767 5.47666 9.22771 5.50896C8.94026 5.56242 8.47228 5.34861 8.47228 5.16653C8.47228 5.00617 8.71708 4.95272 8.91923 5.05962C9.06821 5.13422 9.12138 5.12365 9.20668 5.00617C9.36618 4.79237 9.11086 4.50338 8.89819 4.64259C8.81289 4.69604 8.77083 4.77064 8.79186 4.81352C8.81289 4.85639 8.74921 4.86697 8.63236 4.83466C8.48338 4.79178 8.36653 4.85581 8.17489 5.0702C7.85531 5.42321 7.72794 5.69046 7.95112 5.57299C8.03643 5.5307 8.20644 5.49839 8.33439 5.49839C8.67501 5.49839 8.62184 5.81968 8.27071 5.92659C7.63212 6.11924 7.29151 6.26902 7.30202 6.36535C7.32306 6.57916 7.29151 6.67549 7.16355 6.67549C7.08935 6.67549 7.0356 6.71836 7.0356 6.76124C7.0356 6.80412 7.07825 6.847 7.1209 6.847C7.24827 6.847 7.22724 7.15713 7.08877 7.2746C6.99295 7.36036 6.92927 7.33863 6.76919 7.17828C6.64182 7.05023 6.56703 7.01792 6.546 7.08195C6.49284 7.2423 6.35437 7.19942 6.35437 7.01792C6.35437 6.81469 6.24803 6.73951 6.06692 6.80412C5.98162 6.83584 5.92845 6.96447 5.92845 7.15713C5.92845 7.42497 5.90742 7.45669 5.73681 7.40324C5.51305 7.3492 5.38568 7.41381 5.3109 7.61704C5.2256 7.85199 5.35355 7.8843 5.51305 7.67049L5.66203 7.47784L5.60886 7.68107C5.57673 7.8097 5.59835 7.9166 5.67255 7.95948C5.76836 8.0235 5.76836 8.05581 5.6299 8.16271C5.42775 8.32306 5.26825 8.24847 5.19346 7.99179C5.15081 7.83143 5.08713 7.78856 4.87446 7.78856C4.65069 7.78856 4.62966 7.8097 4.71496 7.9166C4.80026 8.01293 4.80026 8.07695 4.72548 8.15214C4.56598 8.31249 4.60863 8.47284 4.80026 8.47284C4.93873 8.47284 4.95976 8.51572 4.91711 8.64377C4.87446 8.78298 4.90659 8.8147 5.08771 8.8147C5.30038 8.8147 5.30038 8.82585 5.16191 8.96447C5.05558 9.07138 5.00241 9.08195 4.98079 9.00735C4.92763 8.83584 4.78916 8.88929 4.69334 9.11425C4.64018 9.23173 4.56598 9.32806 4.52333 9.32806C4.41699 9.32806 4.20433 9.55243 4.25749 9.60588C4.27853 9.62703 4.27853 9.76624 4.24698 9.89487C4.20433 10.0875 4.14064 10.141 3.94901 10.1621C3.73634 10.1733 3.70421 10.1516 3.73634 10.0018C3.77899 9.78797 3.54471 9.66991 3.42786 9.84142C3.31101 10.0341 3.33204 10.0981 3.60897 10.1839C3.74744 10.2379 3.86429 10.3125 3.86429 10.3554C3.86429 10.3983 3.81113 10.4194 3.73634 10.3871C3.66214 10.3554 3.60897 10.3871 3.60897 10.4511C3.60897 10.5151 3.55581 10.6115 3.48102 10.6755C3.40682 10.7289 3.37469 10.8147 3.39572 10.857C3.41676 10.8999 3.37469 10.9322 3.28939 10.9322C3.20409 10.9322 3.06562 11.0496 2.99142 11.1889C2.8956 11.3598 2.79979 11.4244 2.71449 11.3921C2.64029 11.3598 2.53337 11.4027 2.4802 11.4667C2.42704 11.5413 2.29908 11.6165 2.20327 11.627C2.09693 11.6482 2.03325 11.7234 2.02215 11.8408C2.02215 11.9477 1.94795 12.0869 1.87317 12.1621C1.69205 12.3436 1.69205 12.3548 1.94737 12.3119C2.25585 12.2585 2.2132 12.4511 1.8942 12.5792C1.7347 12.6432 1.67102 12.7184 1.72418 12.7501C1.85213 12.8358 1.84103 12.9104 1.67102 13.1031C1.58571 13.1994 1.52203 13.3169 1.51151 13.3809C1.51151 13.435 1.501 13.5413 1.49048 13.6165C1.47997 13.6911 1.40518 13.7451 1.33098 13.7451C1.20361 13.7451 1.20361 13.7557 1.30995 13.8303C1.41628 13.9049 1.41628 13.916 1.27781 13.916C1.14986 13.916 1.13935 13.9372 1.22465 14.0441C1.30995 14.151 1.27781 14.215 1.07566 14.4294C0.862996 14.6432 0.841379 14.7078 0.92668 14.8358C1.04353 14.9962 1.00088 15.2958 0.873513 15.2958C0.830863 15.2958 0.820346 15.3275 0.841379 15.3815C0.873513 15.4238 0.820346 15.499 0.735046 15.5524C0.618196 15.6165 0.607095 15.6593 0.692395 15.7451C0.777696 15.8303 0.745562 15.8949 0.564444 16.0447C0.436494 16.1516 0.37281 16.2479 0.415461 16.2479C0.532311 16.2479 0.500761 16.9433 0.37281 17.0185C0.319643 17.0502 0.29861 17.1254 0.33016 17.1789C0.36171 17.2329 0.319059 17.3715 0.244859 17.489C0.17066 17.6065 0.128009 17.778 0.149042 17.8743C0.170075 17.9707 0.138526 18.0881 0.0748425 18.1422C0.000642664 18.2062 -0.0209746 18.2919 0.0216757 18.3771C0.0532252 18.4517 0.0748425 18.7519 0.064326 19.0297C0.0321922 19.8643 0.0321922 19.9501 0.128009 20.057C0.191693 20.1316 0.181176 20.1745 0.106976 20.2068C0.0216757 20.2391 0.0216757 20.2708 0.0859433 20.3671C0.213894 20.5381 0.309711 20.8059 0.213894 20.7524C0.171244 20.7313 0.118077 20.8059 0.097044 20.9234C0.076011 21.0408 0.0865275 21.1589 0.118077 21.1801C0.149627 21.2012 0.160727 21.2975 0.13911 21.3939C0.106976 21.5008 0.13911 21.5648 0.202793 21.5648C0.288094 21.5648 0.288094 21.5859 0.21331 21.6717C0.064326 21.8215 0.085359 22.057 0.276993 22.2497C0.383327 22.3566 0.44701 22.5386 0.44701 22.7207C0.44701 22.9345 0.48966 23.0203 0.574961 23.0203C0.649161 23.0203 0.702912 23.0955 0.702912 23.1918C0.702912 23.2881 0.649745 23.3627 0.586062 23.3627C0.447594 23.3627 0.341261 23.5977 0.416045 23.7157C0.437078 23.7586 0.522378 23.7903 0.597162 23.7903C0.69298 23.7903 0.714013 23.8444 0.682463 23.9936C0.650329 24.1216 0.671947 24.2179 0.73563 24.2397C0.82093 24.2714 0.82093 24.3037 0.725113 24.4218C0.61878 24.5498 0.629296 24.5604 0.831447 24.5604C1.09728 24.5604 1.1078 24.5927 0.884614 24.9028C0.756663 25.0843 0.746146 25.1595 0.82093 25.1918C0.884614 25.213 0.874097 25.2347 0.77828 25.2453C0.543996 25.2564 0.725113 25.6306 0.969914 25.6306C1.07625 25.6306 1.18258 25.684 1.2042 25.7375C1.22523 25.7909 1.2042 25.8444 1.17265 25.8444C1.1411 25.8444 1.08735 26.0153 1.07683 26.2191C1.0558 26.5398 1.07683 26.6044 1.24685 26.6467C1.49165 26.7108 1.54482 26.6467 1.42797 26.4541C1.35377 26.3366 1.35377 26.2831 1.42797 26.2614C1.60908 26.1974 1.83227 26.5287 1.83227 26.8394C1.83227 27.0215 1.8644 27.1178 1.91757 27.0961C1.96022 27.0644 2.00287 27.0855 2.00287 27.1389C2.00287 27.1924 2.08817 27.2247 2.1945 27.203C2.30084 27.1924 2.38614 27.2141 2.38614 27.267C2.38614 27.3099 2.30084 27.3416 2.1945 27.331C2.08817 27.3199 2.00287 27.3416 2.00287 27.395C2.00287 27.4485 2.06655 27.4808 2.14134 27.4808C2.22664 27.4808 2.25819 27.5237 2.23715 27.5983C2.20502 27.6729 2.26929 27.7375 2.39665 27.7692C2.64146 27.8332 2.66249 27.9513 2.44982 28.0259C2.31135 28.0793 2.31135 28.0899 2.44982 28.1968C2.53512 28.2608 2.63094 28.4212 2.66249 28.5498C2.69462 28.6779 2.80096 28.8276 2.89677 28.8811C3.09892 28.9986 3.19474 29.1166 3.14157 29.2024C3.12054 29.2453 3.16261 29.2664 3.23739 29.2664C3.33321 29.2664 3.36534 29.3522 3.36534 29.5448C3.36534 29.6946 3.41851 30.0476 3.49329 30.3155C3.65279 30.9257 3.66331 30.8829 3.41909 30.8829C3.25959 30.8829 3.21694 30.9257 3.22746 31.0967C3.23798 31.2253 3.29114 31.3105 3.37644 31.3105C3.55756 31.3105 3.71706 31.482 3.71706 31.6635C3.71706 31.8667 4.08981 32.1022 4.29196 32.0382C4.38778 32.0059 4.49411 32.0382 4.5578 32.1128C4.62148 32.1874 4.70678 32.2409 4.75995 32.2409C4.81311 32.2409 4.94107 32.3906 5.03688 32.5622C5.32433 33.0649 5.82445 33.6106 6.00557 33.6106C6.17559 33.6106 6.73997 34.1134 6.97426 34.4776C7.05956 34.6056 7.22958 34.7343 7.36804 34.7666C7.50651 34.7989 7.61284 34.8629 7.61284 34.9058C7.61284 35.0021 7.97508 34.9058 8.04928 34.7883C8.08141 34.7348 8.24091 34.7348 8.48571 34.7883C8.81581 34.8629 8.92215 34.8417 9.24115 34.6708C9.4433 34.5639 9.54963 34.4676 9.46433 34.4676C9.30483 34.4676 9.26218 34.3395 9.40065 34.2538C9.4433 34.2221 9.48595 34.2426 9.48595 34.2967C9.48595 34.457 9.73075 34.393 9.8587 34.2109C9.9329 34.1146 10.0077 34.0717 10.0398 34.1146C10.0714 34.1575 10.0503 34.2215 10.0077 34.2538C9.89084 34.3284 9.90135 34.5533 10.0077 34.5533C10.0609 34.5533 10.0714 34.5216 10.0503 34.4787C10.0293 34.4359 10.0609 34.3824 10.1356 34.3507C10.2098 34.3184 10.242 34.2649 10.2209 34.2221C10.1999 34.1798 10.2315 34.094 10.3062 34.0294C10.3915 33.9548 10.4231 33.8368 10.3915 33.6764C10.3705 33.5478 10.3705 33.4409 10.4126 33.4409C10.4546 33.4409 10.5294 33.334 10.5826 33.2053C10.6679 33.0127 10.6679 32.9592 10.5505 32.8735C10.4763 32.82 10.412 32.7454 10.412 32.7237C10.412 32.6168 10.7316 32.6702 10.8379 32.7983C10.9016 32.8729 10.9974 32.9157 11.0506 32.884C11.1143 32.8629 11.2101 32.9052 11.2632 32.9804C11.3591 33.0873 11.3485 33.1301 11.2206 33.2265C11.1037 33.3122 11.0932 33.3763 11.1569 33.5689C11.2632 33.8473 11.2101 33.9648 11.0079 33.8902C10.8806 33.8362 10.8806 33.8473 11.0184 33.9865C11.2527 34.2215 11.1779 34.5111 10.8911 34.4999C10.71 34.4999 10.6568 34.5316 10.6568 34.6708C10.6568 34.7995 10.6778 34.8206 10.7631 34.7348C10.9331 34.5639 11.0184 34.6174 10.9653 34.8417C10.9331 34.9704 10.9442 35.0555 10.9974 35.0555C11.0401 35.0555 11.0827 35.1096 11.0827 35.1625C11.0827 35.2694 10.5505 35.6547 10.4015 35.6547C10.2846 35.6547 10.2951 35.7187 10.4652 36.0077C10.5715 36.1892 10.6568 36.2538 10.7847 36.2215C10.8911 36.1892 11.0401 36.2532 11.2001 36.4141C11.4233 36.6279 11.4449 36.6385 11.5513 36.4993C11.6681 36.339 11.9877 36.2855 11.9024 36.4353C11.8703 36.4776 11.9024 36.5205 11.9766 36.5205C12.0508 36.5205 12.1256 36.4776 12.1577 36.4353C12.1899 36.3812 12.2962 36.3713 12.392 36.403C12.4983 36.4353 12.6368 36.457 12.7221 36.457C12.9137 36.4459 13.0732 36.6602 13.0201 36.8529C12.9879 36.981 13.0306 37.0238 13.2649 37.0667C13.4296 37.0984 13.6335 37.2441 13.7557 37.3857V37.2235L14.0402 36.9375C14.0431 36.934 14.0501 36.9275 14.0501 36.9275L14.0402 36.9375C14.0332 36.9475 14.0624 36.9369 14.3621 36.736C14.7781 36.4576 14.3621 36.736 14.4836 36.5445C14.6046 36.3531 14.4836 36.5445 14.7436 35.9184C15.0036 35.2923 15.0019 34.9428 15.0019 34.9428L15.0428 34.5304C15.0428 34.1345 15.0001 34.0382 14.7658 33.771C14.5105 33.482 14.4679 33.4714 14.2973 33.5783C14.1693 33.6529 14.1056 33.7815 14.1056 33.9636C14.1056 34.1669 14.0735 34.2203 13.9566 34.2203C13.765 34.2097 13.595 34.1028 13.595 33.9959C13.595 33.9531 13.6376 33.9425 13.7013 33.9748C13.7755 34.0177 13.765 33.9959 13.6908 33.8896C13.6271 33.815 13.5097 33.7398 13.4355 33.7398C13.3292 33.7398 13.3292 33.7187 13.4034 33.6329C13.5523 33.4832 13.5313 33.3122 13.3718 33.3122C13.276 33.3122 13.2439 33.2582 13.276 33.1301C13.3186 32.9804 13.2865 32.9592 13.1486 32.9909C12.9675 33.045 12.6485 32.82 12.6485 32.6379C12.6485 32.467 12.2442 32.3061 12.1162 32.4347C12.0309 32.5205 12.0847 32.6056 12.3289 32.8306C12.659 33.1407 12.7122 33.2582 12.5416 33.3228C12.4779 33.3439 12.4674 33.3974 12.5094 33.4403C12.5521 33.4832 12.6374 33.4297 12.7116 33.3228C12.8816 33.0661 13.0096 33.0767 12.9774 33.3657C12.9564 33.5366 12.9032 33.6012 12.7858 33.5901C12.69 33.5795 12.5836 33.6224 12.5305 33.6864C12.4563 33.7827 12.392 33.7827 12.1899 33.6864C12.0514 33.6224 11.9877 33.5689 12.0514 33.5689C12.1577 33.5689 12.1472 33.4514 12.0087 33.0767C11.9877 33.0232 12.0403 32.9592 12.1256 32.9375C12.2641 32.9058 12.2641 32.8946 12.1361 32.884C12.0508 32.8729 11.9871 32.8094 11.9871 32.7343C11.9871 32.6485 11.9445 32.6168 11.8592 32.6485C11.6892 32.7125 11.6039 32.5522 11.6354 32.2315C11.6564 32.0065 11.5928 31.9102 11.1668 31.5466C10.901 31.3111 10.5283 31.0221 10.3471 30.894C10.166 30.766 9.94283 30.5622 9.85753 30.4229C9.6659 30.1128 9.28263 29.7486 8.97415 29.5883C8.772 29.4814 7.81383 28.4218 7.33474 27.7798C6.55769 26.7307 5.68482 25.2329 5.68482 24.9439C5.68482 24.8799 5.589 24.548 5.47215 24.2056C5.25948 23.5848 5.03571 22.5363 4.97203 21.8514C4.951 21.6482 4.88673 21.2629 4.83356 20.995C4.72723 20.4922 4.6951 17.9348 4.76988 15.9548C4.81253 14.8206 4.79091 14.874 5.52532 14.0394C5.78063 13.7398 6.03654 13.4185 6.10022 13.3116C6.21707 13.0867 6.38767 12.1022 6.3345 11.9524C6.30237 11.8561 6.39819 11.6852 6.99471 10.7965C7.06891 10.679 7.16472 10.561 7.20737 10.5292C7.25002 10.4975 7.43114 10.262 7.62278 10.0047C8.02708 9.4379 8.62301 8.81704 9.0168 8.54979C9.36793 8.31425 10.2513 7.84318 10.603 7.72571C10.8268 7.64054 11.9334 6.96623 13.498 5.96007C14.4988 5.3075 14.9668 5.15772 16.4677 5.00735C16.6594 4.9862 17.1706 4.91102 17.6175 4.83642C18.0861 4.76183 19.0122 4.69722 19.8319 4.69722C21.1306 4.68664 21.3112 4.70838 22.2588 4.9539C22.8232 5.0931 23.7382 5.37093 24.3025 5.56359C25.3565 5.9166 26.5163 6.2702 27.1128 6.41998C27.773 6.58033 28.1241 6.87989 30.1889 8.99913C30.6253 9.44847 30.9659 9.88724 31.0939 10.1657C31.2107 10.4118 31.3813 10.679 31.4771 10.7648C31.573 10.8499 31.7646 11.1284 31.892 11.3856C32.0199 11.6423 32.2857 12.0599 32.499 12.2949C33.2544 13.1836 33.9783 14.8311 34.2126 16.1798C34.2658 16.4899 34.3189 17.2176 34.3406 17.8062C34.3616 18.4805 34.4259 19.0585 34.5106 19.3792C34.5959 19.6576 34.6701 20 34.6917 20.1392C34.7127 20.2784 34.8085 20.7707 34.9044 21.22C35.2023 22.5686 35.2023 22.6221 35.1492 23.0285C35.117 23.2423 35.1281 23.4567 35.1702 23.5102C35.2128 23.6599 35.1813 23.724 35.0533 23.788C34.9365 23.852 34.8722 23.9701 34.8722 24.141C34.8722 24.2802 34.8085 24.5157 34.7338 24.6549C34.6169 24.8899 34.6169 24.9328 34.7338 25.1254C34.8827 25.3504 34.8401 25.5002 34.6485 25.5002C34.4995 25.5002 34.3505 25.7674 34.3505 26.0135C34.3505 26.1204 34.2231 26.4523 34.0736 26.7736C33.9246 27.0837 33.8077 27.3727 33.8182 27.405C33.8504 27.5225 33.584 28.0899 33.4244 28.2291C33.1902 28.4429 32.8495 28.9569 32.8817 29.0532C32.8922 29.1066 32.5837 29.4702 32.2004 29.8661C31.7535 30.326 31.5087 30.6367 31.5297 30.7331C31.5508 30.84 31.5192 30.8723 31.4339 30.8294C31.3597 30.7977 31.2212 30.8406 31.1254 30.904C30.9659 31.0109 30.9659 31.0326 31.0828 31.0861C31.2423 31.1501 31.2107 31.3533 31.0296 31.3645C30.9659 31.3645 30.8058 31.3751 30.6785 31.3856C30.5295 31.3962 30.4442 31.4497 30.4442 31.5243C30.4442 31.5989 30.391 31.6529 30.3162 31.6529C30.2415 31.6529 30.1883 31.6846 30.1883 31.7381C30.1883 31.781 30.0288 31.9307 29.8266 32.0805C29.6245 32.2191 29.2944 32.4975 29.0817 32.6796C28.6879 33.0438 28.6026 33.0755 28.411 32.9475C28.3368 32.9046 28.2088 32.9152 28.0704 32.9898C27.9424 33.0538 27.7934 33.1072 27.7403 33.1072C27.6766 33.1072 27.6445 33.1713 27.655 33.2464C27.6661 33.321 27.6339 33.4068 27.5697 33.4285C27.5165 33.4497 27.4633 33.4285 27.4633 33.3745C27.4633 33.1818 27.1227 33.2782 27.0696 33.492C26.9948 33.7915 26.7926 33.9413 26.7289 33.7592C26.6968 33.6846 26.601 33.6206 26.5052 33.6206C26.3883 33.6206 26.3457 33.6629 26.3883 33.7592C26.4415 33.8984 26.2715 34.134 26.1219 34.134C26.0793 34.134 25.9729 34.2086 25.8987 34.2943C25.7603 34.4547 25.7603 34.4652 25.9303 34.551C26.2388 34.7113 26.154 34.9152 25.7918 34.8829C25.5575 34.8617 25.4722 34.8188 25.4833 34.7119C25.4938 34.6156 25.4091 34.5516 25.2385 34.5193C25.079 34.4876 24.9727 34.4018 24.9405 34.2837C24.8979 34.134 24.8447 34.1128 24.6321 34.1557C24.4831 34.1874 24.2383 34.2197 24.0677 34.2409C23.7539 34.2814 23.106 34.42 22.7625 34.5128C22.763 34.5915 22.6637 34.5774 22.6772 34.8893C22.6947 35.2899 22.7169 34.9733 22.7864 35.6353C22.8554 36.2973 23.1866 35.9572 23.1866 35.9572C23.1866 35.9572 23.0756 36.0582 23.1796 36.4764C23.2836 36.894 23.0745 36.4582 23.1784 36.9804C23.2824 37.5031 23.2386 36.8183 23.3251 37.3757C23.4116 37.9325 23.3 37.7469 23.3 37.7469L23.387 38.0623C23.387 38.0623 23.3917 38.0658 23.5652 38.1921C23.5962 38.1909 23.6312 38.1874 23.6745 38.1798C23.8129 38.1586 23.9619 38.0946 24.0046 38.0406C24.1214 37.9125 24.6432 37.7304 24.909 37.7304C25.0258 37.7304 25.2286 37.6558 25.3671 37.5595C25.516 37.4632 25.6972 37.4097 25.8035 37.442C25.9098 37.4632 26.0162 37.442 26.0483 37.3886C26.0804 37.3351 26.1757 37.314 26.261 37.3457C26.3994 37.3886 26.4099 37.3569 26.3889 37.1108C26.3784 36.9504 26.4099 36.7578 26.4742 36.672C26.57 36.5334 26.6232 36.5334 26.8896 36.6297C27.1239 36.7149 27.2197 36.7149 27.3155 36.6403C27.3792 36.5868 27.4966 36.5657 27.5819 36.5868C27.6672 36.6185 27.7204 36.5974 27.7204 36.5334C27.7204 36.4793 27.7631 36.4476 27.8267 36.4694C27.8904 36.4905 28.0715 36.4376 28.2527 36.3625C28.5185 36.245 28.6681 36.2338 29.0934 36.2984C29.6151 36.373 29.6257 36.373 29.8599 36.1163C29.9984 35.9666 30.2006 35.8274 30.3174 35.7956C30.4343 35.7633 30.5301 35.7099 30.5301 35.6782C30.5301 35.6464 30.7749 35.4644 31.0623 35.2717C31.6051 34.9187 32.478 34.1052 33.383 33.0996C34.139 32.2544 34.2027 32.1898 34.2237 32.0506C34.2348 31.9865 34.4901 31.6224 34.7986 31.2482C35.1071 30.8735 35.533 30.3066 35.7457 29.9748C35.9583 29.6429 36.2248 29.311 36.3206 29.2259C36.4164 29.1401 36.5017 29.0121 36.5017 28.9263C36.5017 28.8406 36.5122 28.6056 36.5227 28.3912C36.5332 28.1557 36.608 27.899 36.7144 27.7492C36.9592 27.3962 37.1829 26.7113 37.2893 26.037C37.3103 25.8978 37.3851 25.6306 37.4704 25.4485C37.5446 25.2664 37.5872 25.0955 37.5662 25.0737C37.5452 25.052 37.6194 24.8599 37.7473 24.6567C37.8963 24.4317 37.9816 24.1216 38.0132 23.7686C38.0342 23.469 38.0874 23.1906 38.13 23.1478C38.2153 23.0303 38.4706 21.9489 38.4706 21.6705C38.4706 21.5425 38.5343 21.264 38.6091 21.0497C38.7154 20.7501 38.7476 20.2579 38.7581 18.9099C38.7791 16.4376 38.6517 15.2282 38.258 14.1157L38.2521 14.1257ZM0.773606 16.0946C0.80574 16.0517 0.869423 16.0088 0.912074 16.0088C0.954724 16.0088 0.975757 16.0517 0.944207 16.0946C0.912658 16.1375 0.84839 16.1803 0.80574 16.1803C0.76309 16.1803 0.742057 16.1375 0.773606 16.0946ZM0.64624 17.8068C0.699406 17.8068 0.709923 17.8497 0.68889 17.8925C0.656756 17.9348 0.614106 17.9777 0.603589 17.9777C0.582556 17.9777 0.560939 17.9348 0.560939 17.8925C0.560939 17.8502 0.603589 17.8068 0.64624 17.8068ZM0.380406 20.4288C0.433572 20.3971 0.497256 20.4182 0.529389 20.4717C0.603589 20.5997 0.550422 20.6426 0.412539 20.5574C0.327239 20.504 0.316722 20.4611 0.38099 20.4288H0.380406ZM0.476223 22.0875C0.433572 22.0875 0.390922 22.0558 0.390922 22.0024C0.390922 21.9595 0.433572 21.8955 0.476223 21.8737C0.518873 21.842 0.561523 21.8849 0.561523 21.9595C0.561523 22.0235 0.518873 22.0875 0.476223 22.0875ZM0.603589 21.6599C0.582556 21.6599 0.539906 21.6171 0.518873 21.5742C0.486739 21.5313 0.507772 21.4884 0.561523 21.4884C0.615274 21.4884 0.646824 21.5313 0.646824 21.5742C0.646824 21.6171 0.625791 21.6599 0.604173 21.6599H0.603589ZM0.678373 20.9962C0.61469 21.0391 0.561523 21.1137 0.561523 21.1889C0.561523 21.2529 0.518873 21.3281 0.476223 21.3598C0.423056 21.3915 0.402023 21.3063 0.423056 21.146C0.444089 20.9105 0.667857 20.6432 0.838458 20.6326C0.934275 20.6326 0.795808 20.9216 0.678958 20.9962H0.678373ZM0.870008 19.0591C0.806324 19.0379 0.710507 19.0591 0.667857 19.1131C0.625207 19.1665 0.551007 19.3269 0.49784 19.4767C0.440973 19.6478 0.402023 19.6619 0.38099 19.519C0.359957 19.4015 0.38099 19.2088 0.412539 19.0802C0.465706 18.9093 0.54049 18.8558 0.732124 18.8558C0.891625 18.8558 0.987442 18.8987 0.987442 18.9839C0.987442 19.0585 0.934275 19.0908 0.870592 19.0585L0.870008 19.0591ZM12.9617 34.0517C12.9827 34.1158 12.9827 34.2121 12.9617 34.2655C12.9406 34.319 12.919 34.2761 12.919 34.1586C12.919 34.0412 12.94 33.9877 12.9617 34.0517ZM10.4067 31.6758C10.4494 31.6758 10.492 31.7933 10.5025 31.9325C10.5131 32.0717 10.5025 32.1892 10.4815 32.1892C10.4605 32.1892 10.4389 32.1351 10.4389 32.0717C10.4389 32.0083 10.4178 31.8896 10.3857 31.815C10.3541 31.7404 10.3647 31.6758 10.4067 31.6758ZM5.75493 8.47578C5.71228 8.47578 5.66963 8.4329 5.66963 8.39061C5.66963 8.33657 5.71228 8.31543 5.75493 8.34773C5.79758 8.37945 5.84023 8.42233 5.84023 8.4329C5.84023 8.45405 5.79758 8.47578 5.75493 8.47578ZM8.0224 7.38444C7.99027 7.33041 8.0224 7.23466 8.08609 7.18121C8.14977 7.11719 8.22455 7.01029 8.24559 6.9351C8.28824 6.8282 8.29875 6.83877 8.35192 6.96682C8.4267 7.14891 8.11764 7.53422 8.02182 7.38444H8.0224ZM8.38405 6.06814C8.39457 6.02526 8.4267 5.99355 8.46935 5.99355C8.512 5.99355 8.56517 6.02526 8.59731 6.06814C8.61834 6.11102 8.58679 6.14274 8.512 6.14274C8.44832 6.14274 8.38405 6.11102 8.38405 6.06814ZM8.64989 6.50691C8.53304 6.50691 8.45825 6.35713 8.55407 6.30368C8.59672 6.27137 8.64989 6.30368 8.68144 6.37827C8.71357 6.45287 8.69195 6.50632 8.6493 6.50632L8.64989 6.50691ZM11.8861 4.28077C11.8329 4.28077 11.8119 4.23848 11.8434 4.1956C11.8755 4.15272 11.9182 4.10984 11.9287 4.10984C11.9497 4.10984 11.9714 4.15272 11.9714 4.1956C11.9714 4.23848 11.9287 4.28077 11.8861 4.28077ZM12.7694 3.2C12.5568 3.28517 12.482 3.26403 12.482 3.12482C12.482 3.05022 12.5562 2.99677 12.6415 2.99677C12.8542 2.99677 12.9395 3.13598 12.7694 3.2ZM14.1956 3.59589C14.1103 3.59589 14.0145 3.49956 14.0145 3.41381C14.0145 3.28576 14.1635 3.32864 14.2166 3.46785C14.2488 3.54244 14.2377 3.59589 14.1956 3.59589ZM19.6881 1.37034C19.6245 1.53069 19.5608 1.59472 19.5076 1.54126C19.4544 1.48723 19.3691 1.50896 19.2838 1.59472C19.1027 1.75507 19.0069 1.63759 19.0817 1.33803C19.1243 1.16711 19.188 1.12423 19.4544 1.12423C19.6675 1.12423 19.7456 1.20627 19.6887 1.37034H19.6881ZM22.4879 0.685463C22.4668 0.642585 22.4773 0.589134 22.5305 0.557416C22.5732 0.525111 22.6158 0.567989 22.6158 0.632013C22.6158 0.781792 22.5626 0.802938 22.4879 0.685463ZM30.2794 3.76741C30.2368 3.76741 30.1941 3.72511 30.1941 3.68224C30.1941 3.63936 30.2368 3.59648 30.2794 3.59648C30.3221 3.59648 30.3647 3.63936 30.3647 3.68224C30.3647 3.72511 30.3221 3.76741 30.2794 3.76741ZM26.6179 36.0423C26.5753 36.0423 26.5326 35.9783 26.5326 35.9137C26.5326 35.8391 26.5753 35.8068 26.6179 35.8285C26.6606 35.8602 26.7032 35.9137 26.7032 35.9566C26.7032 36.01 26.6606 36.0423 26.6179 36.0423Z" fill="url(#paint0_linear_27_346)"/>
<path d="M27.8848 22.628C27.8742 22.5892 27.8547 22.5692 27.8257 22.5692C27.7679 22.7096 27.9497 22.7202 27.8848 22.628Z" fill="#626261"/>
<path d="M26.5947 23.3428C26.5846 23.3287 26.5752 23.3146 26.5651 23.3011C26.5527 23.2835 26.5404 23.2665 26.528 23.2488C26.5504 23.28 26.5722 23.3117 26.5947 23.3428Z" fill="#626261"/>
<path d="M17.8513 30.6103C17.8787 30.6938 17.9874 30.5886 18.0002 30.591C17.9745 30.5968 17.9482 30.598 17.9214 30.5945C17.8922 30.5833 17.8688 30.5886 17.8513 30.6103Z" fill="#626261"/>
<path d="M17.688 30.2597C17.652 30.2221 17.6213 30.218 17.5977 30.248C17.6284 30.3096 17.6827 30.2897 17.7181 30.302C17.7081 30.2879 17.6987 30.2738 17.6886 30.2603L17.688 30.2597Z" fill="#626261"/>
<path d="M17.4427 30.4048C17.415 30.3754 17.3831 30.3578 17.3471 30.3519C17.33 30.5311 17.5006 30.487 17.4427 30.4048Z" fill="#626261"/>
<path d="M25.7276 22.3243C25.7083 22.2802 25.6761 22.2702 25.63 22.2943C25.4962 22.4089 25.7001 22.4823 25.7276 22.3243Z" fill="#626261"/>
<path d="M17.3956 30.1457C17.4867 30.1822 17.3827 30.299 17.4067 30.3343C17.4429 30.386 17.4803 30.2861 17.5329 30.3977C17.5434 30.4659 17.5714 30.524 17.6164 30.5716C17.6772 30.652 17.7134 30.5463 17.7835 30.6468C17.8676 30.5739 17.8355 30.5058 17.7426 30.4347C17.7081 30.4083 17.4651 30.1487 17.6065 30.1493C17.7759 30.1498 17.9167 30.4623 18.1183 30.4647C18.2217 30.4659 18.3543 30.4236 18.4168 30.5681C18.4577 30.6614 18.3923 30.7789 18.4338 30.8923C18.4753 31.0051 18.5606 31.0985 18.6272 31.193C18.6727 31.2582 18.716 31.3175 18.7796 31.2629C18.9508 31.1155 19.1249 30.9716 19.2985 30.8283C20.0276 30.228 20.7667 29.6435 21.4976 29.0462C21.844 28.7631 22.2022 28.4964 22.5411 28.2021C22.7788 27.996 23.0055 27.8239 23.276 27.7416C23.3099 27.731 23.2982 27.5813 23.2965 27.5472C23.3777 27.6635 24.576 26.4805 24.6169 26.4106C24.6689 26.3208 24.8897 26.2297 24.9774 26.1581C25.0901 26.0664 25.2456 26.0999 25.3291 25.9695C25.4442 25.7892 25.6066 25.7463 25.7574 25.6153C25.8292 25.5531 26.0676 25.4791 26.074 25.408C26.0915 25.2124 26.5496 24.9493 26.6629 24.8553C27.0158 24.5633 27.3681 24.2703 27.7245 23.9836C27.8811 23.8579 28.0418 23.7387 28.203 23.6218C28.2661 23.5766 28.3555 23.5678 28.2591 23.5108C28.2983 23.5343 28.9357 22.9263 29.0169 22.8559C29.1121 22.773 29.0443 22.6973 29.1425 22.6121C29.212 22.5522 29.1074 22.5475 29.1302 22.4658C29.1583 22.3642 29.2675 22.487 29.2973 22.4611C29.427 22.349 28.9357 22.0623 28.8813 22.0729C28.8077 22.0876 29.0823 22.4106 29.0695 22.4306C29.0157 22.5146 28.6681 22.2896 28.7061 22.2244C28.6599 22.3043 28.7142 22.467 28.7511 22.5469C28.6973 22.4999 28.6114 22.4253 28.5448 22.4095C28.4099 22.3777 28.5039 22.5434 28.4145 22.5616C28.2299 22.5992 28.3532 22.6902 28.2679 22.7648C28.2632 22.756 28.2276 22.6861 28.2042 22.6438C28.2474 22.7748 27.8022 22.8934 27.7438 22.9052C27.6661 22.9211 27.6988 23.0332 27.6947 23.0826C27.6901 23.136 27.499 23.0879 27.4733 23.0932C27.3325 23.1214 27.3757 23.3322 27.2256 23.176C27.2425 23.1936 27.2752 23.3774 27.1847 23.3481C27.135 23.3322 26.9077 23.2048 26.8674 23.2394C26.9352 23.3122 26.9708 23.7234 26.8575 23.6817C26.8184 23.667 26.8125 23.5178 26.7278 23.5037C26.6688 23.4943 26.7196 23.6294 26.7091 23.6512C26.6992 23.6705 26.2808 23.2776 26.483 23.102C26.5251 23.0656 26.3848 22.7172 26.5911 22.8782C26.6437 22.9193 26.8376 23.247 26.8768 23.0932C26.9504 22.8048 26.9615 22.8776 27.0912 23.0626C27.0737 23.0379 27.0217 22.7907 27.0129 22.7437C26.986 22.608 26.9235 22.6391 26.8931 22.5645C26.8663 22.4981 27.0135 22.4946 27.0421 22.5164C27.1228 22.578 27.1823 22.6961 27.2414 22.7807C27.2536 22.6456 27.3109 22.7777 27.3576 22.7049C27.3792 22.6708 27.2525 22.5399 27.232 22.5193C27.2799 22.5539 27.3185 22.5504 27.3483 22.5081C27.3489 22.4206 27.1969 22.4153 27.3173 22.3108C27.3465 22.2397 27.3529 22.2056 27.4254 22.2174C27.3746 22.1357 27.1917 21.9889 27.2308 21.8738C27.2676 21.7657 27.419 21.8785 27.3056 21.7152C27.204 21.5701 27.0316 21.3604 26.8674 21.4262C26.7447 21.4755 26.7558 21.4714 26.8008 21.5813C26.8563 21.7169 26.7453 21.781 26.7255 21.5454C26.5893 21.351 26.5081 21.7305 26.5467 21.7851C26.4842 21.6958 26.2493 21.6071 26.3732 21.7845C26.4661 21.9167 26.1938 21.8056 26.171 21.8256C26.2014 21.8914 26.3334 21.9625 26.3428 22.0106C26.3539 22.0676 25.9431 22.0288 25.8982 22.0476C25.7597 22.1052 25.904 22.1921 25.8339 22.2526C25.8164 22.2233 25.793 22.198 25.7755 22.1686C25.6867 22.2456 25.918 22.4888 25.7486 22.4611C25.6347 22.4423 25.7457 22.598 25.6995 22.6385C25.547 22.5628 25.5558 22.4459 25.3799 22.5117C25.3221 22.5622 25.238 22.6168 25.2292 22.7096C25.2163 22.8517 25.1632 22.7167 25.1176 22.756C25.0621 22.8042 25.1451 22.944 24.9844 22.8547C24.9195 22.8441 24.7373 22.9839 24.8582 23.0315C25.0598 23.1114 24.9458 23.2359 24.7933 23.1325C24.7197 23.0826 24.6958 22.9704 24.6029 23.0515C24.5696 23.0802 24.5187 23.1789 24.5538 23.2288C24.5392 23.2776 24.4463 23.2841 24.479 23.3633C24.4919 23.3945 24.5818 23.4902 24.548 23.5196C24.4679 23.5889 24.3493 23.3633 24.4077 23.2882C24.3242 23.3569 24.0338 23.8174 23.9199 23.6435C23.8667 23.6899 23.8889 23.7739 23.9287 23.8209C23.8515 23.731 23.7125 23.7915 23.6453 23.8679C23.5635 23.9613 23.6932 24.1352 23.6161 24.181C23.5728 24.2068 23.3812 24.3354 23.328 24.3384C23.2813 24.3413 23.2696 24.2908 23.21 24.309C22.9237 24.3959 22.5749 24.7237 22.4686 25.0368C22.4809 24.9023 22.0871 25.233 22.0865 25.2335C21.9574 25.26 21.9177 25.3516 21.8738 25.4802C21.8452 25.5648 21.7827 25.5084 21.7108 25.5425C21.5683 25.6106 21.4257 25.7892 21.2908 25.8785C21.2867 25.8814 20.9858 26.1493 20.9016 26.1481C20.9402 26.191 21.0191 26.2673 21.0325 26.2867C20.8987 26.0952 20.3431 26.4541 20.5336 26.6468C20.4313 26.7355 20.4459 26.6409 20.3595 26.7525C20.2794 26.8559 20.145 26.9974 20.0136 27.0074C19.8821 27.0174 19.8681 27.1725 19.8027 27.1713C19.7396 27.1695 19.5994 27.0885 19.5865 27.2265C19.5935 27.2764 19.6116 27.3205 19.6408 27.3592C19.6391 27.3798 19.2611 27.307 19.2354 27.3052C19.1314 27.297 19.0525 27.4609 19.028 27.5501C19.0174 27.6664 18.9164 27.6635 18.8761 27.7216C18.8381 27.7769 18.9497 27.8197 18.8503 27.9055C18.869 27.8891 18.6324 27.8932 18.6324 27.8926C18.5944 27.8379 18.4712 27.9883 18.4408 28.0001C18.3999 28.0218 18.3666 28.0535 18.3409 28.0952C18.2953 28.1023 18.2521 28.0952 18.2106 28.0741C18.2007 28.0829 18.2404 28.2291 18.2188 28.2068C18.2053 28.1886 18.1919 28.1704 18.1785 28.1522C18.1563 28.1399 18.1481 28.1381 18.1469 28.1416C17.9897 28.1193 18.0639 28.7219 18.1633 28.6785C18.0552 28.7255 17.9903 28.719 17.8863 28.8089C17.8384 28.85 17.631 28.8635 17.6193 28.8811C17.5726 28.9487 17.7204 29.1184 17.6012 29.139C17.5364 29.1507 17.4663 29.0532 17.4394 28.9951C17.3681 29.0567 17.4616 29.2952 17.5434 29.3087C17.6141 29.3205 17.6386 29.4209 17.6783 29.499C17.5942 29.3921 17.4277 29.257 17.3366 29.317C17.2974 29.3428 17.534 29.5149 17.4692 29.6189C17.4131 29.7087 17.1642 29.6606 17.1432 29.7598C17.1402 29.7739 17.2846 29.7886 17.3009 29.7874C17.3295 29.7628 17.3044 30.2051 17.18 30.0271C17.1981 30.0171 17.2781 29.9654 17.2594 29.9384C17.1683 29.808 17.0339 30.0412 17.2191 30.1446C17.2997 30.1892 17.3325 30.1193 17.3973 30.1446L17.3956 30.1457Z" fill="#626261"/>
<path d="M28.1925 22.6221C28.1963 22.6277 28.2008 22.6365 28.2065 22.6453C28.2039 22.6378 28.1989 22.6296 28.1925 22.6221Z" fill="#626261"/>
<path d="M20.8783 26.121C20.8765 26.1417 20.8855 26.1494 20.9005 26.1494C20.8867 26.1346 20.8777 26.124 20.8783 26.121Z" fill="#626261"/>
<path d="M28.1855 22.6127C28.1891 22.6163 28.1905 22.6206 28.1934 22.6241C28.1898 22.6184 28.1869 22.6141 28.1855 22.6127Z" fill="#626261"/>
<path d="M19.0307 27.1431C19.0407 27.1572 19.0501 27.1713 19.0602 27.1848C19.0377 27.1537 19.0159 27.122 18.9935 27.0908C19.0059 27.1084 19.0183 27.1255 19.0307 27.1431Z" fill="#626261"/>
<path d="M18.7019 26.9316C18.737 26.954 18.7539 26.9863 18.7528 27.0274C18.7966 27.0662 18.8871 26.9152 18.9643 27.0485C18.9292 26.9833 18.8597 26.8923 18.789 26.8805C18.7861 26.8805 18.56 26.8377 18.6272 26.9334C18.6318 26.9405 18.7078 26.9358 18.7014 26.9311L18.7019 26.9316Z" fill="#626261"/>
<path d="M19.7927 30.2767C19.824 30.2526 19.8364 30.2273 19.831 30.1997C19.7006 30.1974 19.7277 30.3707 19.7927 30.2767Z" fill="#626261"/>
<path d="M18.938 29.3252C18.948 29.3111 18.9581 29.2964 18.9675 29.2823C18.9799 29.2647 18.9923 29.2464 19.0047 29.2288C18.9823 29.2611 18.9604 29.2934 18.938 29.3257V29.3252Z" fill="#626261"/>
<path d="M11.1151 23.7686C11.0501 23.825 11.1605 23.8884 11.1611 23.9014C11.1511 23.879 11.1446 23.855 11.1422 23.8285C11.1458 23.7974 11.1369 23.7768 11.1145 23.7686H11.1151Z" fill="#626261"/>
<path d="M11.3775 23.4849C11.4023 23.4374 11.3994 23.408 11.3699 23.3962C11.3238 23.4479 11.351 23.4908 11.348 23.5278C11.358 23.5137 11.3681 23.499 11.3775 23.4849Z" fill="#626261"/>
<path d="M11.2079 23.3075C11.2274 23.2711 11.2356 23.2347 11.2338 23.1995C11.0786 23.2494 11.15 23.3921 11.2079 23.3075Z" fill="#626261"/>
<path d="M19.622 28.1352C19.655 28.1011 19.6574 28.0664 19.6279 28.0324C19.5039 27.9484 19.4821 28.1675 19.622 28.1352Z" fill="#626261"/>
<path d="M11.4152 23.1689C11.4029 23.2682 11.2837 23.213 11.2592 23.2488C11.2229 23.3017 11.3141 23.2999 11.2305 23.3909C11.1756 23.4262 11.1324 23.4738 11.1014 23.5337C11.0459 23.6206 11.1417 23.6159 11.0716 23.7187C11.1493 23.771 11.2002 23.7158 11.2411 23.6024C11.2562 23.5601 11.4263 23.2359 11.4537 23.3692C11.4864 23.529 11.2527 23.7763 11.2901 23.9666C11.3094 24.0641 11.3708 24.1733 11.2621 24.2861C11.192 24.3589 11.0804 24.3407 10.9933 24.4212C10.9069 24.5017 10.8455 24.6168 10.7789 24.7137C10.7333 24.7807 10.6924 24.8435 10.7503 24.8829C10.9074 24.9898 11.0629 25.1002 11.2171 25.2118C11.8644 25.6776 12.5007 26.158 13.1463 26.6268C13.4524 26.8488 13.7463 27.0879 14.0601 27.2987C14.2803 27.4467 14.4696 27.5971 14.5911 27.8209C14.6063 27.8491 14.7302 27.7827 14.7582 27.7686C14.6764 27.8879 15.9057 28.581 15.9723 28.5933C16.0582 28.6091 16.178 28.7836 16.2551 28.8394C16.3544 28.9116 16.3567 29.0702 16.4829 29.1008C16.6571 29.1431 16.7248 29.2799 16.8645 29.3739C16.9311 29.4185 17.0403 29.6159 17.1011 29.5959C17.2688 29.5407 17.5796 29.8749 17.6807 29.9472C17.995 30.1716 18.3105 30.3959 18.6213 30.6256C18.7574 30.7266 18.8895 30.8341 19.0192 30.9434C19.07 30.9857 19.0945 31.0673 19.1238 30.9551C19.1121 31.0003 19.7477 31.3768 19.8231 31.4274C19.9113 31.4867 19.9616 31.3951 20.0521 31.4561C20.1164 31.499 20.0995 31.3992 20.1725 31.3904C20.2631 31.3798 20.1818 31.5272 20.2093 31.546C20.3291 31.6265 20.4728 31.0585 20.4529 31.0121C20.4261 30.9487 20.2093 31.3257 20.19 31.321C20.1094 31.3017 20.2292 30.8917 20.2911 30.9028C20.2151 30.8887 20.0889 31.0003 20.0293 31.0638C20.058 30.9962 20.1041 30.887 20.1041 30.8188C20.1041 30.6802 19.9838 30.8294 19.9511 30.7519C19.8833 30.5915 19.8307 30.7419 19.7518 30.6884C19.7583 30.6808 19.8097 30.6215 19.8406 30.5839C19.7396 30.6726 19.552 30.2973 19.5304 30.2467C19.5018 30.1792 19.4141 30.2514 19.3721 30.2655C19.3259 30.2808 19.3294 30.0829 19.3195 30.0605C19.2681 29.939 19.0998 30.0564 19.2009 29.8579C19.1892 29.8808 19.042 29.9789 19.0484 29.8832C19.0519 29.8303 19.1138 29.5695 19.077 29.5448C19.0291 29.6353 18.6914 29.8203 18.7043 29.6981C18.7084 29.6558 18.8328 29.5953 18.8275 29.5108C18.824 29.4514 18.7206 29.5495 18.7002 29.5472C18.6821 29.5448 18.9292 29.0062 19.1162 29.1325C19.1553 29.1589 19.4194 28.8987 19.3253 29.1519C19.3014 29.2165 19.0648 29.5196 19.2009 29.5002C19.4574 29.4632 19.3984 29.5002 19.2687 29.6905C19.2862 29.6652 19.4831 29.5249 19.5205 29.499C19.6291 29.4238 19.5906 29.3763 19.6473 29.3205C19.6975 29.2705 19.7296 29.408 19.7168 29.4426C19.6811 29.5413 19.5935 29.6406 19.5345 29.7275C19.6502 29.6893 19.5508 29.7921 19.621 29.8092C19.6543 29.8174 19.7384 29.6494 19.7518 29.623C19.7326 29.6805 19.7431 29.7158 19.784 29.7281C19.8576 29.697 19.8319 29.5513 19.9435 29.6265C20.0089 29.6277 20.0387 29.6212 20.0434 29.6934C20.1018 29.6153 20.1889 29.3892 20.2928 29.3839C20.3904 29.3792 20.3261 29.563 20.4407 29.3956C20.5423 29.247 20.6843 29.0068 20.5967 28.8764C20.5306 28.7789 20.5365 28.7883 20.4535 28.8705C20.3507 28.9727 20.2753 28.8917 20.4687 28.7865C20.6048 28.5868 20.2706 28.6503 20.2327 28.7061C20.2952 28.6144 20.3232 28.3607 20.1988 28.5422C20.1059 28.6779 20.1456 28.3813 20.1246 28.3666C20.0755 28.4194 20.0416 28.5698 20.0036 28.5962C19.9581 28.6279 19.9096 28.2268 19.885 28.1909C19.8097 28.0817 19.7653 28.2497 19.7004 28.2062C19.7214 28.1792 19.7378 28.1475 19.7594 28.1205C19.677 28.0652 19.5193 28.3724 19.5088 28.2027C19.5018 28.0882 19.3931 28.2503 19.3505 28.2215C19.3843 28.05 19.4837 28.0153 19.3937 27.8743C19.3399 27.8379 19.2774 27.7792 19.198 27.8056C19.0764 27.8456 19.1793 27.7457 19.1366 27.7175C19.0852 27.6829 18.9841 27.8127 19.0274 27.6282C19.0233 27.5636 18.8702 27.4432 18.8538 27.5742C18.8264 27.7933 18.6996 27.7322 18.7563 27.5501C18.7837 27.4626 18.8731 27.3986 18.7866 27.341C18.7557 27.3205 18.6634 27.3087 18.6283 27.3598C18.5845 27.3639 18.5611 27.2793 18.5004 27.3387C18.477 27.3622 18.4139 27.482 18.3829 27.4614C18.3087 27.4115 18.4747 27.2171 18.5494 27.2441C18.4752 27.1906 18.0312 27.0867 18.1551 26.9158C18.1054 26.8823 18.04 26.9346 18.0078 26.9892C18.068 26.8835 17.9897 26.7748 17.9126 26.7395C17.818 26.6967 17.6976 26.8835 17.6439 26.8271C17.6141 26.7959 17.468 26.6626 17.4551 26.6138C17.4435 26.571 17.4838 26.5416 17.4569 26.4923C17.3272 26.2544 16.9837 26.047 16.7003 26.0617C16.8154 26.0235 16.4607 25.7751 16.4596 25.7745C16.4123 25.6623 16.3275 25.6588 16.2107 25.6652C16.1342 25.6694 16.1692 25.5895 16.126 25.5343C16.0407 25.425 15.8625 25.3563 15.7608 25.2629C15.7579 25.26 15.4734 25.0749 15.4582 24.9962C15.4301 25.0485 15.3816 25.1501 15.3676 25.1707C15.5014 24.9745 15.0913 24.5833 14.9668 24.8335C14.8722 24.7695 14.9545 24.7489 14.8441 24.7084C14.7419 24.6708 14.5964 24.5968 14.5619 24.477C14.5275 24.3566 14.3948 24.4006 14.3832 24.3384C14.3721 24.2785 14.4124 24.1163 14.2943 24.1551C14.254 24.1804 14.2201 24.2133 14.1939 24.255C14.1763 24.2608 14.1629 23.8785 14.1594 23.8532C14.1454 23.7522 13.9929 23.7381 13.9128 23.7475C13.8129 23.7804 13.796 23.684 13.7393 23.6676C13.6856 23.6523 13.6715 23.7727 13.5798 23.7111C13.5973 23.7228 13.5471 23.5014 13.5471 23.5008C13.5856 23.445 13.4349 23.3845 13.4191 23.3598C13.3928 23.3293 13.3601 23.3099 13.3198 23.3011C13.3052 23.2605 13.3023 23.2171 13.3122 23.1701C13.3029 23.1636 13.1878 23.2553 13.2024 23.2271C13.2152 23.2077 13.2275 23.1883 13.2404 23.1689C13.2462 23.1431 13.2462 23.1348 13.2433 23.1354C13.231 22.9798 12.7402 23.2705 12.7957 23.3486C12.735 23.2641 12.7274 23.2006 12.6316 23.136C12.5878 23.1066 12.5358 22.9158 12.5182 22.9111C12.4522 22.8923 12.3394 23.0937 12.298 22.9886C12.2758 22.9316 12.3435 22.83 12.3868 22.7836C12.3213 22.7395 12.139 22.9152 12.1443 22.9968C12.1484 23.0679 12.0689 23.1278 12.0111 23.1942C12.0841 23.0755 12.1648 22.8688 12.0964 22.8053C12.0666 22.7777 11.9696 23.0644 11.8691 23.0414C11.7827 23.0221 11.7739 22.7695 11.6863 22.7865C11.674 22.7889 11.6903 22.9304 11.6944 22.9451C11.7207 22.9627 11.3445 23.1019 11.4695 22.9193C11.4818 22.9328 11.5408 22.9892 11.5595 22.961C11.6506 22.8271 11.4286 22.7865 11.3784 22.9992C11.3567 23.0914 11.4222 23.0967 11.4134 23.1671L11.4152 23.1689Z" fill="#626261"/>
<path d="M19.8589 30.5645C19.8545 30.5702 19.8488 30.5777 19.8418 30.5859C19.8481 30.5808 19.8539 30.5733 19.8589 30.5645Z" fill="#626261"/>
<path d="M15.4792 24.9662C15.4612 24.9722 15.4564 24.9834 15.4594 24.9976C15.4696 24.9793 15.4768 24.9674 15.4792 24.9662Z" fill="#626261"/>
<path d="M19.8662 30.5551C19.8633 30.5602 19.8603 30.5631 19.8582 30.5675C19.8625 30.5617 19.8654 30.558 19.8662 30.5551Z" fill="#626261"/>
<path d="M14.2572 23.603C14.2472 23.6171 14.2372 23.6318 14.2277 23.6459C14.2502 23.6136 14.272 23.5813 14.2944 23.549C14.282 23.5666 14.2696 23.5848 14.2572 23.6024V23.603Z" fill="#626261"/>
<path d="M19.6024 15.4796C19.512 15.4086 19.492 15.8121 19.4784 15.8373C19.4979 15.7716 19.5215 15.7122 19.5492 15.6588C19.5846 15.613 19.6029 15.5531 19.6024 15.4796Z" fill="#626261"/>
<path d="M20.0217 15.6746C20.0836 15.6553 20.1146 15.5959 20.114 15.4973C20.0387 15.4667 20.0042 15.6153 19.9627 15.6729L20.0217 15.6746Z" fill="#626261"/>
<path d="M20.1374 14.9093C20.1853 14.8958 20.2274 14.8546 20.2654 14.7859C20.1439 14.4652 20.0212 14.9052 20.1374 14.9093Z" fill="#626261"/>
<path d="M20.6562 41.8092C20.7106 41.8291 20.7409 41.7692 20.7468 41.6294C20.7205 41.1578 20.5207 41.5161 20.6562 41.8092Z" fill="#626261"/>
<path d="M17.6205 40.2468C17.6806 41.4926 17.7361 42.7396 17.808 43.9842C17.8378 44.5311 17.8536 45.0773 17.8793 45.6236C17.8881 45.8356 17.8448 46.057 17.9576 45.9161C17.9348 45.9449 17.9827 46.5504 18.0388 47.1848C18.0657 47.502 18.1001 47.8268 18.1282 48.0899C18.1556 48.3531 18.1761 48.5551 18.1837 48.628C18.2146 48.9698 18.3292 48.9205 18.3613 49.2717C18.3835 49.5196 18.446 49.2829 18.5167 49.4532C18.6038 49.6647 18.4191 49.7416 18.4285 49.8485C18.4705 50.312 19.0338 49.5772 19.0525 49.4374C19.0782 49.2453 18.5985 49.4209 18.5851 49.3616C18.5296 49.1161 18.9508 48.6309 18.9958 48.8118C18.9409 48.5904 18.7452 48.4823 18.6435 48.4529C18.7206 48.3954 18.8445 48.3032 18.8976 48.1716C19.0051 47.9049 18.7849 47.8838 18.8158 47.6512C18.8824 47.1684 18.7218 47.3234 18.6967 47.0174C18.7078 47.0197 18.7983 47.0374 18.8544 47.0438C18.699 46.9551 18.8386 45.751 18.8608 45.6001C18.8906 45.3968 18.7592 45.3111 18.7124 45.2289C18.6604 45.1396 18.824 44.7684 18.8345 44.7014C18.8918 44.3355 18.6587 44.1275 18.9035 44.0083C18.8754 44.0218 18.6756 43.8297 18.7592 43.6635C18.8047 43.5719 19.0682 43.2335 19.0583 43.0914C18.9467 43.1413 18.5185 42.6239 18.6318 42.4224C18.6704 42.3537 18.8188 42.5581 18.8854 42.383C18.9321 42.2614 18.7691 42.1804 18.7545 42.1234C18.7416 42.0717 19.3861 41.6852 19.4276 42.4065C19.4351 42.5569 19.8634 42.7413 19.5806 42.9804C19.5082 43.0415 19.0688 43.0103 19.1962 43.324C19.4351 43.9137 19.3569 43.8327 19.0963 43.862C19.1308 43.8585 19.4054 44.0976 19.4568 44.144C19.6058 44.2791 19.6133 44.0899 19.7051 44.1281C19.7863 44.1616 19.701 44.5058 19.6618 44.5399C19.5526 44.6368 19.4007 44.6027 19.2815 44.6156C19.4065 44.84 19.2423 44.7801 19.2856 44.9933C19.3066 45.0932 19.5111 44.9892 19.5432 44.9728C19.4807 45.0327 19.462 45.1272 19.4866 45.2565C19.573 45.3845 19.6677 45.0421 19.7016 45.4703C19.7553 45.6394 19.7863 45.704 19.7319 45.8538C19.843 45.8538 20.0954 45.6441 20.1877 45.9008C20.2735 46.1405 20.0737 46.3278 20.3022 46.2996C20.5055 46.2744 20.8157 46.1786 20.8455 45.707C20.8677 45.354 20.8648 45.3863 20.7298 45.3316C20.5622 45.2635 20.5633 44.9175 20.8093 45.2101C20.946 45.1936 20.9302 45.0033 20.8742 44.8177C20.8181 44.6321 20.7182 44.4512 20.6796 44.4553C20.8052 44.4406 21.0348 44.03 20.7859 44.0582C20.5996 44.0794 20.8742 43.6177 20.8689 43.536C20.7859 43.5108 20.6358 43.7105 20.5832 43.6629C20.5207 43.6059 20.8081 42.7225 20.8175 42.5927C20.8467 42.1939 20.6738 42.3977 20.6586 42.1493C20.6983 42.1522 20.7369 42.1346 20.7766 42.1369C20.7585 41.8221 20.3775 41.9977 20.5113 41.6518C20.6019 41.4186 20.381 41.4456 20.3711 41.2811C20.5405 41.0438 20.6481 41.233 20.6954 40.7366C20.6837 40.531 20.6837 40.2603 20.5996 40.1058C20.4722 39.8691 20.6358 39.9449 20.6282 39.7833C20.6188 39.5871 20.4313 39.5713 20.6218 39.3363C20.6743 39.2048 20.6615 38.5857 20.537 38.7895C20.3291 39.1308 20.2852 38.689 20.4839 38.494C20.5797 38.4001 20.7018 38.5105 20.686 38.1798C20.6808 38.0617 20.6206 37.8021 20.5499 37.808C20.5125 37.7034 20.5686 37.4832 20.4728 37.4403C20.4354 37.4233 20.2841 41.4021 20.28 41.2817C20.2695 40.9974 20.561 41.0609 20.592 41.304C20.585 41.0145 20.353 39.6752 20.592 39.6752C20.585 39.4861 20.4915 39.4127 20.4202 39.4327C20.5563 39.3904 20.5949 38.9868 20.5733 38.7214C20.5458 38.3977 20.294 38.4335 20.3069 38.191C20.3139 38.0553 20.3314 37.4315 20.3659 37.307C20.3962 37.1971 20.4506 37.2465 20.4763 37.0855C20.5353 36.6979 20.5604 36.1857 20.5406 35.6817C20.5213 35.1777 20.4605 34.6826 20.3583 34.3284C20.4138 34.4429 20.4395 34.1551 20.4552 33.8385C20.4628 33.6799 20.4669 33.5149 20.4687 33.3886C20.4704 33.2623 20.471 33.176 20.471 33.1748C20.5458 32.8453 20.4944 32.6186 20.4132 32.3266C20.36 32.134 20.4576 32.0799 20.4815 31.8667C20.5318 31.445 20.4891 30.8553 20.5166 30.4194C20.5166 30.4159 20.5172 30.346 20.5183 30.2403C20.5195 30.1346 20.5219 29.9924 20.5265 29.845C20.5347 29.5507 20.5528 29.2347 20.5879 29.1425C20.5201 29.1642 20.3922 29.223 20.3647 29.2235C20.6352 29.2153 20.7766 27.435 20.4593 27.5636C20.4663 27.2 20.5347 27.378 20.5096 27.015C20.4874 26.679 20.4821 26.1639 20.582 25.8579C20.6831 25.5507 20.5645 25.2817 20.62 25.139C20.6738 25.0009 20.8578 24.8159 20.7526 24.5763C20.7053 24.5152 20.6533 24.487 20.5972 24.4923C20.582 24.4564 20.9635 23.734 20.9875 23.6799C21.0827 23.4626 21.0161 23.0373 20.9641 22.8447C20.8782 22.642 20.9671 22.4241 20.953 22.2456C20.9408 22.0776 20.8081 22.2555 20.8257 21.9043C20.8222 21.9713 21.0272 21.4438 21.0272 21.4438C21.1044 21.4444 21.0915 20.9416 21.109 20.8558C21.1277 20.7331 21.1312 20.6109 21.1207 20.4899C21.1552 20.3795 21.199 20.2955 21.2522 20.2367C21.2539 20.2015 21.102 20.0611 21.1382 20.0488L21.2177 20.0453C21.2475 20.0153 21.2557 20 21.2539 19.9936C21.4064 19.6846 20.8707 18.9093 20.814 19.1942C20.8747 18.884 20.9384 18.7513 20.9612 18.3848C20.9717 18.2156 21.1482 17.7416 21.1452 17.6881C21.1341 17.4802 20.8683 17.5384 20.9595 17.2441C21.0097 17.0837 21.1499 17.0837 21.2189 17.1166C21.2376 16.8658 20.9676 16.6949 20.8823 16.8517C20.8081 16.988 20.7082 16.884 20.6112 16.8482C20.7713 16.8318 21.029 16.6802 21.067 16.3877C21.0833 16.2608 20.7328 16.5093 20.7123 16.2033C20.6948 15.9395 20.9624 15.472 20.9057 15.2699C20.8975 15.2411 20.7532 15.5331 20.7392 15.5695C20.7316 15.6711 20.4161 14.9181 20.6679 14.9275C20.6592 14.9827 20.6241 15.2388 20.6627 15.24C20.8467 15.2464 20.7924 14.5856 20.5417 14.8265C20.4325 14.9316 20.4564 15.1137 20.3764 15.2153C20.2642 15.358 20.2706 14.9445 20.2215 14.9428C20.1485 14.9398 20.1906 15.1795 20.0562 15.1184C19.9943 15.0338 19.9242 15.0038 19.8459 15.0273C19.7279 15.0326 19.7752 15.2799 19.6338 15.2746C19.6116 15.5754 19.694 15.6118 19.8336 15.5201C19.8862 15.4861 20.3092 15.3651 20.1783 15.6735C20.0212 16.0429 19.6513 15.8591 19.4632 16.2972C19.3668 16.5216 19.2762 16.8799 19.1074 16.7912C18.9981 16.7337 18.9683 16.4041 18.8433 16.316C18.7189 16.2285 18.5675 16.2696 18.4337 16.2655C18.3414 16.2626 18.2561 16.2655 18.2392 16.4911L18.2035 16.9504L18.1714 17.4097L18.1048 18.329C17.9178 20.8946 17.7478 23.462 17.6491 26.0324L17.6088 26.9463L17.5737 27.8608L17.5416 28.7754C17.5317 29.0802 17.5235 29.3851 17.5223 29.6899C17.5188 30.1175 17.5106 30.5258 17.4849 30.9193C17.461 31.3128 17.4154 31.6917 17.3511 32.0606C17.3342 32.1539 17.4767 32.356 17.5077 32.4036C17.4668 32.4053 17.4446 32.6896 17.4353 33.1184C17.4277 33.5472 17.4247 34.1205 17.4434 34.699C17.4738 35.8567 17.5299 37.0374 17.5521 37.136C17.5977 37.3904 17.5258 38.0324 17.5293 38.3407C17.5352 38.7366 17.5141 39.0362 17.5807 39.4233L17.6175 40.245L17.6205 40.2468Z" fill="#626261"/>
<path d="M18.8848 47.0462C18.877 47.0462 18.8669 47.045 18.855 47.0438C18.8639 47.0486 18.874 47.0486 18.8848 47.0462Z" fill="#626261"/>
<path d="M20.6327 29.1391C20.6163 29.1019 20.6017 29.1106 20.5896 29.1446C20.6139 29.1366 20.6303 29.1335 20.6327 29.1391Z" fill="#626261"/>
<path d="M18.8993 47.045C18.8938 47.0477 18.8891 47.045 18.8836 47.0464C18.8911 47.0464 18.8965 47.0464 18.8993 47.045Z" fill="#626261"/>
<defs>
<linearGradient id="paint0_linear_27_346" x1="-0.00403133" y1="19.1025" x2="38.7546" y2="19.1025" gradientUnits="userSpaceOnUse">
<stop stop-color="#4E76BA"/>
<stop offset="1" stop-color="#3AAA35"/>
</linearGradient>
</defs>
</svg>
