<?xml version="1.0" encoding="UTF-8" standalone="no"?>
<svg
   id="Layer_1"
   data-name="Layer 1"
   viewBox="0 0 2105.261 851.24891"
   version="1.1"
   width="2105.261"
   height="851.2489"
   xmlns:xlink="http://www.w3.org/1999/xlink"
   xmlns="http://www.w3.org/2000/svg"
   xmlns:svg="http://www.w3.org/2000/svg">
  <defs
     id="defs283">
    <style
       id="style271">
      .cls-1 {
        fill: url(#linear-gradient);
      }

      .cls-2 {
        fill: #b2b2b2;
      }

      .cls-3 {
        fill: #626261;
      }

      .cls-4 {
        fill: url(#linear-gradient-3);
      }

      .cls-5 {
        fill: url(#linear-gradient-4);
      }

      .cls-6 {
        fill: url(#linear-gradient-2);
      }

      .cls-7 {
        fill: url(#linear-gradient-6);
      }

      .cls-8 {
        fill: url(#linear-gradient-5);
      }
    </style>
    <linearGradient
       id="linear-gradient"
       x1="2022.54"
       y1="644.03003"
       x2="2252.1699"
       y2="644.03003"
       gradientUnits="userSpaceOnUse">
      <stop
         offset="0"
         stop-color="#4e76ba"
         id="stop273" />
      <stop
         offset="1"
         stop-color="#3aaa35"
         id="stop275" />
    </linearGradient>
    <linearGradient
       id="linear-gradient-2"
       x1="2201.53"
       y1="549.22998"
       x2="2205.4299"
       y2="549.22998"
       xlink:href="#linear-gradient" />
    <linearGradient
       id="linear-gradient-3"
       x1="2046.63"
       y1="721.39001"
       x2="2048.55"
       y2="721.39001"
       xlink:href="#linear-gradient" />
    <linearGradient
       id="linear-gradient-4"
       x1="2111.6499"
       y1="535.15997"
       x2="2118.77"
       y2="535.15997"
       xlink:href="#linear-gradient" />
    <linearGradient
       id="linear-gradient-5"
       x1="2046.61"
       y1="581.60999"
       x2="2049.3899"
       y2="581.60999"
       xlink:href="#linear-gradient" />
    <linearGradient
       id="linear-gradient-6"
       x1="253.61"
       y1="325.22"
       x2="917"
       y2="325.22"
       xlink:href="#linear-gradient"
       gradientTransform="translate(-253.679)" />
    <linearGradient
       xlink:href="#linear-gradient"
       id="linearGradient604"
       gradientUnits="userSpaceOnUse"
       x1="2022.54"
       y1="644.03003"
       x2="2252.1699"
       y2="644.03003" />
  </defs>
  <g
     id="g289"
     transform="translate(-253.679)">
    <path
       class="cls-3"
       d="m 2272.19,150.03 v -39.6 h -14.98 v -10.8 h 42.55 v 10.8 h -15.34 v 39.6 h -12.24 z"
       id="path285" />
    <path
       class="cls-3"
       d="m 2308.4,150.03 v -50.4 h 10.94 l 18.36,29.88 -7.85,-0.07 18.58,-29.81 h 10.51 v 50.4 h -11.88 v -15.7 c 0,-4.32 0.11,-8.21 0.32,-11.66 0.21,-3.45 0.59,-6.89 1.12,-10.3 l 1.37,3.74 -13.97,21.67 h -4.75 l -13.68,-21.53 1.37,-3.89 c 0.53,3.22 0.9,6.52 1.12,9.9 0.22,3.38 0.32,7.4 0.32,12.06 v 15.7 h -11.88 z"
       id="path287" />
  </g>
  <path
     class="cls-3"
     d="m 904.181,407.69 c -26.57,0 -49.37,-4.86 -68.4,-14.59 -19.04,-9.72 -35.27,-23.76 -48.69,-42.11 l 37.39,-42.32 c 13.41,18.63 26.7,31.3 39.85,38 13.15,6.71 27.65,10.06 43.54,10.06 12.87,0 23.76,-2.73 32.66,-8.22 8.89,-5.47 13.35,-12.87 13.35,-22.18 0,-11.23 -5.69,-20.06 -17.05,-26.5 -11.37,-6.43 -25.95,-11.43 -43.75,-15 -30.95,-6.57 -53.96,-17.11 -69.02,-31.63 -15.06,-14.51 -22.6,-33.82 -22.6,-57.92 0,-16.71 4.79,-31.43 14.38,-44.17 9.58,-12.74 22.25,-22.66 38,-29.79 15.74,-7.12 33.2,-10.68 52.38,-10.68 25.47,0 46.63,4.31 63.47,12.94 16.85,8.63 30.19998,20.89 40.06,36.77 l -38.2,37.39 c -16.98,-24.1 -38.62,-36.15 -64.91,-36.15 -13.7,0 -24.72,2.81 -33.07,8.42 -8.36,5.61 -12.53,13.21 -12.53,22.8 0,10.13 4.86,18.08 14.58,23.83 9.72,5.75 22.8,10.27 39.23,13.56 30.13,6.3 54.03,16.37 71.69,30.2 17.67,13.83 26.49,32.39 26.49,55.66 0,19.18 -4.59,35.61 -13.76002,49.3 -9.17998,13.7 -21.91998,24.17 -38.20998,31.42 -16.3,7.26 -35.27,10.89 -56.9,10.89 z"
     id="path291" />
  <path
     class="cls-3"
     d="m 1091.031,403.58 -72.71,-216.92 58.34,-0.41 41.49,136.81 45.19,-104.76 h 32.87 l 46.01,103.94 41.49,-135.57 h 57.93 l -73.54,216.92 h -40.26 l -48.89,-116.67 -47.65,116.67 h -40.26 z"
     id="path293" />
  <path
     class="cls-3"
     d="m 1389.231,141.48 c -10.96,0 -19.52,-2.74 -25.68,-8.22 -6.16,-5.48 -9.24,-13.01 -9.24,-22.6 0,-9.59 3.09,-16.84 9.24,-22.6 6.16,-5.75 14.72,-8.63 25.68,-8.63 10.96,0 19.44,2.74 25.47,8.22 6.02,5.48 9.04,13.15 9.04,23.01 0,9.03 -3.09,16.43 -9.24,22.18 -6.16,5.75 -14.59,8.63 -25.27,8.63 z m -27.94,262.11 V 186.66 h 56.28 v 216.92 h -56.28 z"
     id="path295" />
  <path
     class="cls-3"
     d="M 1477.491,403.58 V 237.2 h -41.08 v -50.53 h 41.08 v -55.46 h 55.87 v 55.46 h 45.6 v 50.53 h -45.6 v 166.39 h -55.87 z"
     id="path297" />
  <path
     class="cls-3"
     d="m 1692.291,407.69 c -20.54,0 -38.96,-4.94 -55.25,-14.8 -16.3,-9.86 -29.17,-23.27 -38.62,-40.26 -9.44,-16.98 -14.17,-36.29 -14.17,-57.93 0,-21.64 4.73,-40.53 14.17,-57.51 9.45,-16.98 22.32,-30.4 38.62,-40.26 16.29,-9.86 34.72,-14.79 55.25,-14.79 19.44,0 37.18,3.56 53.2,10.68 16.02,7.12 28.55,17.12 37.59,29.99 l -30.81,36.98 c -5.75,-7.94 -13.7,-14.72 -23.83,-20.34 -10.13,-5.61 -20.4,-8.42 -30.81,-8.42 -11.5,0 -21.71,2.82 -30.61,8.42 -8.9,5.62 -15.88,13.22 -20.95,22.8 -5.07,9.58 -7.61,20.4 -7.61,32.45 0,12.05 2.6,22.87 7.81,32.46 5.2,9.59 12.33,17.19 21.36,22.8 9.04,5.61 19.17,8.42 30.4,8.42 11.23,0 20.54,-2.39 29.58,-7.19 9.03,-4.78 17.26,-11.56 24.65,-20.33 l 30.81,36.97 c -9.32,12.05 -22.19,21.71 -38.62,28.96 -16.43,7.26 -33.82,10.89 -52.18,10.89 z"
     id="path299" />
  <path
     class="cls-3"
     d="M 1801.911,403.58 V 99.57 h 55.46 v 115.44 c 7.39,-9.58 17.18,-17.46 29.37,-23.62 12.19,-6.16 24.99,-9.24 38.41,-9.24 49.85,0 74.77,29.58 74.77,88.74 v 132.7 h -55.87 V 275 c 0,-30.95 -13.01,-45.87 -39.03,-44.78 -13.42,0 -24.59,4.11 -33.48,12.33 -8.91,8.22 -13.35,18.35 -13.35,30.4 v 130.64 h -56.28 z"
     id="path301" />
  <path
     class="cls-2"
     d="m 907.951,752.9 -13.56,-33.69 85.45,-94.9 c 6.3,-6.57 13.08,-14.44 20.34,-23.62 7.26,-9.17 13.56,-18.34 18.9,-27.52 5.34,-9.18 8.01,-17.6 8.01,-25.27 0,-10.13 -3.22,-18.21 -9.65,-24.24 -6.44,-6.02 -15.55,-9.04 -27.32,-9.04 -10.42,0 -20.34,4.25 -29.79,12.74 -9.45,8.49 -17.19,20.54 -23.21,36.15 l -43.96,-25.06 c 5.2,-15.88 12.87,-29.71 23.01,-41.49 10.13,-11.78 22.05,-20.95 35.74,-27.53 13.7,-6.57 28.62,-9.72 44.78,-9.45 16.7,0 31.63,3.43 44.78,10.27 13.15,6.85 23.55,16.43 31.22,28.76 7.67,12.32 11.5,26.57 11.5,42.73 0,15.06 -4.45,31.36 -13.35,48.89 -8.9,17.53 -23.76,37.8 -44.57,60.8 l -43.96,47.65 h 112.98 v 53.82 z"
     id="path303" />
  <path
     class="cls-3"
     d="m 1558.311,545.23 c -15.47,-9.45 -32.93,-14.18 -52.38,-14.18 -21.64,0 -40.75,4.93 -57.31,14.79 -16.57,9.86 -29.58,23.35 -39.03,40.47 -9.44,17.12 -14.17,36.91 -14.17,59.36 0,22.45 4.86,40.81 14.59,57.52 9.72,16.71 23.35,29.85 40.87,39.44 17.53,9.59 37.93,14.38 61.22,14.38 15.06,0 30.2,-2.82 45.39,-8.42 15.2,-5.61 28.69,-13.62 40.46,-24.03 l -27.11,-37.8 c -9.32,7.67 -18.02,13.01 -26.09,16.02 -8.08,3.02 -17.05,4.52 -26.91,4.52 -18.35,0 -33.48,-4.52 -45.39,-13.56 -11.91,-9.04 -19.38,-21.36 -22.39,-36.98 h 156.11 l 0.41,-17.67 c 0.55,-20.81 -3.49,-39.3 -12.12,-55.46 -8.63,-16.16 -20.68,-28.97 -36.15,-38.41 z m -5.13,76.21 h -102.71 c 6.3,-27.94 24.92,-41.91 55.87,-41.91 12.6,0 23.35,3.77 32.25,11.29 8.9,7.54 13.76,17.19 14.59,28.97 v 1.64 z m -172.07,-115.85 v -40.26 h -213.22 v 55.05 h 133.1 l -143.79,191.85 v 40.67 h 228.42 v -53.41 h -148.72 l 144.2,-193.91 z m 380.09,26.91 c -4.25,-0.68 -8.83,-1.03 -13.76,-1.03 -12.88,0 -25.13,3.76 -36.77,11.29 -11.64,7.54 -21.02,17.19 -28.14,28.96 l -0.82,-35.74 h -54.23 V 752.9 h 56.28 V 639.51 c 0,-13.97 4.59,-25.53 13.76,-34.72 9.18,-9.18 20.47,-13.76 33.89,-13.76 4.65,0 9.31,0.55 13.97,1.64 4.65,1.1 8.48,2.47 11.5,4.11 l 15.2,-61.63 c -3.02,-1.09 -6.64,-1.99 -10.89,-2.67 z"
     id="path305" />
  <g
     id="g317"
     transform="translate(-253.679)">
    <path
       class="cls-1"
       d="m 2247.74,670.18 c 0.13,-1.77 0.44,-3.41 0.69,-3.66 0.5,-0.69 2.02,-7.06 2.02,-8.7 0,-0.76 0.38,-2.4 0.82,-3.66 0.63,-1.77 0.82,-4.67 0.88,-12.61 0.13,-14.57 -0.63,-21.69 -2.96,-28.25 -0.63,-1.83 -1.64,-4.98 -2.27,-7.06 -1.2,-4.1 -1.45,-4.79 -2.77,-7.82 -0.5,-1.14 -1.39,-3.41 -2.02,-5.05 -1.26,-3.28 -3.72,-8.39 -4.29,-8.83 -0.19,-0.13 -1.07,-1.7 -2.02,-3.53 -0.95,-1.83 -1.83,-3.41 -2.02,-3.53 -0.19,-0.13 -1.14,-1.32 -2.08,-2.71 -0.95,-1.32 -2.78,-3.59 -4.04,-5.05 -1.26,-1.45 -3.34,-3.97 -4.6,-5.68 -1.95,-2.59 -4.16,-4.79 -6.68,-6.68 -0.25,-0.19 -2.52,-1.89 -4.98,-3.78 -4.6,-3.53 -5.3,-3.78 -6.31,-2.77 -0.44,0.44 -0.63,0.44 -0.63,0 0,-0.32 -0.38,-0.63 -0.76,-0.63 -0.38,0 -0.63,0.25 -0.44,0.5 0.19,0.32 -0.13,0.38 -1.07,0.19 -1.01,-0.25 -1.58,-0.13 -2.02,0.57 -0.5,0.69 -1.14,0.82 -3.03,0.63 -1.32,-0.13 -2.65,-0.63 -2.96,-1.07 -0.32,-0.44 -0.95,-0.82 -1.39,-0.82 -0.57,0 -0.82,-0.44 -0.82,-1.26 0,-0.76 -0.32,-1.26 -0.76,-1.26 -0.44,0 -0.76,-0.19 -0.76,-0.44 0,-0.25 -0.13,-0.82 -0.32,-1.32 -0.25,-0.69 -0.06,-0.82 1.39,-0.69 1.45,0.13 1.77,0 1.89,-0.95 0.13,-1.07 0.19,-1.07 2.02,-0.32 1.01,0.44 2.21,1.07 2.65,1.45 1.26,1.14 4.67,2.84 4.92,2.52 0.38,-0.38 -1.2,-1.58 -3.41,-2.65 -0.95,-0.44 -2.33,-1.2 -3.03,-1.7 -1.89,-1.26 -11.41,-6.18 -14.63,-7.5 -2.71,-1.14 -6.31,-2.27 -12.11,-3.85 -1.51,-0.44 -5.23,-1.01 -8.26,-1.26 -6.12,-0.57 -9.08,-0.06 -9.59,1.64 -0.13,0.5 -0.63,0.95 -1.07,0.95 -0.63,0 -0.69,-0.19 -0.32,-0.95 0.88,-1.64 0.63,-2.08 -1.26,-2.08 -0.95,0 -1.77,0.19 -1.7,0.38 0.06,0.19 0.06,0.88 0,1.51 -0.06,1.39 -1.07,1.01 -1.07,-0.44 0,-0.63 -0.25,-0.88 -0.76,-0.69 -0.57,0.19 -0.63,0.5 -0.25,1.26 0.44,0.76 0.32,1.01 -0.63,1.14 -1.77,0.32 -3.91,0.25 -3.91,-0.13 0.06,-1.7 0.76,-2.59 2.08,-2.59 0.82,0 1.45,-0.19 1.45,-0.44 0,-0.25 -1.45,-0.44 -3.15,-0.44 -4.29,0 -5.49,0.95 -3.41,2.78 1.2,1.01 1.32,2.65 0.19,2.65 -0.69,0 -0.69,-0.13 -0.19,-0.76 0.38,-0.44 0.5,-0.95 0.32,-1.14 -0.44,-0.44 -3.85,3.34 -3.85,4.23 0,0.82 -1.01,0.88 -1.01,0.06 0,-0.38 -0.38,-0.13 -0.88,0.44 -1.26,1.51 -2.4,1.83 -2.52,0.63 -0.06,-0.5 0.13,-0.95 0.38,-0.95 0.25,0 0.5,-0.69 0.5,-1.51 0,-1.14 0.25,-1.51 0.95,-1.51 0.76,0 1.01,-0.44 1.14,-2.02 0.19,-1.89 0.13,-2.02 -1.2,-2.02 -0.76,0 -1.51,0.25 -1.7,0.5 -0.19,0.25 -0.13,0.5 0.19,0.5 0.25,0 0.57,0.44 0.76,1.01 0.19,0.76 0,1.01 -0.69,1.01 -0.5,0 -0.95,0.32 -0.95,0.69 0,0.37 -0.44,1.07 -0.95,1.51 -0.82,0.76 -1.01,0.76 -1.26,0.06 -0.19,-0.44 -0.63,-0.76 -1.01,-0.76 -0.38,0 -0.82,-0.44 -1.01,-1.01 -0.13,-0.57 -0.57,-1.01 -0.88,-1.01 -0.38,0 -0.5,0.13 -0.32,0.32 0.19,0.19 -0.19,0.57 -0.82,0.88 -0.82,0.38 -1.14,1.01 -1.14,2.14 0,1.01 -0.38,1.89 -1.01,2.4 -0.63,0.44 -0.76,0.76 -0.38,0.76 0.38,0 0.5,0.25 0.32,0.5 -0.19,0.25 -0.57,0.38 -0.88,0.19 -0.32,-0.19 -0.82,0 -1.14,0.44 -0.57,0.82 -2.33,0.95 -2.84,0.25 -0.44,-0.57 -2.84,0.82 -2.71,1.58 0.06,0.38 0,0.38 -0.13,0.13 -0.13,-0.32 -0.57,-0.5 -0.95,-0.5 -0.82,0 -0.82,-0.13 -0.38,-1.2 0.19,-0.44 0.5,-0.69 0.76,-0.5 0.25,0.13 0.44,-0.32 0.44,-1.01 0,-1.64 -0.76,-2.08 -1.51,-0.95 -0.38,0.69 -0.5,0.69 -0.5,0.13 0.19,-1.7 -0.06,-2.08 -1.2,-1.89 -0.69,0.13 -1.07,0.44 -0.95,0.95 0.5,1.89 0.5,5.17 0,5.68 -0.32,0.32 -0.95,1.32 -1.51,2.27 -0.57,0.95 -1.2,1.51 -1.45,1.39 -0.25,-0.13 -0.63,-0.06 -0.76,0.25 -0.57,0.88 -1.77,0.57 -1.77,-0.5 0,-0.76 0.32,-1.01 1.2,-1.01 1.64,0 2.08,-1.32 0.57,-1.7 -0.63,-0.19 -1.58,-0.19 -1.95,0 -0.5,0.19 -0.82,0 -0.82,-0.5 0,-0.44 0.25,-0.69 0.5,-0.5 0.25,0.19 0.5,0.06 0.5,-0.19 0,-0.25 -0.25,-0.57 -0.63,-0.69 -0.76,-0.25 -2.08,0.95 -1.7,1.58 0.13,0.25 -0.19,0.32 -0.82,0.19 -0.76,-0.19 -0.95,-0.13 -0.76,0.32 0.25,0.38 0.06,0.44 -0.44,0.25 -0.63,-0.25 -0.69,-0.44 -0.19,-1.01 0.32,-0.38 0.5,-0.76 0.38,-0.82 -0.13,-0.06 -0.63,-0.44 -1.2,-0.88 -0.57,-0.38 -0.82,-0.5 -0.63,-0.32 0.5,0.63 -0.5,2.33 -1.39,2.33 -0.38,0 -0.76,0.25 -0.76,0.5 0,0.25 0.32,0.5 0.76,0.5 0.44,0 0.76,0.19 0.76,0.5 0,0.25 -0.32,0.38 -0.76,0.19 -0.44,-0.19 -0.76,0 -0.76,0.32 0,0.32 -0.38,0.88 -0.82,1.26 -0.76,0.5 -0.76,0.69 -0.06,1.32 0.63,0.57 0.63,0.82 0.13,1.32 -0.38,0.38 -0.69,0.88 -0.82,1.2 -0.13,0.32 -0.82,0.57 -1.58,0.57 -0.76,0 -1.39,0.25 -1.39,0.63 0,0.38 -0.5,0.57 -1.26,0.5 -1.26,-0.13 -2.4,-0.76 -1.39,-0.76 0.32,0 0.69,-0.32 0.82,-0.76 0.38,-0.95 -0.13,-2.33 -0.76,-1.96 -0.25,0.13 -0.44,0.06 -0.44,-0.25 0,-0.25 -0.44,-0.44 -1.01,-0.44 -0.63,0.06 -0.95,0.32 -0.76,0.76 0.32,0.88 -2.27,3.22 -3.34,2.96 -0.44,-0.13 -0.95,0 -1.01,0.32 -0.06,0.25 -0.95,0.82 -1.83,1.2 -1.58,0.63 -1.7,0.63 -1.96,-0.32 -0.38,-1.45 -0.82,-1.26 -1.45,0.69 -0.44,1.51 -0.44,1.7 0.63,2.21 0.95,0.44 1.39,0.32 2.46,-0.69 0.69,-0.69 1.89,-1.2 2.65,-1.2 0.76,0 1.95,-0.32 2.71,-0.69 1.14,-0.57 1.39,-0.57 1.64,0 0.13,0.38 0,0.82 -0.25,1.01 -0.32,0.19 -0.38,0.82 -0.25,1.45 0.19,0.76 0.06,1.26 -0.5,1.45 -0.57,0.25 -0.76,0.06 -0.5,-0.44 0.44,-1.2 -1.58,-0.95 -2.21,0.25 -0.63,1.2 -1.77,1.32 -2.21,0.25 -0.5,-1.26 -1.39,-0.88 -1.01,0.5 0.25,1.07 0.13,1.26 -0.88,1.26 -0.95,0 -1.01,0.13 -0.44,0.5 0.63,0.38 0.57,0.5 -0.38,0.5 -0.63,0 -1.14,0.25 -1.14,0.57 0,0.32 0.44,0.38 1.01,0.19 0.57,-0.19 1.01,-0.13 1.01,0.13 0,0.26 -0.69,0.63 -1.58,0.82 -1.7,0.32 -4.48,-0.95 -4.48,-2.02 0,-0.95 1.45,-1.26 2.65,-0.63 0.88,0.44 1.2,0.38 1.7,-0.32 0.95,-1.26 -0.57,-2.96 -1.83,-2.14 -0.5,0.32 -0.76,0.76 -0.63,1.01 0.13,0.25 -0.25,0.32 -0.95,0.13 -0.88,-0.25 -1.58,0.13 -2.71,1.39 -1.89,2.08 -2.65,3.66 -1.32,2.96 0.5,-0.25 1.51,-0.44 2.27,-0.44 2.02,0 1.7,1.89 -0.38,2.52 -3.78,1.14 -5.8,2.02 -5.74,2.59 0.13,1.26 -0.06,1.83 -0.82,1.83 -0.44,0 -0.76,0.25 -0.76,0.5 0,0.25 0.25,0.5 0.5,0.5 0.76,0 0.63,1.83 -0.19,2.52 -0.57,0.5 -0.95,0.38 -1.89,-0.57 -0.76,-0.76 -1.2,-0.95 -1.32,-0.57 -0.32,0.95 -1.14,0.69 -1.14,-0.38 0,-1.2 -0.63,-1.64 -1.7,-1.26 -0.5,0.19 -0.82,0.95 -0.82,2.08 0,1.58 -0.13,1.77 -1.14,1.45 -1.32,-0.32 -2.08,0.06 -2.52,1.26 -0.5,1.39 0.25,1.58 1.2,0.32 l 0.88,-1.14 -0.32,1.2 c -0.19,0.76 -0.06,1.39 0.38,1.64 0.57,0.38 0.57,0.57 -0.25,1.2 -1.2,0.95 -2.14,0.5 -2.59,-1.01 -0.25,-0.95 -0.63,-1.2 -1.89,-1.2 -1.32,0 -1.45,0.13 -0.95,0.76 0.5,0.57 0.5,0.95 0.06,1.39 -0.95,0.95 -0.69,1.89 0.44,1.89 0.82,0 0.95,0.25 0.69,1.01 -0.25,0.82 -0.06,1.01 1.01,1.01 1.26,0 1.26,0.06 0.44,0.88 -0.63,0.63 -0.95,0.69 -1.07,0.25 -0.32,-1.01 -1.14,-0.69 -1.7,0.63 -0.32,0.69 -0.76,1.26 -1.01,1.26 -0.63,0 -1.89,1.32 -1.58,1.64 0.13,0.13 0.13,0.95 -0.06,1.7 -0.25,1.14 -0.63,1.45 -1.77,1.58 -1.26,0.06 -1.45,-0.06 -1.26,-0.95 0.25,-1.26 -1.14,-1.96 -1.83,-0.95 -0.69,1.14 -0.57,1.51 1.07,2.02 0.82,0.32 1.51,0.76 1.51,1.01 0,0.25 -0.32,0.38 -0.76,0.19 -0.44,-0.19 -0.76,0 -0.76,0.38 0,0.38 -0.32,0.95 -0.76,1.32 -0.44,0.32 -0.63,0.82 -0.5,1.07 0.13,0.25 -0.13,0.44 -0.63,0.44 -0.5,0 -1.32,0.69 -1.77,1.51 -0.57,1.01 -1.14,1.39 -1.64,1.2 -0.44,-0.19 -1.07,0.06 -1.39,0.44 -0.32,0.44 -1.07,0.88 -1.64,0.95 -0.63,0.13 -1.01,0.57 -1.07,1.26 0,0.63 -0.44,1.45 -0.88,1.89 -1.07,1.07 -1.07,1.14 0.44,0.88 1.83,-0.32 1.58,0.82 -0.32,1.58 -0.95,0.38 -1.32,0.82 -1.01,1.01 0.76,0.5 0.69,0.95 -0.32,2.08 -0.5,0.57 -0.88,1.26 -0.95,1.64 0,0.32 -0.06,0.95 -0.13,1.39 -0.06,0.44 -0.5,0.76 -0.95,0.76 -0.76,0 -0.76,0.06 -0.13,0.5 0.63,0.44 0.63,0.5 -0.19,0.5 -0.76,0 -0.82,0.13 -0.32,0.76 0.5,0.63 0.32,1.01 -0.88,2.27 -1.26,1.26 -1.39,1.64 -0.88,2.4 0.69,0.95 0.44,2.71 -0.32,2.71 -0.25,0 -0.32,0.19 -0.19,0.5 0.19,0.25 -0.13,0.69 -0.63,1.01 -0.69,0.38 -0.76,0.63 -0.25,1.14 0.5,0.5 0.32,0.88 -0.76,1.77 -0.76,0.63 -1.14,1.2 -0.88,1.2 0.69,0 0.5,4.1 -0.25,4.54 -0.32,0.19 -0.44,0.63 -0.25,0.95 0.19,0.32 -0.06,1.14 -0.5,1.83 -0.44,0.69 -0.69,1.7 -0.57,2.27 0.13,0.57 -0.06,1.26 -0.44,1.58 -0.44,0.38 -0.57,0.88 -0.32,1.39 0.19,0.44 0.32,2.21 0.25,3.85 -0.19,4.92 -0.19,5.42 0.38,6.05 0.38,0.44 0.32,0.69 -0.13,0.88 -0.5,0.19 -0.5,0.38 -0.13,0.95 0.76,1.01 1.32,2.59 0.76,2.27 -0.25,-0.13 -0.57,0.32 -0.69,1.01 -0.13,0.69 -0.06,1.39 0.13,1.51 0.19,0.13 0.25,0.69 0.13,1.26 -0.19,0.63 0,1.01 0.38,1.01 0.5,0 0.5,0.13 0.06,0.63 -0.88,0.88 -0.76,2.27 0.38,3.41 0.63,0.63 1.01,1.7 1.01,2.77 0,1.26 0.25,1.77 0.76,1.77 0.44,0 0.76,0.44 0.76,1.01 0,0.57 -0.32,1.01 -0.69,1.01 -0.82,0 -1.45,1.39 -1.01,2.08 0.13,0.25 0.63,0.44 1.07,0.44 0.57,0 0.69,0.32 0.5,1.2 -0.19,0.76 -0.06,1.32 0.32,1.45 0.5,0.19 0.5,0.38 -0.06,1.07 -0.63,0.76 -0.57,0.82 0.63,0.82 1.58,0 1.64,0.19 0.32,2.02 -0.76,1.07 -0.82,1.51 -0.38,1.7 0.38,0.13 0.32,0.25 -0.25,0.32 -1.39,0.06 -0.32,2.27 1.14,2.27 0.63,0 1.26,0.32 1.39,0.63 0.13,0.32 0,0.63 -0.19,0.63 -0.19,0 -0.5,1.01 -0.57,2.21 -0.13,1.89 0,2.27 1.01,2.52 1.45,0.38 1.77,0 1.07,-1.14 -0.44,-0.69 -0.44,-1.01 0,-1.14 1.07,-0.38 2.4,1.58 2.4,3.41 0,1.07 0.19,1.64 0.5,1.51 0.25,-0.19 0.5,-0.06 0.5,0.25 0,0.31 0.5,0.5 1.14,0.38 0.63,-0.06 1.14,0.06 1.14,0.38 0,0.25 -0.5,0.44 -1.14,0.38 -0.63,-0.06 -1.14,0.06 -1.14,0.38 0,0.32 0.38,0.5 0.82,0.5 0.5,0 0.69,0.25 0.57,0.69 -0.19,0.44 0.19,0.82 0.95,1.01 1.45,0.38 1.58,1.07 0.32,1.51 -0.82,0.32 -0.82,0.38 0,1.01 0.5,0.38 1.07,1.32 1.26,2.08 0.19,0.76 0.82,1.64 1.39,1.95 1.2,0.69 1.77,1.39 1.45,1.89 -0.13,0.25 0.13,0.38 0.57,0.38 0.57,0 0.76,0.5 0.76,1.64 0,0.88 0.32,2.96 0.76,4.54 0.95,3.59 1.01,3.34 -0.44,3.34 -0.95,0 -1.2,0.25 -1.14,1.26 0.06,0.76 0.38,1.26 0.88,1.26 1.07,0 2.02,1.01 2.02,2.08 0,1.2 2.21,2.59 3.41,2.21 0.57,-0.19 1.2,0 1.58,0.44 0.38,0.44 0.88,0.76 1.2,0.76 0.32,0 1.07,0.88 1.64,1.89 1.7,2.96 4.67,6.18 5.74,6.18 1.01,0 4.35,2.96 5.74,5.11 0.5,0.76 1.51,1.51 2.33,1.7 0.82,0.19 1.45,0.57 1.45,0.82 0,0.57 2.14,0 2.59,-0.69 0.19,-0.32 1.14,-0.32 2.59,0 1.95,0.44 2.59,0.32 4.48,-0.69 1.2,-0.63 1.83,-1.2 1.32,-1.2 -0.95,0 -1.2,-0.76 -0.38,-1.26 0.25,-0.19 0.5,-0.06 0.5,0.25 0,0.95 1.45,0.57 2.21,-0.5 0.44,-0.57 0.88,-0.82 1.07,-0.57 0.19,0.25 0.06,0.63 -0.19,0.82 -0.69,0.44 -0.63,1.77 0,1.77 0.32,0 0.38,-0.19 0.25,-0.44 -0.13,-0.25 0.06,-0.57 0.5,-0.76 0.44,-0.19 0.63,-0.5 0.5,-0.76 -0.13,-0.25 0.06,-0.76 0.5,-1.14 0.5,-0.44 0.69,-1.14 0.5,-2.08 -0.13,-0.76 -0.13,-1.39 0.13,-1.39 0.26,0 0.69,-0.63 1.01,-1.39 0.5,-1.14 0.5,-1.45 -0.19,-1.95 -0.44,-0.32 -0.82,-0.76 -0.82,-0.88 0,-0.63 1.89,-0.32 2.52,0.44 0.38,0.44 0.95,0.69 1.26,0.5 0.38,-0.13 0.95,0.13 1.26,0.57 0.57,0.63 0.5,0.88 -0.25,1.45 -0.69,0.5 -0.76,0.88 -0.38,2.02 0.63,1.64 0.32,2.33 -0.88,1.89 -0.76,-0.32 -0.76,-0.25 0.06,0.57 1.39,1.39 0.95,3.09 -0.76,3.03 -1.07,0 -1.39,0.19 -1.39,1.01 0,0.76 0.13,0.88 0.63,0.38 1.01,-1.01 1.51,-0.69 1.2,0.63 -0.19,0.76 -0.13,1.26 0.19,1.26 0.25,0 0.5,0.32 0.5,0.63 0,0.63 -3.15,2.9 -4.04,2.9 -0.69,0 -0.63,0.38 0.38,2.08 0.63,1.07 1.14,1.45 1.89,1.26 0.63,-0.19 1.51,0.19 2.46,1.14 1.32,1.26 1.45,1.32 2.08,0.5 0.69,-0.95 2.59,-1.26 2.08,-0.38 -0.19,0.25 0,0.5 0.44,0.5 0.44,0 0.88,-0.25 1.07,-0.5 0.19,-0.32 0.82,-0.38 1.39,-0.19 0.63,0.19 1.45,0.32 1.96,0.32 1.14,-0.06 2.08,1.2 1.77,2.33 -0.19,0.76 0.06,1.01 1.45,1.26 1.64,0.32 3.97,2.52 3.47,3.34 -0.44,0.76 0.5,0.88 1.2,0.19 0.5,-0.57 0.5,-0.69 -0.13,-0.69 -0.44,0 -0.76,-0.25 -0.76,-0.5 0,-0.32 0.25,-0.38 0.63,-0.13 0.88,0.57 4.92,0.63 4.6,0.06 -0.19,-0.25 0.19,-0.19 0.69,0.19 0.82,0.5 1.14,0.5 1.83,-0.19 0.44,-0.44 0.82,-1.01 0.82,-1.26 0,-0.44 2.21,-1.64 3.03,-1.64 0.69,0 0.57,0.82 -0.19,1.64 -0.38,0.38 -0.88,1.2 -1.07,1.83 -0.32,1.07 -0.25,1.14 1.39,0.82 2.02,-0.38 3.59,0.76 3.03,2.14 -0.25,0.63 -0.13,0.76 0.63,0.44 0.5,-0.19 1.07,-0.13 1.26,0.19 0.44,0.69 1.89,0.13 2.14,-0.76 0.13,-0.57 0.38,-0.57 1.64,0 4.41,1.96 5.86,2.33 8.96,2.52 1.89,0.06 3.72,0.44 4.04,0.76 v 0 c 1.07,1.07 5.93,0.25 5.93,-1.01 0,-0.25 1.51,-0.44 3.34,-0.44 3.03,0 3.28,0.06 3.03,0.95 -0.25,0.82 0,0.95 1.64,0.95 1.64,0 2.08,-0.25 2.9,-1.45 0.57,-0.82 1.32,-1.45 1.77,-1.39 1.77,0.13 2.52,-0.13 2.52,-0.88 0,-1.07 1.32,-0.95 1.64,0.19 0.19,0.76 0.57,0.88 1.7,0.69 0.82,-0.13 1.7,-0.5 1.96,-0.82 0.69,-0.76 3.78,-1.83 5.36,-1.83 0.69,0 1.89,-0.44 2.71,-1.01 0.88,-0.57 1.95,-0.88 2.59,-0.69 0.63,0.13 1.26,0 1.45,-0.32 0.19,-0.32 0.76,-0.44 1.26,-0.25 0.82,0.25 0.88,0.06 0.76,-1.39 -0.06,-0.95 0.13,-2.08 0.5,-2.59 0.57,-0.82 0.88,-0.82 2.46,-0.25 1.39,0.5 1.96,0.5 2.52,0.06 0.38,-0.32 1.07,-0.44 1.58,-0.32 0.5,0.19 0.82,0.06 0.82,-0.32 0,-0.32 0.25,-0.5 0.63,-0.38 0.38,0.13 1.45,-0.19 2.52,-0.63 1.58,-0.69 2.46,-0.76 4.98,-0.38 3.09,0.44 3.15,0.44 4.54,-1.07 0.82,-0.88 2.02,-1.7 2.71,-1.89 0.69,-0.19 1.26,-0.5 1.26,-0.69 0,-0.19 1.45,-1.26 3.15,-2.4 3.22,-2.08 8.39,-6.87 13.75,-12.8 4.48,-4.98 4.86,-5.36 4.98,-6.18 0.06,-0.38 1.58,-2.52 3.41,-4.73 1.83,-2.21 4.35,-5.55 5.61,-7.5 1.26,-1.96 2.84,-3.91 3.41,-4.41 0.57,-0.5 1.07,-1.26 1.07,-1.77 0,-0.51 0.06,-1.89 0.13,-3.15 0.06,-1.39 0.5,-2.9 1.14,-3.78 1.45,-2.08 2.77,-6.12 3.41,-10.09 0.13,-0.82 0.57,-2.4 1.07,-3.47 0.44,-1.07 0.69,-2.08 0.57,-2.21 -0.13,-0.13 0.32,-1.26 1.07,-2.46 0.88,-1.32 1.39,-3.15 1.58,-5.23 z m -220.6,-45.28 c 0.19,-0.25 0.57,-0.5 0.82,-0.5 0.25,0 0.38,0.25 0.19,0.5 -0.19,0.25 -0.57,0.5 -0.82,0.5 -0.25,0 -0.38,-0.25 -0.19,-0.5 z m -0.76,10.09 c 0.32,0 0.38,0.25 0.25,0.5 -0.19,0.25 -0.44,0.5 -0.5,0.5 -0.13,0 -0.25,-0.25 -0.25,-0.5 0,-0.25 0.25,-0.5 0.5,-0.5 z m -1.58,15.45 c 0.32,-0.19 0.69,-0.06 0.88,0.25 0.44,0.76 0.13,1.01 -0.69,0.5 -0.5,-0.32 -0.57,-0.57 -0.19,-0.76 z m 0.57,9.78 c -0.25,0 -0.5,-0.19 -0.5,-0.5 0,-0.25 0.25,-0.63 0.5,-0.76 0.25,-0.19 0.5,0.06 0.5,0.5 0,0.38 -0.25,0.76 -0.5,0.76 z m 0.76,-2.52 c -0.13,0 -0.38,-0.25 -0.5,-0.5 -0.19,-0.25 -0.06,-0.5 0.25,-0.5 0.31,0 0.5,0.25 0.5,0.5 0,0.25 -0.13,0.5 -0.25,0.5 z m 0.44,-3.91 c -0.38,0.25 -0.69,0.69 -0.69,1.14 v 0 c 0,0.38 -0.25,0.82 -0.5,1.01 -0.32,0.19 -0.44,-0.32 -0.32,-1.26 0.13,-1.39 1.45,-2.96 2.46,-3.03 0.57,0 -0.25,1.7 -0.95,2.14 z m 1.14,-11.41 c -0.38,-0.13 -0.95,0 -1.2,0.32 v 0 c -0.25,0.32 -0.69,1.26 -1.01,2.14 q -0.5,1.51 -0.69,0.25 c -0.13,-0.69 0,-1.83 0.19,-2.59 0.32,-1.01 0.76,-1.32 1.89,-1.32 0.95,0 1.51,0.25 1.51,0.76 0,0.44 -0.32,0.63 -0.69,0.44 z m 174.25,-91.13 c 0.25,0 0.5,0.25 0.5,0.5 0,0.25 -0.25,0.5 -0.5,0.5 -0.25,0 -0.5,-0.25 -0.5,-0.5 0,-0.25 0.25,-0.5 0.5,-0.5 z m -45.91,-17.91 c 0.25,-0.19 0.5,0.06 0.5,0.44 v 0 c 0,0.88 -0.32,1.01 -0.76,0.32 -0.13,-0.25 -0.06,-0.57 0.25,-0.76 z m -20.43,4.6 c 0.25,-1.01 0.63,-1.26 2.21,-1.26 q 1.89,0 1.39,1.45 c -0.38,0.95 -0.76,1.32 -1.07,1.01 v 0 c -0.32,-0.32 -0.82,-0.19 -1.32,0.32 -1.07,0.95 -1.64,0.25 -1.2,-1.51 z m -28.82,12.55 c 0.19,0.44 0.13,0.76 -0.13,0.76 -0.5,0 -1.07,-0.57 -1.07,-1.07 0,-0.76 0.88,-0.5 1.2,0.32 z m -9.33,-2.77 c 1.26,0 1.77,0.82 0.76,1.2 v 0 c -1.26,0.5 -1.7,0.38 -1.7,-0.44 0,-0.44 0.44,-0.76 0.95,-0.76 z m -4.73,7.06 c 0.19,-0.25 0.44,-0.5 0.5,-0.5 0.13,0 0.25,0.25 0.25,0.5 0,0.25 -0.25,0.5 -0.5,0.5 -0.32,0 -0.44,-0.25 -0.25,-0.5 z m -18.73,12.87 c 0.19,0.44 0.06,0.76 -0.19,0.76 -0.69,0 -1.14,-0.88 -0.57,-1.2 0.25,-0.19 0.57,0 0.76,0.44 z m -1.26,-2.27 c 0.25,0 0.57,0.19 0.76,0.44 0.13,0.25 -0.06,0.44 -0.5,0.44 -0.38,0 -0.76,-0.19 -0.76,-0.44 0.06,-0.25 0.25,-0.44 0.5,-0.44 z m -2.27,7 c 0.38,-0.38 0.82,-1.01 0.95,-1.45 0.25,-0.63 0.32,-0.57 0.63,0.19 0.44,1.07 -1.39,3.34 -1.95,2.46 -0.19,-0.32 0,-0.88 0.38,-1.2 z m -13.81,6.87 c 0.25,0.19 0.5,0.44 0.5,0.5 0,0.13 -0.25,0.25 -0.5,0.25 -0.25,0 -0.5,-0.25 -0.5,-0.5 0,-0.32 0.25,-0.44 0.5,-0.25 z m 28,140.51 c -0.13,0 -0.25,-0.32 -0.25,-0.69 0,-0.37 -0.13,-1.07 -0.32,-1.51 -0.19,-0.44 -0.13,-0.82 0.13,-0.82 0.26,0 0.5,0.69 0.57,1.51 0.06,0.82 0,1.51 -0.13,1.51 z m 14.69,12.23 c -0.13,0.32 -0.25,0.06 -0.25,-0.63 0,-0.69 0.13,-1.01 0.25,-0.63 0.13,0.38 0.13,0.95 0,1.26 z m 13.12,6.56 c -0.88,0.19 -1.2,0.06 -1.01,-0.44 0.32,-0.76 0.63,-0.82 1.58,-0.25 0.57,0.32 0.38,0.5 -0.57,0.69 z m 18.48,-1.01 c -0.25,-0.38 -0.63,-0.44 -1.14,-0.13 v 0 c -1.2,0.76 -1.64,0.57 -0.76,-0.32 0.88,-0.88 2.27,-0.63 2.27,0.44 0,0.5 -0.13,0.5 -0.38,0 z m 6.62,1.07 v 0 c -0.44,0.19 -1.2,0.25 -1.64,0.25 q -0.76,-0.06 0.06,-0.32 c 0.5,-0.13 0.76,-0.44 0.63,-0.69 -0.19,-0.25 0.19,-0.44 0.76,-0.44 1.2,0 1.32,0.76 0.19,1.2 z m 2.14,16.78 c -0.63,1.32 -1.32,1.64 -1.32,0.57 0,-0.38 0.44,-0.88 0.95,-1.2 0.88,-0.57 0.88,-0.5 0.38,0.63 z m 11.86,-17.47 c -0.63,-0.95 -0.57,-1.01 0.38,-0.5 0.57,0.32 1.01,0.76 1.01,1.01 0.06,0.82 -0.69,0.57 -1.39,-0.5 z m 28.69,4.54 c -0.25,0 -0.5,-0.38 -0.5,-0.76 0,-0.44 0.25,-0.63 0.5,-0.5 0.25,0.19 0.5,0.5 0.5,0.76 0,0.32 -0.25,0.5 -0.5,0.5 z m 10.62,-64.96 c -0.53,0.12 -0.92,0.52 -1.13,1.21 -0.17,0.56 -0.71,1.43 -1.17,1.91 -0.74,0.81 -0.79,0.98 -0.59,1.9 0.28,1.08 -0.07,1.64 -0.79,1.41 -0.57,-0.18 -1.47,0.73 -1.78,1.72 -0.13,0.43 -1.04,1.62 -2,2.74 -0.96,1.07 -1.76,2.1 -1.76,2.24 -0.03,0.51 -1.75,2.48 -2.53,2.86 -1.16,0.59 -3.09,2.25 -3.09,2.68 -0.03,0.23 -1.66,1.33 -3.61,2.47 -2.27,1.33 -3.59,2.29 -3.63,2.7 -0.05,0.46 -0.22,0.55 -0.48,0.27 -0.24,-0.22 -0.82,-0.21 -1.27,-0.06 -0.74,0.24 -0.77,0.33 -0.39,0.68 0.53,0.45 0.15,1.23 -0.55,1.06 -0.24,-0.08 -0.86,-0.22 -1.36,-0.33 -0.58,-0.13 -0.97,-0.02 -1.06,0.28 -0.09,0.3 -0.36,0.45 -0.65,0.37 -0.28,-0.09 -0.53,-0.02 -0.59,0.19 -0.05,0.17 -0.85,0.59 -1.8,0.95 -0.94,0.32 -2.54,1.05 -3.58,1.54 -1.95,1 -2.31,1.03 -2.88,0.29 -0.23,-0.26 -0.73,-0.37 -1.35,-0.23 -0.57,0.11 -1.2,0.15 -1.4,0.08 -0.24,-0.08 -0.44,0.15 -0.5,0.46 -0.05,0.31 -0.28,0.62 -0.55,0.63 -0.23,0.02 -0.4,-0.13 -0.34,-0.34 0.24,-0.78 -1.17,-0.79 -1.64,0 -0.66,1.12 -1.61,1.48 -1.63,0.68 -0.03,-0.34 -0.31,-0.71 -0.67,-0.82 -0.44,-0.14 -0.66,-0.02 -0.62,0.42 0.03,0.62 -0.91,1.37 -1.48,1.2 -0.16,-0.05 -0.66,0.13 -1.05,0.38 -0.73,0.48 -0.74,0.53 -0.2,1.07 0.97,1.01 0.39,1.73 -0.94,1.17 -0.86,-0.36 -1.13,-0.64 -0.96,-1.06 0.16,-0.38 -0.08,-0.74 -0.69,-1.07 -0.57,-0.32 -0.86,-0.79 -0.84,-1.3 0.03,-0.65 -0.15,-0.8 -1.01,-0.88 -0.61,-0.05 -1.58,-0.21 -2.25,-0.32 -1.64,-0.28 -5.72,-0.55 -6.21,-0.42 -0.24,0.07 -0.4,0.44 -0.39,0.97 0.03,0.48 -0.19,1.17 -0.42,1.62 l -0.46,0.76 -0.58,-0.99 c -0.38,-0.64 -0.42,-0.93 -0.09,-0.83 0.33,0.1 0.34,-0.08 0,-0.57 -0.46,-0.66 -0.44,-0.71 0.32,-0.47 0.57,0.18 0.73,0.08 0.57,-0.25 -0.13,-0.28 -0.96,-0.63 -1.86,-0.86 -1.6,-0.4 -1.62,-0.36 -2.13,0.85 -0.27,0.72 -0.36,1.31 -0.16,1.37 0.2,0.06 0.27,0.27 0.22,0.45 -0.05,0.18 -0.35,0.27 -0.59,0.19 -0.28,-0.09 -0.48,0 -0.44,0.15 0.04,0.15 -0.21,0.83 -0.54,1.44 -0.55,1.06 -0.7,1.11 -1.67,0.66 -0.59,-0.23 -1.32,-0.6 -1.58,-0.77 v 0 c -0.3,-0.19 -0.58,-0.13 -0.78,0.23 -0.23,0.45 -0.36,0.45 -0.42,0.06 -0.04,-0.3 -0.55,-0.93 -1.05,-1.46 l -0.94,-0.96 0.87,-0.53 c 0.5,-0.32 0.96,-0.79 1.04,-1.05 0.08,-0.26 0.35,-0.55 0.55,-0.63 0.24,-0.07 0.18,0.43 -0.26,1.39 -0.46,1.04 -0.52,1.68 -0.28,2.04 0.3,0.47 0.39,0.45 0.57,-0.11 0.13,-0.43 0.52,-0.69 1.01,-0.68 h 0.79 c 0,0 -0.5,-1.09 -0.5,-1.09 -0.66,-1.44 -0.07,-1.77 1.92,-1.2 l 1.51,0.42 -0.77,-0.95 c -0.48,-0.58 -1.12,-0.96 -1.6,-0.97 -0.44,0 -1.31,-0.36 -1.9,-0.73 -0.7,-0.45 -1.19,-0.61 -1.37,-0.43 -0.2,0.22 -0.35,0.13 -0.4,-0.13 -0.05,-0.25 -1.14,-0.88 -2.45,-1.38 -1.29,-0.54 -2.88,-1.28 -3.56,-1.68 -1.83,-1.09 -2.01,-1.1 -2.21,-0.03 -0.12,0.67 -0.34,0.94 -0.7,0.82 -0.28,-0.09 -0.36,-0.4 -0.23,-0.83 0.5,-1.17 0.13,-1.99 -1.04,-2.22 -1.24,-0.29 -1.79,0.2 -0.93,0.85 0.65,0.49 0.57,1.31 -0.11,1.48 -0.24,0.07 -0.42,0.34 -0.4,0.58 0.01,0.24 -0.16,0.66 -0.4,0.87 -0.24,0.21 -0.32,0.61 -0.2,0.93 0.15,0.38 0.11,0.51 -0.17,0.42 -0.24,-0.08 -0.4,0.16 -0.46,0.61 -0.04,0.56 -0.3,0.81 -0.94,0.89 -1.12,0.17 -1.44,-0.35 -0.43,-0.75 0.75,-0.29 0.98,-1.45 0.34,-1.65 -0.2,-0.06 -0.35,0.13 -0.36,0.45 0,0.28 -0.15,0.62 -0.34,0.65 -0.2,0.08 -0.34,-0.06 -0.28,-0.23 0.06,-0.17 -0.2,-0.35 -0.59,-0.37 -0.57,-0.03 -0.65,-0.2 -0.49,-0.86 0.09,-0.44 0.24,-0.92 0.32,-1.04 0.04,-0.13 -0.27,-0.56 -0.71,-0.98 -0.75,-0.71 -0.78,-0.91 -0.26,-2.59 0.5,-1.6 0.46,-2.03 -0.1,-3.39 -0.61,-1.47 -0.75,-1.56 -1.54,-1.33 -0.58,0.15 -0.98,0.59 -1.21,1.33 -0.26,0.82 -0.44,1 -0.89,0.86 -0.71,-0.27 -1.23,-0.9 -1.09,-1.33 0.05,-0.17 0.23,-0.17 0.43,0.04 0.23,0.26 0.22,0.16 0.07,-0.36 -0.15,-0.38 -0.5,-0.82 -0.78,-0.91 -0.4,-0.13 -0.38,-0.21 0.01,-0.47 0.75,-0.43 0.89,-1.14 0.28,-1.33 -0.36,-0.11 -0.42,-0.37 -0.14,-0.85 0.35,-0.55 0.26,-0.68 -0.31,-0.71 -0.75,0 -1.68,-1.28 -1.46,-2.01 0.21,-0.69 -1.12,-1.82 -1.76,-1.45 -0.43,0.24 -0.34,0.65 0.31,1.85 0.86,1.64 0.92,2.18 0.19,2.24 -0.27,0.01 -0.38,0.21 -0.27,0.44 0.11,0.22 0.5,0.11 0.92,-0.24 0.97,-0.83 1.44,-0.64 0.96,0.49 -0.3,0.67 -0.58,0.86 -1.01,0.68 -0.35,-0.16 -0.81,-0.11 -1.09,0.09 -0.4,0.3 -0.65,0.22 -1.29,-0.4 -0.44,-0.42 -0.62,-0.71 -0.38,-0.64 0.4,0.13 0.51,-0.36 0.46,-2.03 -0.01,-0.24 0.27,-0.44 0.62,-0.42 0.57,0.03 0.58,0 0.11,-0.2 -0.31,-0.14 -0.47,-0.48 -0.38,-0.78 0.11,-0.35 -0.01,-0.52 -0.38,-0.5 -0.73,0.06 -0.85,-0.69 -0.32,-1.95 0.36,-0.88 0.24,-1.34 -0.92,-3.31 -0.71,-1.26 -1.77,-2.87 -2.29,-3.6 -0.53,-0.73 -1.12,-1.82 -1.27,-2.48 -0.34,-1.48 -1.33,-3.4 -2.3,-4.41 -0.63,-0.67 -2.94,-6.07 -3.95,-9.23 -1.63,-5.15 -3.06,-12.22 -2.7,-13.38 0.08,-0.26 0.13,-1.71 0.12,-3.23 -0.03,-2.75 0.44,-7.25 1.06,-10.08 0.17,-0.84 0.42,-2.47 0.55,-3.61 0.23,-2.15 3.32,-12.5 6.09,-20.39 1.59,-4.52 1.44,-4.33 5.27,-6.83 1.35,-0.91 2.72,-1.9 3.09,-2.25 0.73,-0.77 2.61,-4.53 2.6,-5.2 0,-0.43 0.58,-1 3.96,-3.88 0.43,-0.39 0.94,-0.75 1.14,-0.83 0.2,-0.08 1.18,-0.81 2.23,-1.62 2.25,-1.81 5.29,-3.61 7.12,-4.22 1.63,-0.53 5.57,-1.39 7.05,-1.45 0.96,-0.08 6,-1.49 13.2,-3.7 4.62,-1.45 6.58,-1.5 12.47,-0.33 0.75,0.14 2.79,0.44 4.58,0.67 1.87,0.25 5.47,1.09 8.58,2.06 4.94,1.49 5.6,1.79 8.89,3.9 1.97,1.23 5.09,3.43 6.99,4.87 3.56,2.67 7.52,5.46 9.59,6.77 2.3,1.43 3.26,3.05 8.44,14.03 1.09,2.33 1.83,4.5 1.97,5.77 0.14,1.13 0.45,2.41 0.7,2.87 0.26,0.46 0.63,1.81 0.8,2.99 0.16,1.19 0.65,3.18 1.16,4.38 1.75,4.47 2.43,11.97 1.63,17.69 -0.19,1.31 -0.9,4.31 -1.56,6.71 -0.77,2.74 -1.25,5.15 -1.33,6.54 -0.03,1.22 -0.17,2.69 -0.27,3.28 -0.09,0.59 -0.35,2.68 -0.55,4.61 -0.56,5.79 -0.63,6 -1.34,7.58 -0.39,0.82 -0.62,1.7 -0.52,1.97 -0.03,0.65 -0.23,0.88 -0.79,0.98 z"
       id="path307"
       style="fill:url(#linearGradient604)" />
    <path
       class="cls-6"
       d="m 2202.53,549.54 c 0.76,-0.19 1.51,-0.06 1.64,0.19 v 0 c 0.38,0.63 1.26,0.69 1.26,0.13 0,-0.56 -1.14,-1.64 -1.77,-1.64 -0.32,0 -1.01,0.38 -1.51,0.82 q -0.88,0.76 0.38,0.5 z"
       id="path309"
       style="fill:url(#linear-gradient-2)" />
    <path
       class="cls-4"
       d="m 2047.26,721.52 c 1.01,0.76 1.64,0.63 1.07,-0.25 -0.19,-0.32 -0.69,-0.5 -1.2,-0.5 -0.69,0 -0.69,0.13 0.13,0.76 v 0 z"
       id="path311"
       style="fill:url(#linear-gradient-3)" />
    <path
       class="cls-5"
       d="m 2118.34,533.71 c -1.39,-0.19 -6.68,1.26 -6.68,1.83 0,0.25 0.13,0.57 0.32,0.76 v 0 c 0.57,0.57 2.71,0.38 2.71,-0.32 0,-0.38 1.07,-0.95 2.4,-1.39 1.77,-0.57 2.08,-0.76 1.26,-0.88 z"
       id="path313"
       style="fill:url(#linear-gradient-4)" />
    <path
       class="cls-8"
       d="m 2049.03,583.21 c 0.44,-0.38 0.5,-3.22 0.06,-3.22 -0.25,0 -0.5,0.44 -0.5,1.01 0,0.69 -0.32,1.01 -1.14,1.01 q -1.14,0 0.13,0.69 v 0 c 0.69,0.38 1.32,0.57 1.45,0.5 z"
       id="path315"
       style="fill:url(#linear-gradient-5)" />
  </g>
  <path
     class="cls-7"
     d="m 654.721,240.49 c -1.82,-5.28 -4.74,-14.39 -6.56,-20.41 -3.46,-11.84 -4.19,-13.85 -8.02,-22.59 -1.46,-3.28 -4.01,-9.84 -5.83,-14.57 -3.64,-9.48 -10.75,-24.24 -12.39,-25.51 -0.55,-0.36 -3.1,-4.92 -5.83,-10.2 -2.73,-5.28 -5.28,-9.84 -5.83,-10.2 -0.55,-0.36 -3.28,-3.82 -6.01,-7.83 -2.73,-3.82 -8.02,-10.38 -11.66,-14.57 -3.64,-4.19 -9.66,-11.48 -13.3,-16.4 -5.65,-7.47 -12.03,-13.84 -19.31,-19.31 -0.73,-0.54 -7.29,-5.46 -14.39,-10.93 -13.3,-10.2 -15.3,-10.93 -18.22,-8.02 -1.27,1.27 -1.82,1.27 -1.82,0 0,-0.91 -1.09,-1.82 -2.19,-1.82 -1.1,0 -1.82,0.73 -1.27,1.46 0.55,0.91 -0.36,1.09 -3.1,0.55 -2.91,-0.73 -4.55,-0.36 -5.83,1.64 -1.46,2 -3.28,2.36 -8.75,1.82 -3.83,-0.36 -7.65,-1.82 -8.56,-3.1 -0.91,-1.27 -2.73,-2.37 -4.01,-2.37 -1.64,0 -2.37,-1.27 -2.37,-3.64 0,-2.19 -0.91,-3.64 -2.19,-3.64 -1.28,0 -2.18,-0.54 -2.18,-1.27 0,-0.73 -0.36,-2.37 -0.91,-3.83 -0.73,-2 -0.18,-2.37 4.01,-2 4.19,0.36 5.1,0 5.46,-2.73 0.36,-3.1 0.55,-3.1 5.83,-0.92 2.91,1.28 6.38,3.1 7.65,4.19 3.64,3.28 13.48,8.2 14.21,7.29 1.09,-1.09 -3.46,-4.56 -9.84,-7.65 -2.73,-1.27 -6.74,-3.46 -8.75,-4.92 -5.47,-3.64 -32.98,-17.86 -42.27,-21.68 -7.83,-3.28 -18.22,-6.56 -34.98,-11.1100001 -4.37,-1.27 -15.12,-2.91 -23.87,-3.64 -17.67,-1.6399999 -26.24,-0.19 -27.69,4.73 -0.36,1.46 -1.82,2.7300001 -3.1,2.7300001 -1.82,0 -2,-0.54 -0.91,-2.7300001 2.55,-4.73 1.82,-6.01 -3.64,-6.01 -2.73,0 -5.1,0.54 -4.92,1.09 0.18,0.55 0.18,2.55 0,4.37 -0.18,4.0100001 -3.1,2.91 -3.1,-1.27 0,-1.82 -0.73,-2.55 -2.19,-2 -1.64,0.54 -1.82,1.46 -0.73,3.64 C 356.631,9.31 356.271,10.04 353.541,10.41 c -5.1,0.91 -11.3,0.73 -11.3,-0.36 0.18,-4.9200001 2.19,-7.47 6.01,-7.47 2.37,0 4.19,-0.54 4.19,-1.2700001 C 352.441,0.58 348.281,0 343.361,0 c -12.38,0 -15.85,2.7299999 -9.84,8.02 3.46,2.91 3.83,7.65 0.55,7.65 -2,0 -2,-0.36 -0.55,-2.18 1.09,-1.28 1.46,-2.73 0.91,-3.28 -1.27,-1.28 -11.11,9.65 -11.11,12.2 0,2.37 -2.91,2.55 -2.91,0.19 0,-1.09 -1.09,-0.36 -2.55,1.27 -3.64,4.37 -6.92,5.28 -7.29,1.82 -0.18,-1.45 0.36,-2.73 1.09,-2.73 0.73,0 1.46,-2 1.46,-4.37 0,-3.28 0.73,-4.37 2.73,-4.37 2.18,0 2.91,-1.27 3.28,-5.83 0.54,-5.46 0.36,-5.83 -3.46,-5.83 -2.19,0 -4.37,0.73 -4.92,1.45 -0.55,0.73 -0.36,1.46 0.55,1.46 0.73,0 1.64,1.27 2.18,2.91 0.55,2.18 0,2.91 -2,2.91 -1.46,0 -2.73,0.91 -2.73,2 0,1.09 -1.27,3.1 -2.73,4.37 -2.37,2.18 -2.91,2.18 -3.64,0.18 -0.55,-1.27 -1.82,-2.18 -2.91,-2.18 -1.09,0 -2.37,-1.27 -2.91,-2.91 -0.36,-1.64 -1.64,-2.92 -2.55,-2.92 -1.09,0 -1.46,0.37 -0.91,0.92 0.55,0.54 -0.54,1.64 -2.37,2.55 -2.37,1.09 -3.28,2.91 -3.28,6.19 0,2.91 -1.09,5.47 -2.92,6.92 -1.82,1.27 -2.18,2.18 -1.09,2.18 1.09,0 1.45,0.73 0.91,1.46 -0.55,0.73 -1.64,1.09 -2.55,0.54 -0.91,-0.54 -2.37,0 -3.28,1.27 -1.64,2.37 -6.74,2.73 -8.2,0.73 -1.27,-1.64 -8.2,2.37 -7.83,4.55 0.18,1.09 0,1.09 -0.36,0.36 -0.36,-0.91 -1.64,-1.45 -2.73,-1.45 -2.37,0 -2.37,-0.36 -1.09,-3.46 0.55,-1.27 1.46,-2 2.19,-1.45 0.73,0.36 1.27,-0.92 1.27,-2.91 0,-4.74 -2.18,-6.01 -4.37,-2.73 -1.09,2 -1.46,2 -1.46,0.36 0.55,-4.92 -0.18,-6.01 -3.46,-5.47 -2,0.36 -3.1,1.28 -2.73,2.73 1.46,5.46 1.46,14.94 0,16.4 -0.91,0.91 -2.73,3.82 -4.37,6.56 -1.64,2.74 -3.46,4.37 -4.19,4.01 -0.73,-0.36 -1.82,-0.19 -2.19,0.73 -1.64,2.55 -5.1,1.64 -5.1,-1.46 0,-2.18 0.91,-2.91 3.46,-2.91 4.74,0 6.01,-3.82 1.64,-4.92 -1.82,-0.54 -4.55,-0.54 -5.65,0 -1.46,0.54 -2.37,0 -2.37,-1.46 0,-1.27 0.73,-2 1.46,-1.45 0.73,0.55 1.46,0.18 1.46,-0.54 0,-0.72 -0.73,-1.64 -1.82,-2 -2.18,-0.73 -6.01,2.73 -4.92,4.55 0.36,0.73 -0.54,0.91 -2.37,0.54 -2.18,-0.54 -2.73,-0.36 -2.18,0.91 0.73,1.09 0.18,1.27 -1.27,0.73 -1.82,-0.73 -2,-1.27 -0.55,-2.91 0.91,-1.09 1.46,-2.18 1.09,-2.37 -0.36,-0.18 -1.82,-1.27 -3.46,-2.55 -1.64,-1.09 -2.37,-1.46 -1.82,-0.91 1.46,1.82 -1.45,6.74 -4.01,6.74 -1.09,0 -2.19,0.73 -2.19,1.46 0,0.73 0.91,1.46 2.19,1.46 1.28,0 2.19,0.54 2.19,1.45 0,0.73 -0.91,1.09 -2.19,0.54 -1.27,-0.54 -2.19,0 -2.19,0.92 0,0.92 -1.09,2.55 -2.37,3.64 -2.19,1.45 -2.19,2 -0.18,3.82 1.82,1.64 1.82,2.37 0.36,3.82 -1.09,1.09 -2,2.55 -2.37,3.46 -0.36,0.91 -2.37,1.64 -4.55,1.64 -2.18,0 -4.01,0.72 -4.01,1.82 0,1.1 -1.46,1.64 -3.64,1.46 -3.64,-0.36 -6.92,-2.19 -4.01,-2.19 0.91,0 2,-0.91 2.37,-2.18 1.09,-2.73 -0.36,-6.74 -2.18,-5.65 -0.73,0.36 -1.27,0.19 -1.27,-0.73 0,-0.72 -1.27,-1.27 -2.92,-1.27 -1.82,0.19 -2.73,0.92 -2.19,2.19 0.91,2.55 -6.56,9.29 -9.65,8.56 -1.28,-0.36 -2.73,0 -2.92,0.91 -0.18,0.73 -2.73,2.37 -5.28,3.46 -4.56,1.82 -4.92,1.82 -5.65,-0.91 -1.09,-4.19 -2.37,-3.64 -4.19,2 -1.27,4.37 -1.27,4.92 1.82,6.37 2.73,1.28 4.01,0.92 7.11,-2 2,-2 5.47,-3.46 7.65,-3.46 2.18,0 5.65,-0.91 7.83,-2 3.28,-1.64 4.01,-1.64 4.74,0 0.36,1.09 0,2.37 -0.73,2.91 -0.91,0.55 -1.09,2.37 -0.73,4.19 0.55,2.18 0.19,3.64 -1.45,4.19 -1.64,0.73 -2.19,0.18 -1.46,-1.27 1.27,-3.46 -4.55,-2.73 -6.38,0.72 -1.82,3.46 -5.1,3.83 -6.38,0.73 -1.46,-3.64 -4.01,-2.55 -2.91,1.46 0.73,3.09 0.36,3.64 -2.55,3.64 -2.73,0 -2.91,0.36 -1.27,1.45 1.82,1.09 1.64,1.46 -1.09,1.46 -1.82,0 -3.28,0.73 -3.28,1.64 0,0.91 1.27,1.09 2.91,0.54 1.64,-0.54 2.91,-0.36 2.91,0.36 0,0.72 -2,1.82 -4.55,2.37 -4.92,0.91 -12.93,-2.73 -12.93,-5.83 0,-2.73 4.19,-3.64 7.65,-1.82 2.55,1.27 3.46,1.09 4.92,-0.91 2.73,-3.64 -1.64,-8.56 -5.28,-6.19 -1.46,0.91 -2.18,2.18 -1.82,2.91 0.36,0.73 -0.73,0.91 -2.73,0.36 -2.55,-0.73 -4.55,0.36 -7.83,4.01 -5.47,6.01 -7.65,10.56 -3.83,8.56 1.46,-0.72 4.37,-1.27 6.56,-1.27 5.83,0 4.92,5.47 -1.09,7.29 -10.93,3.28 -16.76,5.83 -16.58,7.47 0.36,3.64 -0.18,5.28 -2.37,5.28 -1.27,0 -2.19,0.73 -2.19,1.46 0,0.73 0.73,1.46 1.46,1.46 2.18,0 1.82,5.28 -0.55,7.28 -1.64,1.46 -2.73,1.09 -5.47,-1.64 -2.18,-2.18 -3.46,-2.73 -3.82,-1.64 -0.91,2.73 -3.28,2 -3.28,-1.09 0,-3.46 -1.82,-4.74 -4.92,-3.64 -1.46,0.54 -2.37,2.73 -2.37,6.01 0,4.56 -0.36,5.1 -3.28,4.19 -3.83,-0.92 -6.01,0.18 -7.29,3.64 -1.46,4 0.73,4.55 3.46,0.91 l 2.55,-3.28 -0.91,3.46 c -0.55,2.19 -0.18,4.01 1.09,4.74 1.639999,1.09 1.639999,1.64 -0.73,3.46 -3.46,2.73 -6.19,1.46 -7.47,-2.91 -0.73,-2.73 -1.82,-3.46 -5.46,-3.46 -3.83,0 -4.19,0.36 -2.73,2.18 1.46,1.64 1.46,2.73 0.18,4.01 -2.73,2.73 -2,5.46 1.28,5.46 2.37,0 2.73,0.73 2,2.91 -0.73,2.37 -0.18,2.91 2.92,2.91 3.64,0 3.64,0.19 1.27,2.55 -1.82,1.82 -2.73,2 -3.1,0.73 -0.91,-2.92 -3.28,-2.01 -4.92,1.82 -0.91,2 -2.18,3.64 -2.91,3.64 -1.82,0 -5.46,3.82 -4.55,4.73 0.36,0.36 0.36,2.73 -0.18,4.92 -0.73,3.28 -1.82,4.19 -5.1,4.55 -3.64,0.19 -4.19,-0.18 -3.64,-2.73 0.73,-3.64 -3.28,-5.65 -5.28,-2.73 -2,3.28 -1.64,4.37 3.1,5.83 2.37,0.92 4.37,2.19 4.37,2.92 0,0.73 -0.91,1.09 -2.19,0.54 -1.27,-0.54 -2.18,0 -2.18,1.09 0,1.09 -0.91,2.73 -2.19,3.82 -1.27,0.91 -1.82,2.37 -1.46,3.09 0.36,0.73 -0.36,1.28 -1.82,1.28 -1.46,0 -3.83,2 -5.1,4.37 -1.64,2.91 -3.28,4.01 -4.74,3.46 -1.27,-0.55 -3.1,0.18 -4.01,1.27 -0.91,1.27 -3.1,2.55 -4.74,2.73 -1.82,0.36 -2.91,1.64 -3.1,3.64 0,1.82 -1.27,4.19 -2.55,5.47 -3.1,3.09 -3.1,3.28 1.27,2.55 5.28,-0.91 4.55,2.37 -0.91,4.55 -2.73,1.09 -3.82,2.37 -2.91,2.91 2.19,1.46 2,2.73 -0.91,6.01 -1.46,1.64 -2.55,3.64 -2.73,4.73 0,0.92 -0.18,2.73 -0.36,4.01 -0.18,1.27 -1.46,2.19 -2.73,2.19 -2.18,0 -2.18,0.18 -0.36,1.45 1.82,1.27 1.82,1.46 -0.55,1.46 -2.19,0 -2.37,0.36 -0.91,2.18 1.46,1.82 0.91,2.91 -2.55,6.56 -3.64,3.64 -4.01,4.74 -2.55,6.92 2,2.73 1.27,7.83 -0.91,7.83 -0.73,0 -0.91,0.54 -0.55,1.46 0.55,0.72 -0.36,2 -1.82,2.91 -2,1.09 -2.19,1.82 -0.73,3.28 1.46,1.45 0.91,2.55 -2.1899999,5.1 -2.1900002,1.82 -3.2800002,3.46 -2.5500002,3.46 2.0000002,0 1.4600002,11.84 -0.73,13.12 -0.91,0.54 -1.27,1.82 -0.73,2.73 0.54,0.92 -0.19,3.28 -1.46,5.28 -1.27,2 -2,4.92 -1.64,6.56 0.36,1.64 -0.18,3.64 -1.27,4.56 -1.27000005,1.09 -1.64000005,2.55 -0.91000005,4 0.54,1.27 0.91000005,6.38 0.73000005,11.11 -0.55000005,14.21 -0.55000005,15.67 1.09,17.49 1.09,1.27 0.91,2 -0.36,2.55 -1.46000005,0.55 -1.46000005,1.09 -0.36,2.73 2.19,2.91 3.83,7.47 2.19,6.56 -0.73,-0.36 -1.64,0.91 -2,2.91 -0.36,2 -0.18,4.01 0.36,4.37 0.54,0.36 0.73,2 0.36,3.64 -0.55,1.82 0,2.91 1.09,2.91 1.46,0 1.46,0.36 0.18,1.82 -2.55,2.55 -2.19,6.56 1.09,9.84 1.82,1.82 2.91,4.92 2.91,8.02 0,3.64 0.73,5.1 2.1900002,5.1 1.2699999,0 2.1899999,1.28 2.1899999,2.92 0,1.64 -0.91,2.91 -2,2.91 -2.3700001,0 -4.1900001,4 -2.9100001,6.01 0.36,0.73 1.8200002,1.27 3.1000001,1.27 1.64,0 2,0.92 1.46,3.46 -0.55,2.18 -0.18,3.82 0.91,4.19 1.46,0.54 1.46,1.09 -0.18,3.1 -1.82,2.18 -1.64,2.36 1.82,2.36 4.55,0 4.73,0.55 0.91,5.83 -2.19,3.09 -2.37,4.37 -1.09,4.92 1.09,0.36 0.91,0.73 -0.73,0.91 -4.0099999,0.19 -0.91,6.56 3.28,6.56 1.82,0 3.64,0.91 4.01,1.82 0.36,0.91 0,1.82 -0.54,1.82 -0.54,0 -1.46,2.91 -1.64,6.38 -0.36,5.46 0,6.56 2.91,7.28 4.19,1.09 5.1,0 3.1,-3.28 -1.27,-2 -1.27,-2.91 0,-3.28 3.1,-1.09 6.92,4.55 6.92,9.84 0,3.1 0.55,4.74 1.46,4.37 0.73,-0.54 1.46,-0.18 1.46,0.73 0,0.91 1.46,1.46 3.28,1.09 1.82,-0.18 3.28,0.19 3.28,1.09 0,0.73 -1.46,1.27 -3.28,1.09 -1.82,-0.19 -3.28,0.18 -3.28,1.09 0,0.91 1.09,1.46 2.37,1.46 1.46,0 2,0.73 1.64,2 -0.55,1.27 0.55,2.37 2.73,2.91 4.19,1.09 4.55,3.1 0.91,4.37 -2.37,0.91 -2.37,1.09 0,2.91 1.46,1.09 3.1,3.82 3.64,6.01 0.55,2.18 2.37,4.73 4.01,5.64 3.46,2 5.1,4.01 4.19,5.47 -0.36,0.73 0.36,1.09 1.64,1.09 1.64,0 2.19,1.46 2.19,4.74 0,2.55 0.91,8.56 2.19,13.12 2.73,10.39 2.91,9.66 -1.27,9.66 -2.73,0 -3.46,0.73 -3.28,3.64 0.18,2.19 1.09,3.64 2.55,3.64 3.1,0 5.83,2.92 5.83,6.01 0,3.46 6.38,7.47 9.84,6.38 1.64,-0.55 3.46,0 4.55,1.27 1.09,1.27 2.55,2.18 3.46,2.18 0.91,0 3.1,2.55 4.74,5.47 4.92,8.56 13.479999,17.85 16.58,17.85 2.91,0 12.57,8.56 16.58,14.76 1.46,2.18 4.37,4.37 6.74,4.92 2.37,0.55 4.19,1.64 4.19,2.37 0,1.64 6.2,0 7.47,-2 0.55,-0.91 3.28,-0.91 7.47,0 5.65,1.27 7.47,0.91 12.93,-2 3.46,-1.82 5.28,-3.46 3.82,-3.46 -2.73,0 -3.46,-2.18 -1.09,-3.64 0.73,-0.54 1.46,-0.19 1.46,0.73 0,2.73 4.19,1.64 6.38,-1.46 1.27,-1.64 2.55,-2.37 3.1,-1.64 0.54,0.73 0.18,1.82 -0.55,2.37 -2,1.27 -1.82,5.1 0,5.1 0.91,0 1.09,-0.54 0.73,-1.27 -0.36,-0.73 0.18,-1.64 1.46,-2.18 1.27,-0.55 1.82,-1.46 1.46,-2.19 -0.36,-0.72 0.18,-2.18 1.46,-3.28 1.46,-1.27 2,-3.28 1.46,-6.01 -0.36,-2.19 -0.36,-4.01 0.36,-4.01 0.72,0 2,-1.82 2.91,-4.01 1.46,-3.28 1.46,-4.19 -0.55,-5.65 -1.27,-0.91 -2.37,-2.18 -2.37,-2.55 0,-1.82 5.47,-0.91 7.29,1.27 1.09,1.27 2.73,2 3.64,1.46 1.09,-0.36 2.73,0.36 3.64,1.64 1.64,1.82 1.46,2.55 -0.73,4.19 -2,1.46 -2.18,2.55 -1.09,5.83 1.82,4.74 0.91,6.74 -2.55,5.47 -2.18,-0.92 -2.18,-0.73 0.18,1.64 4.01,4 2.73,8.93 -2.18,8.74 -3.1,0 -4.01,0.54 -4.01,2.91 0,2.19 0.36,2.55 1.82,1.09 2.91,-2.91 4.37,-2 3.46,1.82 -0.55,2.19 -0.36,3.64 0.55,3.64 0.73,0 1.46,0.92 1.46,1.82 0,1.82 -9.11,8.38 -11.66,8.38 -2,0 -1.82,1.09 1.09,6.01 1.82,3.09 3.28,4.19 5.47,3.64 1.82,-0.55 4.37,0.54 7.11,3.28 3.82,3.64 4.19,3.82 6.01,1.45 2,-2.73 7.47,-3.64 6.01,-1.09 -0.55,0.72 0,1.45 1.27,1.45 1.27,0 2.55,-0.73 3.1,-1.45 0.55,-0.92 2.37,-1.09 4.01,-0.55 1.82,0.55 4.19,0.92 5.65,0.92 3.28,-0.19 6.01,3.46 5.1,6.74 -0.55,2.18 0.18,2.91 4.19,3.64 2.82,0.54 6.31,3.02 8.4,5.43 v 0 -2.76 l 4.87,-4.87 c 0.05,-0.06 0.17,-0.17 0.17,-0.17 l -0.17,0.17 c -0.12,0.17 0.38,-0.01 5.51,-3.43 7.12,-4.74 0,0 2.08,-3.26 2.07,-3.26 0,0 4.45,-10.66 4.45,-10.66 4.42,-16.61 4.42,-16.61 l 0.7,-7.02 c 0,-6.74 -0.73,-8.38 -4.74,-12.93 -4.37,-4.92 -5.1,-5.1 -8.02,-3.28 -2.19,1.27 -3.28,3.46 -3.28,6.56 0,3.46 -0.55,4.37 -2.55,4.37 -3.28,-0.18 -6.19,-2 -6.19,-3.82 0,-0.73 0.73,-0.91 1.82,-0.36 1.27,0.73 1.09,0.36 -0.18,-1.45 -1.09,-1.27 -3.1,-2.55 -4.37,-2.55 -1.82,0 -1.82,-0.36 -0.55,-1.82 2.55,-2.55 2.19,-5.46 -0.54,-5.46 -1.64,0 -2.19,-0.92 -1.64,-3.1 0.73,-2.55 0.18,-2.91 -2.18,-2.37 -3.1,0.92 -8.56,-2.91 -8.56,-6.01 0,-2.91 -6.92,-5.65 -9.11,-3.46 -1.46,1.46 -0.54,2.91 3.64,6.74 5.65,5.28 6.56,7.28 3.64,8.38 -1.09,0.36 -1.27,1.27 -0.55,2 0.73,0.73 2.19,-0.18 3.46,-2 2.91,-4.37 5.1,-4.19 4.55,0.73 -0.36,2.91 -1.27,4.01 -3.28,3.82 -1.64,-0.18 -3.46,0.55 -4.37,1.64 -1.27,1.64 -2.37,1.64 -5.83,0 -2.37,-1.09 -3.46,-2 -2.37,-2 1.82,0 1.64,-2 -0.73,-8.38 -0.36,-0.91 0.54,-2 2,-2.37 2.37,-0.54 2.37,-0.73 0.18,-0.91 -1.46,-0.19 -2.55,-1.27 -2.55,-2.55 0,-1.46 -0.73,-2 -2.19,-1.46 -2.91,1.09 -4.37,-1.64 -3.83,-7.1 0.36,-3.83 -0.73,-5.47 -8.02,-11.66 -4.55,-4.01 -10.93,-8.93 -14.03,-11.11 -3.1,-2.18 -6.92,-5.65 -8.38,-8.02 -3.28,-5.28 -9.84,-11.48 -15.12,-14.21 -3.46,-1.82 -19.86,-19.86 -28.06,-30.79 -13.3,-17.86 -28.24,-43.36 -28.24,-48.28 0,-1.09 -1.64,-6.74 -3.64,-12.57 -3.64,-10.57 -7.47,-28.42 -8.56,-40.08 -0.36,-3.46 -1.46,-10.02 -2.37,-14.58 -1.82,-8.56 -2.37,-52.1 -1.09,-85.81 0.73,-19.31 0.36,-18.4 12.93,-32.61 4.369999,-5.1 8.75,-10.57 9.84,-12.39 2,-3.83 4.92,-20.59 4.01,-23.14 -0.55,-1.64 1.09,-4.55 11.3,-19.68 1.27,-2 2.91,-4.01 3.64,-4.55 0.73,-0.54 3.83,-4.55 7.11,-8.93 6.92,-9.65 17.12,-20.22 23.86,-24.77 6.01,-4.01 21.13,-12.03 27.15,-14.03 3.83,-1.45 22.77,-12.93 49.55,-30.06 17.13,-11.11 25.14,-13.66 50.83,-16.22 3.28,-0.36 12.03,-1.64 19.68,-2.91 8.02,-1.27 23.87,-2.37 37.9,-2.37 22.23,-0.18 25.32,0.19 41.54,4.37 9.66,2.37 25.32,7.1 34.98,10.38 18.04,6.01 37.89,12.03 48.1,14.58 11.3,2.73 17.31,7.83 52.65,43.91 7.47,7.65 13.3,15.12 15.49,19.86 2,4.19 4.92,8.74 6.56,10.2 1.64,1.45 4.92,6.19 7.1,10.57 2.19,4.37 6.74,11.48 10.39,15.48 12.93,15.13 25.32,43.18 29.33,66.14 0.91,5.28 1.82,17.67 2.19,27.69 0.36,11.48 1.46,21.32 2.91,26.78 1.46,4.74 2.73,10.57 3.1,12.94 0.36,2.37 2,10.75 3.64,18.4 5.1,22.96 5.1,23.87 4.19,30.79 -0.55,3.64 -0.36,7.29 0.36,8.2 0.73,2.55 0.19,3.64 -2,4.73 -2,1.09 -3.1,3.1 -3.1,6.01 0,2.37 -1.09,6.38 -2.37,8.75 -2,4 -2,4.73 0,8.01 2.55,3.83 1.82,6.38 -1.46,6.38 -2.55,0 -5.1,4.55 -5.1,8.74 0,1.82 -2.18,7.47 -4.74,12.94 -2.55,5.28 -4.55,10.2 -4.37,10.75 0.55,2 -4.01,11.66 -6.74,14.03 -4.01,3.64 -9.84,12.39 -9.29,14.03 0.18,0.91 -5.1,7.1 -11.66,13.84 -7.65,7.83 -11.84,13.12 -11.48,14.76 0.36,1.82 -0.18,2.37 -1.64,1.64 -1.27,-0.54 -3.64,0.19 -5.28,1.27 -2.73,1.82 -2.73,2.19 -0.73,3.1 2.73,1.09 2.19,4.55 -0.91,4.74 -1.09,0 -3.83,0.18 -6.01,0.36 -2.55,0.18 -4.01,1.09 -4.01,2.36 0,1.27 -0.91,2.19 -2.19,2.19 -1.28,0 -2.19,0.54 -2.19,1.45 0,0.73 -2.73,3.28 -6.19,5.83 -3.46,2.36 -9.11,7.1 -12.75,10.2 -6.74,6.2 -8.2,6.74 -11.48,4.56 -1.27,-0.73 -3.46,-0.55 -5.83,0.72 -2.19,1.09 -4.74,2 -5.65,2 -1.09,0 -1.64,1.09 -1.46,2.37 0.19,1.27 -0.36,2.73 -1.46,3.1 -0.91,0.36 -1.82,0 -1.82,-0.92 0,-3.28 -5.83,-1.64 -6.74,2 -1.28,5.1 -4.74,7.65 -5.83,4.55 -0.55,-1.27 -2.19,-2.36 -3.83,-2.36 -2,0 -2.73,0.72 -2,2.36 0.91,2.37 -2,6.38 -4.56,6.38 -0.73,0 -2.55,1.27 -3.82,2.73 -2.37,2.73 -2.37,2.91 0.54,4.37 5.28,2.73 3.83,6.2 -2.37,5.65 -4.01,-0.36 -5.47,-1.09 -5.28,-2.91 0.18,-1.64 -1.27,-2.73 -4.19,-3.28 -2.73,-0.54 -4.55,-2 -5.1,-4.01 -0.73,-2.55 -1.64,-2.91 -5.28,-2.18 -2.55,0.54 -6.74,1.09 -9.66,1.45 -5.37,0.69 -16.46,3.05 -22.34,4.63 0.01,1.34 -1.69,1.1 -1.46,6.41 0.3,6.82 0.68,1.43 1.87,12.7 1.18,11.27 6.85,5.48 6.85,5.48 0,0 -1.9,1.72 -0.12,8.84 1.78,7.11 -1.8,-0.31 -0.02,8.58 1.78,8.9 1.03,-2.76 2.51,6.73 1.48,9.48 -0.43,6.32 -0.43,6.32 l 1.49,5.37 c 0,0 0.08,0.06 3.05,2.21 0.53,-0.02 1.13,-0.08 1.87,-0.21 2.37,-0.36 4.92,-1.45 5.65,-2.37 2,-2.18 10.93,-5.28 15.48,-5.28 2,0 5.47,-1.27 7.84,-2.91 2.55,-1.64 5.65,-2.55 7.47,-2 1.82,0.36 3.64,0 4.19,-0.91 0.55,-0.91 2.18,-1.27 3.64,-0.73 2.37,0.73 2.55,0.19 2.19,-4 -0.18,-2.73 0.36,-6.01 1.46,-7.47 1.64,-2.36 2.55,-2.36 7.11,-0.72 4.01,1.45 5.65,1.45 7.29,0.18 1.09,-0.91 3.1,-1.27 4.56,-0.91 1.46,0.54 2.37,0.18 2.37,-0.91 0,-0.92 0.73,-1.46 1.82,-1.09 1.09,0.36 4.19,-0.54 7.29,-1.82 4.55,-2 7.11,-2.19 14.39,-1.09 8.93,1.27 9.11,1.27 13.12,-3.1 2.37,-2.55 5.83,-4.92 7.83,-5.46 2,-0.55 3.64,-1.46 3.64,-2 0,-0.54 4.19,-3.64 9.11,-6.92 9.29,-6.01 24.23,-19.86 39.72,-36.98 12.94,-14.39 14.03,-15.49 14.39,-17.86 0.19,-1.09 4.56,-7.29 9.84,-13.66 5.28,-6.38 12.57,-16.03 16.21,-21.68 3.64,-5.65 8.2,-11.3 9.84,-12.75 1.64,-1.46 3.1,-3.64 3.1,-5.1 0,-1.46 0.18,-5.46 0.36,-9.11 0.18,-4.01 1.46,-8.38 3.28,-10.93 4.19,-6.01 8.02,-17.67 9.84,-29.15 0.36,-2.37 1.64,-6.92 3.1,-10.02 1.27,-3.1 2,-6.01 1.64,-6.38 -0.36,-0.37 0.91,-3.64 3.1,-7.1 2.55,-3.83 4.01,-9.11 4.55,-15.12 0.36,-5.1 1.27,-9.84 2,-10.57 1.46,-2 5.83,-20.41 5.83,-25.15 0,-2.18 1.09,-6.92 2.37,-10.57 1.82,-5.1 2.37,-13.48 2.55,-36.43 0.36,-42.09 -1.82,-62.68 -8.56,-81.62 z m -641.48,33.52 c 0.55,-0.73 1.64,-1.46 2.37,-1.46 0.73,0 1.09,0.73 0.55,1.46 -0.54,0.73 -1.64,1.46 -2.37,1.46 -0.73,0 -1.09,-0.73 -0.55,-1.46 z m -2.18,29.15 c 0.91,0 1.09,0.73 0.73,1.46 -0.55,0.72 -1.28,1.45 -1.46,1.45 -0.3599999,0 -0.7299999,-0.73 -0.7299999,-1.45 0,-0.72 0.7299999,-1.46 1.4599999,-1.46 z M 6.5109999,347.8 c 0.91,-0.54 2.0000002,-0.18 2.5500002,0.73 1.2699999,2.18 0.36,2.91 -2.0000002,1.46 -1.46,-0.91 -1.64,-1.64 -0.54,-2.19 z m 1.64,28.24 c -0.73,0 -1.46,-0.54 -1.46,-1.45 0,-0.73 0.73,-1.82 1.46,-2.19 0.7300002,-0.54 1.4600002,0.19 1.4600002,1.46 0,1.09 -0.73,2.18 -1.4600002,2.18 z M 10.331,368.76 c -0.3599999,0 -1.0899999,-0.73 -1.4499999,-1.46 -0.5500002,-0.73 -0.19,-1.46 0.73,-1.46 0.9199999,0 1.4599999,0.73 1.4599999,1.46 0,0.73 -0.36,1.46 -0.73,1.46 z m 1.28,-11.3 c -1.09,0.73 -1.9999999,2 -1.9999999,3.28 0,1.09 -0.73,2.37 -1.4600002,2.91 -0.91,0.54 -1.27,-0.91 -0.91,-3.64 0.36,-4.01 4.1900001,-8.56 7.1100001,-8.74 1.64,0 -0.73,4.92 -2.73,6.19 z m 3.28,-32.98 c -1.09,-0.36 -2.73,0 -3.46,0.92 -0.73,0.91 -1.9999999,3.64 -2.9099999,6.19 q -1.4600002,4.37 -2.0000002,0.72 c -0.36,-2 0,-5.28 0.54,-7.47 0.91,-2.91 2.1900002,-3.82 5.4700001,-3.82 2.73,0 4.37,0.73 4.37,2.18 0,1.27 -0.91,1.82 -2,1.27 z m 206.96,255.25 c 0.36,1.09 0.36,2.73 0,3.64 -0.36,0.91 -0.73,0.18 -0.73,-1.82 0,-2 0.36,-2.91 0.73,-1.82 z m -43.73,-40.45 c 0.73,0 1.46,2 1.64,4.37 0.18,2.37 0,4.37 -0.36,4.37 -0.36,0 -0.73,-0.92 -0.73,-2 0,-1.08 -0.36,-3.1 -0.91,-4.37 -0.54,-1.27 -0.36,-2.37 0.36,-2.37 z M 98.500999,144.3 C 97.771,144.3 97.041,143.57 97.041,142.85 c 0,-0.92 0.73,-1.28 1.459999,-0.73 0.73,0.54 1.46,1.27 1.46,1.45 0,0.36 -0.73,0.73 -1.46,0.73 z M 137.311,125.72 c -0.55,-0.92 0,-2.55 1.09,-3.46 1.09,-1.09 2.37,-2.91 2.73,-4.19 0.73,-1.82 0.91,-1.64 1.82,0.54 1.28,3.1 -4.01,9.66 -5.65,7.11 z m 6.19,-22.41 c 0.18,-0.73 0.73,-1.27 1.46,-1.27 0.73,0 1.64,0.54 2.19,1.27 0.36,0.73 -0.18,1.27 -1.46,1.27 -1.09,0 -2.19,-0.54 -2.19,-1.27 z m 4.55,7.47 c -2,0 -3.28,-2.55 -1.64,-3.46 0.73,-0.55 1.64,0 2.18,1.27 0.55,1.27 0.18,2.18 -0.55,2.18 z m 55.39,-37.9 c -0.91,0 -1.27,-0.72 -0.73,-1.45 0.55,-0.73 1.28,-1.46 1.46,-1.46 0.36,0 0.73,0.73 0.73,1.46 0,0.73 -0.73,1.45 -1.46,1.45 z m 15.12,-18.4 c -3.64,1.45 -4.92,1.09 -4.92,-1.28 0,-1.27 1.27,-2.18 2.73,-2.18 3.64,0 5.1,2.37 2.19,3.46 z m 24.41,6.74 c -1.46,0 -3.1,-1.64 -3.1,-3.1 0,-2.18 2.55,-1.45 3.46,0.92 0.55,1.27 0.36,2.18 -0.36,2.18 z m 94.01,-37.89 c -1.09,2.73 -2.18,3.82 -3.09,2.91 -0.91,-0.92 -2.37,-0.55 -3.83,0.91 -3.1,2.73 -4.74,0.73 -3.46,-4.37 0.73,-2.91 1.82,-3.64 6.38,-3.64 q 5.47,0 4.01,4.19 z m 47.92,-11.66 c -0.36,-0.73 -0.18,-1.64 0.73,-2.1800001 0.73,-0.55 1.46,0.18 1.46,1.2700001 0,2.55 -0.91,2.91 -2.19,0.91 z m 133.36,52.47 c -0.73,0 -1.46,-0.72 -1.46,-1.45 0,-0.73 0.73,-1.46 1.46,-1.46 0.73,0 1.46,0.73 1.46,1.46 0,0.73 -0.73,1.45 -1.46,1.45 z m -62.67,549.48 c -0.73,0 -1.46,-1.09 -1.46,-2.19 0,-1.27 0.73,-1.82 1.46,-1.45 0.73,0.54 1.46,1.45 1.46,2.18 0,0.91 -0.73,1.46 -1.46,1.46 z"
     id="path319"
     style="fill:url(#linear-gradient-6)" />
  <g
     id="g391"
     transform="translate(-253.679)">
    <g
       id="g345">
      <path
         class="cls-3"
         d="m 730.94,385.24 c -0.18,-0.66 -0.51,-1 -1,-1 -0.98,2.39 2.1,2.57 1,1 z"
         id="path321" />
      <path
         class="cls-3"
         d="m 708.86,397.41 c -0.17,-0.24 -0.33,-0.48 -0.5,-0.71 -0.21,-0.3 -0.42,-0.59 -0.63,-0.89 0.38,0.53 0.75,1.07 1.13,1.6 z"
         id="path323" />
      <path
         class="cls-3"
         d="m 559.22,521.14 c 0.47,1.42 2.33,-0.37 2.55,-0.33 -0.44,0.1 -0.89,0.12 -1.35,0.06 -0.5,-0.19 -0.9,-0.1 -1.2,0.27 z"
         id="path325" />
      <path
         class="cls-3"
         d="m 556.41,515.17 c -0.61,-0.64 -1.13,-0.71 -1.53,-0.2 0.52,1.05 1.44,0.71 2.04,0.92 -0.17,-0.24 -0.33,-0.48 -0.5,-0.71 z"
         id="path327" />
      <path
         class="cls-3"
         d="m 552.21,517.64 c -0.47,-0.5 -1.01,-0.8 -1.62,-0.9 -0.29,3.05 2.6,2.3 1.62,0.9 z"
         id="path329" />
      <path
         class="cls-3"
         d="m 694.03,380.07 c -0.33,-0.75 -0.88,-0.92 -1.67,-0.51 -2.29,1.95 1.2,3.2 1.67,0.51 z"
         id="path331" />
      <path
         class="cls-3"
         d="m 551.42,513.23 c 1.56,0.62 -0.22,2.61 0.19,3.21 0.62,0.88 1.26,-0.82 2.16,1.08 0.18,1.16 0.66,2.15 1.43,2.96 1.04,1.37 1.66,-0.43 2.86,1.28 1.44,-1.24 0.89,-2.4 -0.7,-3.61 -0.59,-0.45 -4.75,-4.87 -2.33,-4.86 2.9,0.01 5.31,5.33 8.76,5.37 1.77,0.02 4.04,-0.7 5.11,1.76 0.7,1.59 -0.42,3.59 0.29,5.52 0.71,1.92 2.17,3.51 3.31,5.12 0.78,1.11 1.52,2.12 2.61,1.19 2.93,-2.51 5.91,-4.96 8.88,-7.4 12.48,-10.22 25.13,-20.17 37.64,-30.34 5.93,-4.82 12.06,-9.36 17.86,-14.37 4.07,-3.51 7.95,-6.44 12.58,-7.84 0.58,-0.18 0.38,-2.73 0.35,-3.31 1.39,1.98 21.9,-18.16 22.6,-19.35 0.89,-1.53 4.67,-3.08 6.17,-4.3 1.93,-1.56 4.59,-0.99 6.02,-3.21 1.97,-3.07 4.75,-3.8 7.33,-6.03 1.23,-1.06 5.31,-2.32 5.42,-3.53 0.3,-3.33 8.14,-7.81 10.08,-9.41 6.04,-4.97 12.07,-9.96 18.17,-14.84 2.68,-2.14 5.43,-4.17 8.19,-6.16 1.08,-0.77 2.61,-0.92 0.96,-1.89 0.67,0.4 11.58,-9.95 12.97,-11.15 1.63,-1.41 0.47,-2.7 2.15,-4.15 1.19,-1.02 -0.6,-1.1 -0.21,-2.49 0.48,-1.73 2.35,0.36 2.86,-0.08 2.22,-1.91 -6.19,-6.79 -7.12,-6.61 -1.26,0.25 3.44,5.75 3.22,6.09 -0.92,1.43 -6.87,-2.4 -6.22,-3.51 -0.79,1.36 0.14,4.13 0.77,5.49 -0.92,-0.8 -2.39,-2.07 -3.53,-2.34 -2.31,-0.54 -0.7,2.28 -2.23,2.59 -3.16,0.64 -1.05,2.19 -2.51,3.46 -0.08,-0.15 -0.69,-1.34 -1.09,-2.06 0.74,2.23 -6.88,4.25 -7.88,4.45 -1.33,0.27 -0.77,2.18 -0.84,3.02 -0.08,0.91 -3.35,0.09 -3.79,0.18 -2.41,0.48 -1.67,4.07 -4.24,1.41 0.29,0.3 0.85,3.43 -0.7,2.93 -0.85,-0.27 -4.74,-2.44 -5.43,-1.85 1.16,1.24 1.77,8.24 -0.17,7.53 -0.67,-0.25 -0.77,-2.79 -2.22,-3.03 -1.01,-0.16 -0.14,2.14 -0.32,2.51 -0.17,0.33 -7.33,-6.36 -3.87,-9.35 0.72,-0.62 -1.68,-6.55 1.85,-3.81 0.9,0.7 4.22,6.28 4.89,3.66 1.26,-4.91 1.45,-3.67 3.67,-0.52 -0.3,-0.42 -1.19,-4.63 -1.34,-5.43 -0.46,-2.31 -1.53,-1.78 -2.05,-3.05 -0.46,-1.13 2.06,-1.19 2.55,-0.82 1.38,1.05 2.4,3.06 3.41,4.5 0.21,-2.3 1.19,-0.05 1.99,-1.29 0.37,-0.58 -1.8,-2.81 -2.15,-3.16 0.82,0.59 1.48,0.53 1.99,-0.19 0.01,-1.49 -2.59,-1.58 -0.53,-3.36 0.5,-1.21 0.61,-1.79 1.85,-1.59 -0.87,-1.39 -4,-3.89 -3.33,-5.85 0.63,-1.84 3.22,0.08 1.28,-2.7 -1.74,-2.47 -4.69,-6.04 -7.5,-4.92 -2.1,0.84 -1.91,0.77 -1.14,2.64 0.95,2.31 -0.95,3.4 -1.29,-0.61 -2.33,-3.31 -3.72,3.15 -3.06,4.08 -1.07,-1.52 -5.09,-3.03 -2.97,-0.01 1.59,2.25 -3.07,0.36 -3.46,0.7 0.52,1.12 2.78,2.33 2.94,3.15 0.19,0.97 -6.84,0.31 -7.61,0.63 -2.37,0.98 0.1,2.46 -1.1,3.49 -0.3,-0.5 -0.7,-0.93 -1,-1.43 -1.52,1.31 2.44,5.45 -0.46,4.98 -1.95,-0.32 -0.05,2.33 -0.84,3.02 -2.61,-1.29 -2.46,-3.28 -5.47,-2.16 -0.99,0.86 -2.43,1.79 -2.58,3.37 -0.22,2.42 -1.13,0.12 -1.91,0.79 -0.95,0.82 0.47,3.2 -2.28,1.68 -1.11,-0.18 -4.23,2.2 -2.16,3.01 3.45,1.36 1.5,3.48 -1.11,1.72 -1.26,-0.85 -1.67,-2.76 -3.26,-1.38 -0.57,0.49 -1.44,2.17 -0.84,3.02 -0.25,0.83 -1.84,0.94 -1.28,2.29 0.22,0.53 1.76,2.16 1.18,2.66 -1.37,1.18 -3.4,-2.66 -2.4,-3.94 -1.43,1.17 -6.4,9.01 -8.35,6.05 -0.91,0.79 -0.53,2.22 0.15,3.02 -1.32,-1.53 -3.7,-0.5 -4.85,0.8 -1.4,1.59 0.82,4.55 -0.5,5.33 -0.74,0.44 -4.02,2.63 -4.93,2.68 -0.8,0.05 -1,-0.81 -2.02,-0.5 -4.9,1.48 -10.87,7.06 -12.69,12.39 0.21,-2.29 -6.53,3.34 -6.54,3.35 -2.21,0.45 -2.89,2.01 -3.64,4.2 -0.49,1.44 -1.56,0.48 -2.79,1.06 -2.44,1.16 -4.88,4.2 -7.19,5.72 -0.07,0.05 -5.22,4.61 -6.66,4.59 0.66,0.73 2.01,2.03 2.24,2.36 -2.29,-3.26 -11.8,2.85 -8.54,6.13 -1.75,1.51 -1.5,-0.1 -2.98,1.8 -1.37,1.76 -3.67,4.17 -5.92,4.34 -2.25,0.17 -2.49,2.81 -3.61,2.79 -1.08,-0.03 -3.48,-1.41 -3.7,0.94 0.12,0.85 0.43,1.6 0.93,2.26 -0.03,0.35 -6.5,-0.89 -6.94,-0.92 -1.78,-0.14 -3.13,2.65 -3.55,4.17 -0.18,1.98 -1.91,1.93 -2.6,2.92 -0.65,0.94 1.26,1.67 -0.44,3.13 0.32,-0.28 -3.73,-0.21 -3.73,-0.22 -0.65,-0.93 -2.76,1.63 -3.28,1.83 -0.7,0.37 -1.27,0.91 -1.71,1.62 -0.78,0.12 -1.52,0 -2.23,-0.36 -0.17,0.15 0.51,2.64 0.14,2.26 -0.23,-0.31 -0.46,-0.62 -0.69,-0.93 -0.38,-0.21 -0.52,-0.24 -0.54,-0.18 -2.69,-0.38 -1.42,9.88 0.28,9.14 -1.85,0.8 -2.96,0.69 -4.74,2.22 -0.82,0.7 -4.37,0.93 -4.57,1.23 -0.8,1.15 1.73,4.04 -0.31,4.39 -1.11,0.2 -2.31,-1.46 -2.77,-2.45 -1.22,1.05 0.38,5.11 1.78,5.34 1.21,0.2 1.63,1.91 2.31,3.24 -1.44,-1.82 -4.29,-4.12 -5.85,-3.1 -0.67,0.44 3.38,3.37 2.27,5.14 -0.96,1.53 -5.22,0.71 -5.58,2.4 -0.05,0.24 2.42,0.49 2.7,0.47 0.49,-0.42 0.06,7.11 -2.07,4.08 0.31,-0.17 1.68,-1.05 1.36,-1.51 -1.56,-2.22 -3.86,1.75 -0.69,3.51 1.38,0.76 1.94,-0.43 3.05,0 z"
         id="path333" />
      <path
         class="cls-3"
         d="m 736.22,385.14 c 0.06,0.09 0.13,0.23 0.22,0.37 -0.04,-0.12 -0.12,-0.25 -0.22,-0.37 z"
         id="path335" />
      <path
         class="cls-3"
         d="m 611.03,444.71 c -0.03,0.35 0.12,0.48 0.37,0.48 -0.23,-0.25 -0.38,-0.43 -0.37,-0.48 z"
         id="path337" />
      <path
         class="cls-3"
         d="m 736.1,384.98 c 0.05,0.05 0.07,0.11 0.11,0.16 -0.05,-0.08 -0.09,-0.14 -0.11,-0.16 z"
         id="path339" />
      <path
         class="cls-3"
         d="m 579.4,462.11 c 0.17,0.24 0.33,0.48 0.5,0.71 -0.38,-0.53 -0.75,-1.07 -1.13,-1.6 0.21,0.3 0.42,0.59 0.63,0.89 z"
         id="path341" />
      <path
         class="cls-3"
         d="m 573.78,458.51 c 0.6,0.38 0.89,0.93 0.87,1.63 0.75,0.66 2.3,-1.91 3.62,0.36 -0.6,-1.11 -1.79,-2.66 -3,-2.86 -0.05,0 -3.92,-0.73 -2.77,0.9 0.08,0.12 1.38,0.04 1.27,-0.04 z"
         id="path343" />
    </g>
    <g
       id="g369">
      <path
         class="cls-3"
         d="m 592.44,515.46 c 0.53,-0.41 0.74,-0.84 0.65,-1.31 -2.21,-0.04 -1.75,2.91 -0.65,1.31 z"
         id="path347" />
      <path
         class="cls-3"
         d="m 577.82,499.26 c 0.17,-0.24 0.34,-0.49 0.5,-0.73 0.21,-0.3 0.42,-0.61 0.63,-0.91 -0.38,0.55 -0.75,1.1 -1.13,1.65 z"
         id="path349" />
      <path
         class="cls-3"
         d="m 443.92,404.66 c -1.1,0.96 0.77,2.04 0.78,2.26 -0.17,-0.38 -0.28,-0.79 -0.32,-1.24 0.06,-0.53 -0.09,-0.88 -0.47,-1.02 z"
         id="path351" />
      <path
         class="cls-3"
         d="m 448.41,399.83 c 0.42,-0.81 0.37,-1.31 -0.13,-1.51 -0.78,0.88 -0.32,1.61 -0.37,2.24 0.17,-0.24 0.34,-0.49 0.5,-0.73 z"
         id="path353" />
      <path
         class="cls-3"
         d="m 445.5,396.81 c 0.33,-0.62 0.47,-1.24 0.44,-1.84 -2.63,0.85 -1.42,3.28 -0.44,1.84 z"
         id="path355" />
      <path
         class="cls-3"
         d="m 589.51,479 c 0.56,-0.58 0.6,-1.17 0.1,-1.75 -2.1,-1.43 -2.47,2.3 -0.1,1.75 z"
         id="path357" />
      <path
         class="cls-3"
         d="m 449.06,394.45 c -0.21,1.69 -2.25,0.75 -2.67,1.36 -0.62,0.9 0.94,0.87 -0.49,2.42 -0.94,0.6 -1.68,1.41 -2.21,2.43 -0.95,1.48 0.69,1.4 -0.51,3.15 1.33,0.89 2.2,-0.05 2.9,-1.98 0.26,-0.72 3.17,-6.24 3.64,-3.97 0.56,2.72 -3.44,6.93 -2.8,10.17 0.33,1.66 1.38,3.52 -0.48,5.44 -1.2,1.24 -3.11,0.93 -4.6,2.3 -1.48,1.37 -2.53,3.33 -3.67,4.98 -0.78,1.14 -1.48,2.21 -0.49,2.88 2.69,1.82 5.35,3.7 7.99,5.6 11.08,7.93 21.97,16.11 33.02,24.09 5.24,3.78 10.27,7.85 15.64,11.44 3.77,2.52 7.01,5.08 9.09,8.89 0.26,0.48 2.38,-0.65 2.86,-0.89 -1.4,2.03 19.64,13.83 20.78,14.04 1.47,0.27 3.52,3.24 4.84,4.19 1.7,1.23 1.74,3.93 3.9,4.45 2.98,0.72 4.14,3.05 6.53,4.65 1.14,0.76 3.01,4.12 4.05,3.78 2.87,-0.94 8.19,4.75 9.92,5.98 5.38,3.82 10.78,7.64 16.1,11.55 2.33,1.72 4.59,3.55 6.81,5.41 0.87,0.72 1.29,2.11 1.79,0.2 -0.2,0.77 10.68,7.18 11.97,8.04 1.51,1.01 2.37,-0.55 3.92,0.49 1.1,0.73 0.81,-0.97 2.06,-1.12 1.55,-0.18 0.16,2.33 0.63,2.65 2.05,1.37 4.51,-8.3 4.17,-9.09 -0.46,-1.08 -4.17,5.34 -4.5,5.26 -1.38,-0.33 0.67,-7.31 1.73,-7.12 -1.3,-0.24 -3.46,1.66 -4.48,2.74 0.49,-1.15 1.28,-3.01 1.28,-4.17 0,-2.36 -2.06,0.18 -2.62,-1.14 -1.16,-2.73 -2.06,-0.17 -3.41,-1.08 0.11,-0.13 0.99,-1.14 1.52,-1.78 -1.73,1.51 -4.94,-4.88 -5.31,-5.74 -0.49,-1.15 -1.99,0.08 -2.71,0.32 -0.79,0.26 -0.73,-3.11 -0.9,-3.49 -0.88,-2.07 -3.76,-0.07 -2.03,-3.45 -0.2,0.39 -2.72,2.06 -2.61,0.43 0.06,-0.9 1.12,-5.34 0.49,-5.76 -0.82,1.54 -6.6,4.69 -6.38,2.61 0.07,-0.72 2.2,-1.75 2.11,-3.19 -0.06,-1.01 -1.83,0.66 -2.18,0.62 -0.31,-0.04 3.92,-9.21 7.12,-7.06 0.67,0.45 5.19,-3.98 3.58,0.33 -0.41,1.1 -4.46,6.26 -2.13,5.93 4.39,-0.63 3.38,0 1.16,3.24 0.3,-0.43 3.67,-2.82 4.31,-3.26 1.86,-1.28 1.2,-2.09 2.17,-3.04 0.86,-0.85 1.41,1.49 1.19,2.08 -0.61,1.68 -2.11,3.37 -3.12,4.85 1.98,-0.65 0.28,1.1 1.48,1.39 0.57,0.14 2.01,-2.72 2.24,-3.17 -0.33,0.98 -0.15,1.58 0.55,1.79 1.26,-0.53 0.82,-3.01 2.73,-1.73 1.12,0.02 1.63,-0.09 1.71,1.14 1,-1.33 2.49,-5.18 4.27,-5.27 1.67,-0.08 0.57,3.05 2.53,0.2 1.74,-2.53 4.17,-6.62 2.67,-8.84 -1.13,-1.66 -1.03,-1.5 -2.45,-0.1 -1.76,1.74 -3.05,0.36 0.26,-1.43 2.33,-3.4 -3.39,-2.32 -4.04,-1.37 1.07,-1.56 1.55,-5.88 -0.58,-2.79 -1.59,2.31 -0.91,-2.74 -1.27,-2.99 -0.84,0.9 -1.42,3.46 -2.07,3.91 -0.78,0.54 -1.61,-6.29 -2.03,-6.9 -1.29,-1.86 -2.05,1 -3.16,0.26 0.36,-0.46 0.64,-1 1.01,-1.46 -1.41,-0.94 -4.11,4.29 -4.29,1.4 -0.12,-1.95 -1.98,0.81 -2.71,0.32 0.58,-2.92 2.28,-3.51 0.74,-5.91 -0.92,-0.62 -1.99,-1.62 -3.35,-1.17 -2.08,0.68 -0.32,-1.02 -1.05,-1.5 -0.88,-0.59 -2.61,1.62 -1.87,-1.52 -0.07,-1.1 -2.69,-3.15 -2.97,-0.92 -0.47,3.73 -2.64,2.69 -1.67,-0.41 0.47,-1.49 2,-2.58 0.52,-3.56 -0.53,-0.35 -2.11,-0.55 -2.71,0.32 -0.75,0.07 -1.15,-1.37 -2.19,-0.36 -0.4,0.4 -1.48,2.44 -2.01,2.09 -1.27,-0.85 1.57,-4.16 2.85,-3.7 -1.27,-0.91 -8.87,-2.68 -6.75,-5.59 -0.85,-0.57 -1.97,0.32 -2.52,1.25 1.03,-1.8 -0.31,-3.65 -1.63,-4.25 -1.62,-0.73 -3.68,2.45 -4.6,1.49 -0.51,-0.53 -3.01,-2.8 -3.23,-3.63 -0.2,-0.73 0.49,-1.23 0.03,-2.07 -2.22,-4.05 -8.1,-7.58 -12.95,-7.33 1.97,-0.65 -4.1,-4.88 -4.12,-4.89 -0.81,-1.91 -2.26,-1.97 -4.26,-1.86 -1.31,0.07 -0.71,-1.29 -1.45,-2.23 -1.46,-1.86 -4.51,-3.03 -6.25,-4.62 -0.05,-0.05 -4.92,-3.2 -5.18,-4.54 -0.48,0.89 -1.31,2.62 -1.55,2.97 2.29,-3.34 -4.73,-10 -6.86,-5.74 -1.62,-1.09 -0.21,-1.44 -2.1,-2.13 -1.75,-0.64 -4.24,-1.9 -4.83,-3.94 -0.59,-2.05 -2.86,-1.3 -3.06,-2.36 -0.19,-1.02 0.5,-3.78 -1.52,-3.12 -0.69,0.43 -1.27,0.99 -1.72,1.7 -0.3,0.1 -0.53,-6.41 -0.59,-6.84 -0.24,-1.72 -2.85,-1.96 -4.22,-1.8 -1.71,0.56 -2,-1.08 -2.97,-1.36 -0.92,-0.26 -1.16,1.79 -2.73,0.74 0.3,0.2 -0.56,-3.57 -0.56,-3.58 0.66,-0.95 -1.92,-1.98 -2.19,-2.4 -0.45,-0.52 -1.01,-0.85 -1.7,-1 -0.25,-0.69 -0.3,-1.43 -0.13,-2.23 -0.16,-0.11 -2.13,1.45 -1.88,0.97 0.22,-0.33 0.43,-0.66 0.65,-0.99 0.1,-0.44 0.1,-0.58 0.05,-0.57 -0.21,-2.65 -8.61,2.3 -7.66,3.63 -1.04,-1.44 -1.17,-2.52 -2.81,-3.62 -0.75,-0.5 -1.64,-3.75 -1.94,-3.83 -1.13,-0.32 -3.06,3.11 -3.77,1.32 -0.38,-0.97 0.78,-2.7 1.52,-3.49 -1.12,-0.75 -4.24,2.24 -4.15,3.63 0.07,1.21 -1.29,2.23 -2.28,3.36 1.25,-2.02 2.63,-5.54 1.46,-6.62 -0.51,-0.47 -2.17,4.41 -3.89,4.02 -1.48,-0.33 -1.63,-4.63 -3.13,-4.34 -0.21,0.04 0.07,2.45 0.14,2.7 0.45,0.3 -5.99,2.67 -3.85,-0.44 0.21,0.23 1.22,1.19 1.54,0.71 1.56,-2.28 -2.24,-2.97 -3.1,0.65 -0.37,1.57 0.75,1.66 0.6,2.86 z"
         id="path359" />
      <path
         class="cls-3"
         d="m 593.56,520.36 c -0.07,0.09 -0.16,0.21 -0.27,0.34 0.1,-0.08 0.19,-0.2 0.27,-0.34 z"
         id="path361" />
      <path
         class="cls-3"
         d="m 518.61,425.05 c -0.3,0.1 -0.38,0.29 -0.33,0.53 0.17,-0.31 0.29,-0.51 0.33,-0.53 z"
         id="path363" />
      <path
         class="cls-3"
         d="m 593.68,520.2 c -0.04,0.07 -0.08,0.11 -0.11,0.17 0.06,-0.08 0.1,-0.13 0.11,-0.17 z"
         id="path365" />
      <path
         class="cls-3"
         d="m 497.7,401.84 c -0.17,0.24 -0.34,0.49 -0.5,0.73 0.38,-0.55 0.75,-1.1 1.13,-1.65 -0.21,0.3 -0.42,0.61 -0.63,0.91 z"
         id="path367" />
    </g>
    <g
       id="g389">
      <path
         class="cls-3"
         d="m 589.17,263.54 c -1.53,-1.21 -1.87,5.66 -2.1,6.09 0.33,-1.12 0.73,-2.13 1.2,-3.04 0.6,-0.78 0.91,-1.8 0.9,-3.05 z"
         id="path371" />
      <path
         class="cls-3"
         d="m 596.37,266.86 c 1.06,-0.33 1.59,-1.34 1.58,-3.02 -1.29,-0.52 -1.88,2.01 -2.59,2.99 z"
         id="path373" />
      <path
         class="cls-3"
         d="m 598.35,253.83 c 0.82,-0.23 1.54,-0.93 2.19,-2.1 -2.08,-5.46 -4.18,2.03 -2.19,2.1 z"
         id="path375" />
      <path
         class="cls-3"
         d="m 607.23,711.8 c 0.93,0.34 1.45,-0.68 1.55,-3.06 -0.45,-8.03 -3.87,-1.93 -1.55,3.06 z"
         id="path377" />
      <path
         class="cls-3"
         d="m 555.27,685.2 c 1.03,21.21 1.98,42.44 3.21,63.63 0.51,9.31 0.78,18.61 1.22,27.91 0.15,3.61 -0.59,7.38 1.34,4.98 -0.39,0.49 0.43,10.8 1.39,21.6 0.46,5.4 1.05,10.93 1.53,15.41 0.47,4.48 0.82,7.92 0.95,9.16 0.53,5.82 2.49,4.98 3.04,10.96 0.38,4.22 1.45,0.19 2.66,3.09 1.49,3.6 -1.67,4.91 -1.51,6.73 0.72,7.89 10.36,-4.62 10.68,-7 0.44,-3.27 -7.77,-0.28 -8,-1.29 -0.95,-4.18 6.26,-12.44 7.03,-9.36 -0.94,-3.77 -4.29,-5.61 -6.03,-6.11 1.32,-0.98 3.44,-2.55 4.35,-4.79 1.84,-4.54 -1.93,-4.9 -1.4,-8.86 1.14,-8.22 -1.61,-5.58 -2.04,-10.79 0.19,0.04 1.74,0.34 2.7,0.45 -2.66,-1.51 -0.27,-22.01 0.11,-24.58 0.51,-3.46 -1.74,-4.92 -2.54,-6.32 -0.89,-1.52 1.91,-7.84 2.09,-8.98 0.98,-6.23 -3.01,-9.77 1.18,-11.8 -0.48,0.23 -3.9,-3.04 -2.47,-5.87 0.78,-1.56 5.29,-7.32 5.12,-9.74 -1.91,0.85 -9.24,-7.96 -7.3,-11.39 0.66,-1.17 3.2,2.31 4.34,-0.67 0.8,-2.07 -1.99,-3.45 -2.24,-4.42 -0.22,-0.88 10.81,-7.46 11.52,4.82 0.13,2.56 7.46,5.7 2.62,9.77 -1.24,1.04 -8.76,0.51 -6.58,5.85 4.09,10.04 2.75,8.66 -1.71,9.16 0.59,-0.06 5.29,4.01 6.17,4.8 2.55,2.3 2.68,-0.92 4.25,-0.27 1.39,0.57 -0.07,6.43 -0.74,7.01 -1.87,1.65 -4.47,1.07 -6.51,1.29 2.14,3.82 -0.67,2.8 0.07,6.43 0.36,1.7 3.86,-0.07 4.41,-0.35 -1.07,1.02 -1.39,2.63 -0.97,4.83 1.48,2.18 3.1,-3.65 3.68,3.64 0.92,2.88 1.45,3.98 0.52,6.53 1.9,0 6.22,-3.57 7.8,0.8 1.47,4.08 -1.95,7.27 1.96,6.79 3.48,-0.43 8.79,-2.06 9.3,-10.09 0.38,-6.01 0.33,-5.46 -1.98,-6.39 -2.87,-1.16 -2.85,-7.05 1.36,-2.07 2.34,-0.28 2.07,-3.52 1.11,-6.68 -0.96,-3.16 -2.67,-6.24 -3.33,-6.17 2.15,-0.25 6.08,-7.24 1.82,-6.76 -3.19,0.36 1.51,-7.5 1.42,-8.89 -1.42,-0.43 -3.99,2.97 -4.89,2.16 -1.07,-0.97 3.85,-16.01 4.01,-18.22 0.5,-6.79 -2.46,-3.32 -2.72,-7.55 0.68,0.05 1.34,-0.25 2.02,-0.21 -0.31,-5.36 -6.83,-2.37 -4.54,-8.26 1.55,-3.97 -2.23,-3.51 -2.4,-6.31 2.9,-4.04 4.74,-0.82 5.55,-9.27 -0.2,-3.5 -0.2,-8.11 -1.64,-10.74 -2.18,-4.03 0.62,-2.74 0.49,-5.49 -0.16,-3.34 -3.37,-3.61 -0.11,-7.61 0.9,-2.24 0.68,-12.78 -1.45,-9.31 -3.56,5.81 -4.31,-1.71 -0.91,-5.03 1.64,-1.6 3.73,0.28 3.46,-5.35 -0.09,-2.01 -1.12,-6.43 -2.33,-6.33 -0.64,-1.78 0.32,-5.53 -1.32,-6.26 -0.64,-0.29 -3.23,67.45 -3.3,65.4 -0.18,-4.84 4.81,-3.76 5.34,0.38 -0.12,-4.93 -4.09,-27.73 0,-27.73 -0.12,-3.22 -1.72,-4.47 -2.94,-4.13 2.33,-0.72 2.99,-7.59 2.62,-12.11 -0.47,-5.51 -4.78,-4.9 -4.56,-9.03 0.12,-2.31 0.42,-12.93 1.01,-15.05 0.52,-1.87 1.45,-1.03 1.89,-3.77 1.01,-6.6 1.44,-15.32 1.1,-23.9 -0.33,-8.58 -1.37,-17.01 -3.12,-23.04 0.95,1.95 1.39,-2.95 1.66,-8.34 0.13,-2.7 0.2,-5.51 0.23,-7.66 0.03,-2.15 0.04,-3.62 0.04,-3.64 1.28,-5.61 0.4,-9.47 -0.99,-14.44 -0.91,-3.28 0.76,-4.2 1.17,-7.83 0.86,-7.18 0.13,-17.22 0.6,-24.64 0,-0.06 0.01,-1.25 0.03,-3.05 0.02,-1.8 0.06,-4.22 0.14,-6.73 0.14,-5.01 0.45,-10.39 1.05,-11.96 -1.16,0.37 -3.35,1.37 -3.82,1.38 4.63,-0.14 7.05,-30.45 1.62,-28.26 0.12,-6.19 1.29,-3.16 0.86,-9.34 -0.38,-5.72 -0.47,-14.49 1.24,-19.7 1.73,-5.23 -0.3,-9.81 0.65,-12.24 0.92,-2.35 4.07,-5.5 2.27,-9.58 -0.81,-1.04 -1.7,-1.52 -2.66,-1.43 -0.26,-0.61 6.27,-12.91 6.68,-13.83 1.63,-3.7 0.49,-10.94 -0.4,-14.22 -1.47,-3.45 0.05,-7.16 -0.19,-10.2 -0.21,-2.86 -2.48,0.17 -2.18,-5.81 -0.06,1.14 3.45,-7.84 3.45,-7.84 1.32,0.01 1.1,-8.55 1.4,-10.01 0.32,-2.09 0.38,-4.17 0.2,-6.23 0.59,-1.88 1.34,-3.31 2.25,-4.31 0.03,-0.6 -2.57,-2.99 -1.95,-3.2 l 1.36,-0.06 c 0.51,-0.51 0.65,-0.77 0.62,-0.88 2.61,-5.26 -6.56,-18.46 -7.53,-13.61 1.04,-5.28 2.13,-7.54 2.52,-13.78 0.18,-2.88 3.2,-10.95 3.15,-11.86 -0.19,-3.54 -4.74,-2.55 -3.18,-7.56 0.86,-2.73 3.26,-2.73 4.44,-2.17 0.32,-4.27 -4.3,-7.18 -5.76,-4.51 -1.27,2.32 -2.98,0.55 -4.64,-0.06 2.74,-0.28 7.15,-2.86 7.8,-7.84 0.28,-2.16 -5.72,2.07 -6.07,-3.14 -0.3,-4.49 4.28,-12.45 3.31,-15.89 -0.14,-0.49 -2.61,4.48 -2.85,5.1 -0.13,1.73 -5.53,-11.09 -1.22,-10.93 -0.15,0.94 -0.75,5.3 -0.09,5.32 3.15,0.11 2.22,-11.14 -2.07,-7.04 -1.87,1.79 -1.46,4.89 -2.83,6.62 -1.92,2.43 -1.81,-4.61 -2.65,-4.64 -1.25,-0.05 -0.53,4.03 -2.83,2.99 -1.06,-1.44 -2.26,-1.95 -3.6,-1.55 -2.02,0.09 -1.21,4.3 -3.63,4.21 -0.38,5.12 1.03,5.74 3.42,4.18 0.9,-0.58 8.14,-2.64 5.9,2.61 -2.69,6.29 -9.02,3.16 -12.24,10.62 -1.65,3.82 -3.2,9.92 -6.09,8.41 -1.87,-0.98 -2.38,-6.59 -4.52,-8.09 -2.13,-1.49 -4.72,-0.79 -7.01,-0.86 -1.58,-0.05 -3.04,0 -3.33,3.84 l -0.61,7.82 -0.55,7.82 -1.14,15.65 c -3.2,43.68 -6.11,87.39 -7.8,131.15 l -0.69,15.56 -0.6,15.57 -0.55,15.57 c -0.17,5.19 -0.31,10.38 -0.33,15.57 -0.06,7.28 -0.2,14.23 -0.64,20.93 -0.41,6.7 -1.19,13.15 -2.29,19.43 -0.29,1.59 2.15,5.03 2.68,5.84 -0.7,0.03 -1.08,4.87 -1.24,12.17 -0.13,7.3 -0.18,17.06 0.14,26.91 0.52,19.71 1.48,39.81 1.86,41.49 0.78,4.33 -0.45,15.26 -0.39,20.51 0.1,6.74 -0.26,11.84 0.88,18.43 l 0.63,13.99 z"
         id="path379" />
      <path
         class="cls-3"
         d="m 576.9,800.96 c -0.13,0 -0.3,-0.02 -0.5,-0.04 0.15,0.08 0.32,0.08 0.5,0.04 z"
         id="path381" />
      <path
         class="cls-3"
         d="m 606.8,496.07 c -0.27,-0.6 -0.51,-0.46 -0.71,0.09 0.4,-0.13 0.67,-0.18 0.71,-0.09 z"
         id="path383" />
      <path
         class="cls-3"
         d="m 577.12,800.94 c -0.08,0.04 -0.15,0 -0.23,0.02 0.11,0 0.19,0 0.23,-0.02 z"
         id="path385" />
      <polygon
         class="cls-3"
         points="617.17,399.78 619.45,399.78 618.18,399.78 "
         id="polygon387" />
    </g>
  </g>
</svg>
